<svg width="171" height="120" viewBox="0 0 171 120" fill="none" xmlns="http://www.w3.org/2000/svg">
<path d="M61.7202 70.0697C61.7202 68.0501 60.3881 66.3312 59.7865 64.3975C54.8447 47.5955 47.2817 58.6822 48.27 48.9706C49.0865 41.0638 37.742 37.2393 36.7966 40.677C36.0661 43.4272 32.4564 44.9313 30.7376 42.6108C28.546 39.6887 29.4054 35.5204 27.4717 32.4694C26.3544 30.7076 24.2488 29.4614 22.0573 29.2895C20.0806 29.1176 18.0179 29.7192 16.0842 29.2036C12.6464 28.2582 10.8846 24.1329 7.3609 23.6602C7.0601 23.6173 6.7593 23.6172 6.4585 23.7462C5.89986 23.961 5.685 24.6056 5.55609 25.1642C5.16934 26.6682 4.82557 28.3441 5.72798 29.6333C6.54444 30.7935 8.17737 31.2662 8.95086 32.4265C9.72435 33.5867 9.46652 35.1337 8.99383 36.4228C8.52114 37.712 7.83359 39.0441 7.91954 40.4192C8.00548 42.3959 9.63841 44.1148 11.5292 44.9313C13.4629 45.7907 15.6115 45.9196 17.7601 45.9196C18.3187 45.9196 18.8773 45.9196 19.393 46.0915C21.0689 46.6501 21.4556 48.9276 20.3814 50.2598C19.9516 50.7754 19.393 51.2051 19.0922 51.7638C18.2757 53.2678 19.7368 55.1156 21.4556 55.6312C23.1745 56.1039 25.0223 55.7172 26.8271 55.5023C28.6319 55.2875 30.6516 55.3304 31.9837 56.4477C33.6596 57.9087 33.4877 60.4011 34.4761 62.3778C35.5074 64.4834 37.8709 65.7726 40.2773 66.3312C42.6837 66.8898 45.1761 66.8039 47.6684 66.9328C52.868 67.1906 58.0676 68.3079 62.5367 70.8003" fill="#4DC591"/>
<path opacity="0.2" d="M17.9944 53.2619C19.3695 57.9459 23.6237 61.8993 27.4482 64.9932C31.4875 68.2591 35.9996 70.9663 40.5546 73.5446C50.0943 78.9591 60.0638 83.9868 67.4549 91.9795C67.6698 92.1944 68.0135 91.8936 67.7987 91.6787C61.3099 84.0727 52.071 79.2169 43.2188 74.3611C38.7498 71.8687 34.2377 69.3764 30.1124 66.3683C25.4715 63.0165 19.8851 58.6334 18.1663 53.219C18.1233 53.133 17.9514 53.176 17.9944 53.2619Z" fill="#444472"/>
<path d="M127.143 87.5535C129.205 88.5848 131.526 88.7137 133.846 88.7997C138.788 88.9716 143.816 88.7997 148.543 87.4246C149.746 87.0808 150.992 86.6081 151.98 85.8776C153.012 85.1041 153.785 83.9869 153.871 82.6977C154 80.9359 152.883 79.3889 152.152 77.7989C151.937 77.3262 151.722 76.7676 151.851 76.2519C152.152 75.0487 153.828 74.8768 155.074 75.0487C156.106 75.1776 157.137 75.2636 158.168 75.3925C159.457 75.5214 161.004 75.5644 161.735 74.4901C162.379 73.5877 162.036 72.2556 161.219 71.525C160.403 70.7945 159.286 70.5367 158.168 70.4937C157.051 70.4507 155.977 70.6226 154.859 70.5367C154.602 70.5367 154.344 70.4937 154.129 70.3218C153.613 69.9351 153.871 69.1186 154.215 68.603C155.031 67.4857 156.32 66.6692 157.696 66.4973C159.071 66.3255 160.403 66.6692 161.778 66.7981C163.153 66.9271 164.657 66.7981 165.645 65.8098C166.591 64.8644 166.849 63.4463 166.806 62.1142C166.72 60.2235 164.098 57.817 161.606 59.364C160.231 60.2235 158.899 61.0829 157.567 61.9423C156.707 62.501 155.418 63.0166 154.73 62.2002C154.215 61.5556 154.559 60.5672 155.074 59.8797C156.965 57.1725 160.102 55.7114 162.637 53.5628C166.505 50.254 160.532 44.4958 155.59 47.7616C154.301 48.6211 153.226 49.8243 152.453 51.1564C151.551 52.7464 151.078 54.5512 149.875 55.8833C149.445 56.356 148.886 56.7857 148.242 56.9146C147.597 57.0006 146.867 56.6998 146.652 56.0552C146.437 55.4106 146.824 54.766 147.082 54.1215C147.769 52.2737 147.124 50.1681 145.964 48.6211C145.277 47.7187 144.245 46.9022 143.128 46.9882C141.753 47.1171 140.808 48.4922 140.593 49.8243C140.378 51.1564 140.679 52.5315 140.679 53.9066C140.722 55.2817 140.378 56.7857 139.261 57.5592C139.089 57.6881 138.874 57.7741 138.659 57.7741C138.487 57.7741 138.315 57.6881 138.143 57.5592C137.069 56.7857 136.725 55.4106 136.124 54.2504C135.522 53.0901 134.319 51.9299 133.073 52.3167C132.041 52.6604 131.612 53.8636 131.655 54.9379C131.741 56.0122 132.17 57.0006 132.385 58.0749C132.987 61.2978 130.752 64.7785 127.615 65.552C126.713 65.7668 125.768 65.8098 124.951 66.1536C123.533 66.7122 122.502 68.0873 122.029 69.5483C121.556 71.0094 121.513 72.5564 121.513 74.1033C121.556 78.0568 122.201 82.5258 125.381 84.8893" fill="url(#paint0_linear_1352_1371)"/>
<g opacity="0.41">
<path opacity="0.41" d="M160.489 53.0467C160.317 53.0897 160.188 53.1756 160.016 53.2186C160.188 53.1326 160.317 53.0897 160.489 53.0037C160.489 52.9608 160.532 53.0467 160.489 53.0467Z" fill="#444472"/>
<path opacity="0.41" d="M158.512 53.6914C159.028 53.5625 159.5 53.3906 160.016 53.2188C159.543 53.4336 159.028 53.5625 158.512 53.6914Z" fill="#444472"/>
<path opacity="0.47" d="M134.663 58.5043C133.03 64.6063 131.483 70.8802 133.073 77.1111C135.264 74.1031 137.585 71.181 140.034 68.3449C140.378 62.9734 142.054 57.8598 143.687 52.7461C143.687 52.7032 143.773 52.7031 143.773 52.7891C142.397 57.7308 141.108 62.6296 140.593 67.7433C144.331 63.4461 148.371 59.4497 152.711 55.8401C152.668 55.7971 152.668 55.7541 152.668 55.7112C153.785 53.1758 155.332 50.8983 157.266 48.9216C157.266 48.9216 157.309 48.9216 157.309 48.9646C155.461 50.8983 154.043 53.0899 153.012 55.5823C153.742 54.9807 154.473 54.3791 155.246 53.8204C155.246 53.7345 155.246 53.6915 155.332 53.6915H155.375C156.621 52.7032 157.91 51.7578 159.242 50.8554C159.242 50.8554 159.285 50.8554 159.285 50.8983C157.996 51.8007 156.75 52.7461 155.547 53.6915C156.492 53.8204 157.524 53.8204 158.512 53.6485C157.481 53.9064 156.492 53.9923 155.332 53.8634C151.379 57.0003 147.726 60.481 144.331 64.1766C149.617 66.1963 154.988 64.0477 160.317 63.4031C160.36 63.4031 160.36 63.4461 160.317 63.4461C154.988 64.2196 149.488 66.583 144.159 64.5634C144.116 64.5634 144.073 64.5204 144.073 64.4774C142.827 65.8095 141.624 67.2276 140.464 68.6027C140.464 68.7316 140.378 68.7746 140.292 68.8176C139.304 70.0208 138.315 71.224 137.327 72.4702C142.87 74.1461 148.499 74.7477 154.215 73.8023C154.258 73.8023 154.258 73.8453 154.215 73.8453C148.499 75.0055 142.612 74.7477 137.112 72.728C135.135 75.2633 133.244 77.8846 131.397 80.5059C136.811 82.7404 142.655 84.4163 148.328 82.0529C148.371 82.0529 148.371 82.0958 148.328 82.0958C142.612 84.5882 136.682 82.9983 131.139 80.8067C130.58 81.6232 129.979 82.4396 129.42 83.2991C129.205 83.6428 128.647 83.2991 128.861 82.9553C130.108 81.1075 131.397 79.3027 132.686 77.4979C130.838 71.0521 132.6 64.7352 134.448 58.5043C134.577 58.4184 134.663 58.4614 134.663 58.5043Z" fill="#444472"/>
</g>
<path d="M39.898 82.4639C38.9956 84.0109 37.4915 85.0852 36.0305 86.1165C32.8506 88.3081 29.4988 90.3277 25.8032 91.402C24.8578 91.7028 23.8695 91.9177 22.8811 91.8318C21.8928 91.7458 20.9044 91.3591 20.3028 90.5426C19.4864 89.4683 19.5723 87.9643 19.4004 86.5892C19.3575 86.1595 19.2285 85.7297 18.9277 85.4289C18.1972 84.7414 17.08 85.386 16.3065 85.9876C15.6619 86.5033 15.0173 87.0189 14.4157 87.5346C13.6422 88.1792 12.6109 88.8237 11.6655 88.437C10.892 88.0932 10.5482 87.1048 10.7631 86.2884C10.978 85.4719 11.6225 84.8274 12.3101 84.3117C12.9976 83.839 13.8141 83.4523 14.5016 82.9366C14.6735 82.8077 14.8454 82.6788 14.8884 82.5069C15.0603 82.0342 14.5446 81.6045 14.1149 81.4326C13.0836 81.0458 11.9233 81.0458 10.935 81.5185C9.94664 81.9482 9.21612 82.7647 8.35668 83.4093C7.49725 84.0539 6.46592 84.6125 5.4346 84.3976C4.44625 84.1828 3.62979 83.3663 3.11412 82.4639C2.34063 81.1747 3.11412 78.5105 5.34866 78.4675C6.59484 78.4246 7.84102 78.4675 9.0872 78.4675C9.90367 78.4675 10.935 78.2527 11.0639 77.4362C11.1498 76.7916 10.4623 76.3189 9.86069 76.0611C7.49725 75.0728 4.79002 75.4595 2.25469 75.1157C-1.65574 74.6001 -0.194703 68.2832 4.44625 68.3692C5.64946 68.3692 6.85267 68.7129 7.92696 69.2716C9.17315 69.9161 10.2474 70.9475 11.6225 71.2912C12.0952 71.4202 12.6539 71.4631 13.1265 71.2912C13.5992 71.0764 13.943 70.5607 13.8141 70.0451C13.6852 69.5294 13.1695 69.2716 12.7398 68.9708C11.5366 68.0684 11.0209 66.3925 11.1498 64.8884C11.2358 63.986 11.5366 63.0407 12.3101 62.6539C13.2555 62.1383 14.4587 62.6539 15.1462 63.4704C15.8767 64.2439 16.2205 65.2752 16.7792 66.1776C17.3378 67.08 18.1972 67.9394 19.2715 67.9824C19.4434 67.9824 19.6153 67.9824 19.7872 67.8535C19.9161 67.7676 19.9591 67.6386 20.045 67.5097C20.4318 66.5643 20.088 65.4901 19.9591 64.4587C19.8301 63.4274 20.1739 62.1812 21.1623 61.9234C21.9787 61.7085 22.7952 62.3101 23.1819 63.0836C23.5687 63.8142 23.6976 64.6736 24.0414 65.4471C24.9868 67.8105 27.9088 69.1427 30.3153 68.3692C31.0028 68.1543 31.6474 67.7676 32.3349 67.6386C33.4952 67.4238 34.7414 67.8965 35.6867 68.627C36.6321 69.4005 37.3197 70.3888 37.9642 71.4202C39.5972 74.0414 41.0582 77.2213 39.9839 80.1434" fill="#4DC591"/>
<g opacity="0.41">
<path opacity="0.41" d="M9.43091 76.3799C9.55982 76.3369 9.68874 76.3369 9.81765 76.2939C9.68874 76.3369 9.55982 76.3369 9.43091 76.3799C9.43091 76.3799 9.43091 76.3369 9.43091 76.3799Z" fill="#444472"/>
<path opacity="0.41" d="M11.0208 75.9507C10.6341 76.0796 10.2473 76.2085 9.81763 76.2945C10.2473 76.2515 10.6341 76.1226 11.0208 75.9507Z" fill="#444472"/>
</g>
<path d="M54.1647 87.6251C54.543 85.1918 56.3363 83.3215 57.3207 81.0902C65.9439 61.5876 72.0253 76.3991 72.8116 64.4584C73.4656 54.7069 86.5268 52.1128 86.8991 56.4447C87.1616 59.8716 90.7971 62.3385 93.1278 59.852C96.0829 56.7083 95.9437 51.5218 98.6546 48.1322C100.226 46.197 102.751 45.0643 105.155 45.2013C107.345 45.3337 109.47 46.4533 111.668 46.1561C115.582 45.6202 118.287 40.9153 122.214 40.99C122.549 40.9799 122.892 41.0302 123.163 41.2422C123.73 41.6325 123.859 42.4433 123.887 43.1746C124.019 45.0256 124.095 47.1591 122.827 48.5677C121.725 49.8338 119.862 50.1209 118.795 51.4135C117.694 52.6796 117.713 54.6056 117.944 56.261C118.209 57.9429 118.689 59.6293 118.37 61.2903C117.891 63.6441 115.815 65.4568 113.54 66.1306C111.298 66.8309 108.88 66.5733 106.601 66.2069C106.01 66.1256 105.384 66.0177 104.754 66.1247C102.812 66.5133 101.947 69.22 102.837 71.0097C103.166 71.7044 103.729 72.3095 103.945 73.0791C104.522 75.0599 102.589 77.039 100.632 77.307C98.6481 77.6087 96.7404 76.7688 94.8354 76.204C92.9304 75.6392 90.7457 75.292 89.0794 76.4429C86.9597 77.8937 86.6619 80.9907 85.2406 83.1526C83.7206 85.5101 80.8934 86.6793 78.164 86.8879C75.4684 87.123 72.7453 86.6268 70.0441 86.3116C64.4417 85.7973 59.4983 85.4173 54.1647 87.6251Z" fill="#4DC591"/>
<path d="M48.1305 86.3103C52.206 81.9608 56.3245 77.6116 59.5033 72.5671C64.5981 64.4874 67.0419 54.7956 66.4764 45.2509C66.399 44.2189 66.0233 42.8836 64.992 42.8751C64.5193 42.8712 64.1305 43.1258 63.7842 43.4237C62.8758 44.1467 62.0526 44.9564 61.3576 45.8531C60.8796 46.4937 60.2719 47.2192 59.4992 47.1269C58.9409 47.0793 58.5581 46.6034 58.3042 46.1286C57.0339 43.8405 57.7887 40.9246 59.1819 38.7445C60.5751 36.5644 62.5666 34.776 63.9602 32.5529C65.3538 30.3299 66.0655 27.4136 64.7519 25.1681C64.4128 24.6066 63.9014 24.0867 63.2569 24.0814C62.9561 24.0789 62.6972 24.2057 62.4383 24.3324C59.5905 25.727 58.5304 29.199 57.1745 32.067C57.0431 32.3667 56.8254 32.7087 56.5235 32.8351C56.0494 33.0031 55.5799 32.6124 55.2823 32.2232C53.7539 29.9759 55.1106 27.022 56.2484 24.539C57.7802 21.1998 58.9291 17.3847 57.884 13.8522C57.6326 13.0766 57.2523 12.2999 56.5683 11.8645C54.9433 10.9057 52.8664 12.6074 52.5074 14.4523C52.1483 16.2971 52.7342 18.1928 52.7615 20.0839C52.7576 20.5565 52.7107 21.0289 52.3641 21.3698C51.8012 21.8808 50.8158 21.5288 50.4344 20.8811C50.053 20.2333 50.1027 19.4173 50.1951 18.6445C50.7176 12.6326 51.0302 6.01728 47.288 1.25922C46.9052 0.783342 46.4794 0.30711 45.8792 0.130245C44.7215 -0.180158 43.5968 0.712962 43.0297 1.73962C41.5033 4.43429 42.2056 7.835 43.4283 10.6814C44.6509 13.5277 46.3906 16.2065 46.9673 19.2194C47.1733 20.2954 47.2066 21.456 46.7687 22.4407C46.3308 23.4255 45.2928 24.2334 44.2192 24.1385C42.8023 23.9979 41.9117 22.5724 41.3208 21.2783C40.8137 20.2427 40.3066 19.2072 39.7991 18.2146C39.5033 17.6105 39.0793 16.9194 38.3918 16.9137C37.5327 16.8636 37.0938 17.9773 37.0863 18.8797C37.0653 21.4149 38.4637 23.7901 40.2535 25.6098C42.0003 27.4291 44.1371 28.8649 46.1002 30.5142C46.6123 30.9481 47.124 31.4251 47.4198 32.0292C47.8002 32.8058 47.7494 33.7508 47.5704 34.6088C47.1268 36.2811 46.0404 37.7332 44.5293 38.5801C43.4068 39.2154 42.1152 39.5055 41.1201 40.3138C39.4332 41.632 38.9818 44.2496 40.17 46.0643C41.1881 47.6628 43.1161 48.3663 44.9613 48.6824C46.8066 48.9985 48.7406 48.9716 50.5407 49.5451C51.355 49.8097 52.1686 50.1602 52.6356 50.8517C53.3149 51.8457 53.132 53.1763 52.6504 54.2467C51.9064 55.8735 50.5629 57.2375 48.9244 57.9115C47.4151 58.5436 45.7382 58.6586 44.1869 59.1615C42.6361 59.6213 41.0377 60.6395 40.6378 62.2261C40.0599 64.5419 42.2776 66.58 44.4173 67.6721C46.5572 68.7212 49.0854 69.6016 50.0988 71.7586C50.8172 73.2257 50.5878 74.9857 50.2738 76.5731C49.6004 80.0484 48.4984 83.3911 47.0107 86.6018" fill="#4DC591"/>
<path d="M165.302 93.8273C167.106 92.0654 168.524 89.8739 169.384 87.5104C170.2 85.104 170.286 82.4827 170.286 79.9474C170.243 77.1112 170.071 74.2751 169.771 71.4819C165.388 72.857 161.047 74.49 157.094 76.8104C153.141 79.1309 149.445 82.1389 147.124 86.1353C143.171 92.9678 144.503 100.832 144.503 100.832C144.503 100.832 155.547 103.367 165.302 93.8273Z" fill="url(#paint1_linear_1352_1371)"/>
<path opacity="0.3" d="M152.453 94.386C154.688 92.4523 156.879 90.3896 158.899 88.241C162.766 84.1157 166.032 79.4748 168.224 74.1463C168.267 74.0174 168.095 73.9314 168.009 74.0604C165.602 79.5178 161.993 84.2876 157.911 88.4559C155.977 90.4326 153.957 92.2804 151.851 94.0852C149.66 95.976 147.254 97.6089 145.105 99.5856C144.847 99.8005 145.191 100.144 145.449 99.9723C147.941 98.3394 150.219 96.3197 152.453 94.386Z" fill="url(#paint2_linear_1352_1371)"/>
<path d="M152.797 106.891C154.602 107.406 156.621 107.535 158.512 107.191C160.446 106.805 162.294 105.902 164.098 104.914C166.075 103.797 167.966 102.593 169.814 101.347C167.407 98.9408 164.872 96.6633 161.95 94.9444C159.028 93.1826 155.719 91.8934 152.195 91.8504C146.136 91.8075 141.109 95.7179 141.109 95.7179C141.109 95.7179 142.956 104.054 152.797 106.891Z" fill="url(#paint3_linear_1352_1371)"/>
<path opacity="0.3" d="M148.199 98.5971C150.304 99.3706 152.41 100.015 154.602 100.574C158.727 101.562 163.067 101.992 167.493 101.433C167.579 101.433 167.579 101.261 167.493 101.261C162.895 101.734 158.426 101.175 154.172 100.058C152.152 99.5425 150.218 98.8979 148.285 98.1674C146.265 97.3939 144.331 96.4485 142.269 95.7609C142.054 95.675 141.882 96.0188 142.097 96.1477C143.987 97.0931 146.136 97.8236 148.199 98.5971Z" fill="url(#paint4_linear_1352_1371)"/>
<path d="M86.2024 46.6675C88.0502 45.2494 89.6401 43.4016 90.7144 41.253C91.7887 39.0615 92.2184 36.5691 92.5622 34.0768C92.906 31.3266 93.1638 28.5764 93.2497 25.7832C89.1245 26.3848 85.0421 27.2013 81.1747 28.7912C77.3072 30.3812 73.5687 32.6587 70.9474 36.0964C66.4354 42.0265 66.6072 49.8474 66.6072 49.8474C66.6072 49.8474 76.19 54.2305 86.2024 46.6675Z" fill="#4DC591"/>
<g opacity="0.41">
<path opacity="0.41" d="M76.8227 56.4847C76.7797 56.6566 76.7368 56.7855 76.6938 56.9574C76.7368 56.7855 76.7797 56.6566 76.7797 56.4847C76.7797 56.4417 76.8227 56.4847 76.8227 56.4847Z" fill="#444472"/>
<path opacity="0.41" d="M76.178 58.4186C76.3499 57.9459 76.5218 57.4732 76.6937 56.9575C76.5648 57.4732 76.3929 57.9459 76.178 58.4186Z" fill="#444472"/>
<path opacity="0.47" d="M66.5097 79.7322C70.1193 84.588 73.9008 89.5297 79.4012 92.0221C78.4129 88.5414 77.5105 85.0177 76.7799 81.4511C72.9984 77.9703 70.1193 73.6732 67.2832 69.376C67.2402 69.333 67.3261 69.29 67.3261 69.333C70.2053 73.3294 73.1273 77.2398 76.6081 80.6776C75.5338 75.2631 74.8032 69.7627 74.5454 64.2194C74.5024 64.2194 74.4595 64.2194 74.4595 64.1764C73.2133 61.8129 72.3538 59.2776 72.0101 56.6134C72.0101 56.5704 72.053 56.5704 72.053 56.6134C72.4828 59.1917 73.2992 61.5981 74.5454 63.8756C74.5024 62.9732 74.5024 62.0278 74.4595 61.1254C74.4165 61.0824 74.3735 61.0395 74.4165 60.9535L74.4595 60.9105C74.4595 59.3636 74.4595 57.8166 74.5454 56.2266C74.5454 56.1836 74.5884 56.2266 74.5884 56.2266C74.5454 57.7306 74.5454 59.2776 74.5884 60.7816C75.19 60.1371 75.7916 59.3206 76.1783 58.4612C75.7916 59.4065 75.3189 60.266 74.5884 61.0395C74.7173 65.9382 75.2759 70.837 76.0924 75.6499C80.5185 72.7278 81.9366 67.3133 84.3859 62.8013C84.3859 62.7583 84.4289 62.8013 84.4289 62.8013C82.0225 67.3993 80.7333 73.0286 76.2643 75.9507C76.2213 75.9936 76.1783 75.9936 76.1354 75.9936C76.4362 77.7555 76.7799 79.4744 77.1667 81.2362C77.2526 81.3221 77.2526 81.4081 77.2097 81.494C77.5534 82.998 77.8972 84.4591 78.284 85.9201C82.5811 82.6543 86.1478 78.6149 88.6402 73.6302C88.6402 73.5872 88.6831 73.6302 88.6831 73.6302C86.3626 78.7438 82.9249 83.127 78.3699 86.178C79.1434 89.2289 80.0028 92.237 80.9482 95.245C85.6321 92.3659 90.1012 88.8422 91.5193 83.041C91.5193 82.998 91.5622 83.041 91.5622 83.041C90.2301 88.9281 85.761 92.5807 81.0771 95.5888C81.3779 96.5341 81.6787 97.4366 81.9795 98.3819C82.1084 98.7687 81.5498 98.9835 81.4209 98.5968C80.7333 96.5341 80.1317 94.4715 79.5301 92.4089C73.7289 90.0024 70.0334 84.9318 66.4667 79.7752C66.4237 79.7322 66.4667 79.6892 66.5097 79.7322Z" fill="#444472"/>
</g>
<path d="M68.8715 30.7776L39.6644 94.7703L40.8762 95.3234L70.0834 31.3307L68.8715 30.7776Z" fill="#00664F"/>
<path d="M39.4371 96.8353C38.4488 96.4055 38.0191 95.2023 38.4488 94.214C38.8785 93.2256 40.0817 92.7959 41.0701 93.2256C57.7431 100.832 77.4672 93.4835 85.0732 76.8104C92.6792 60.1374 85.331 40.4133 68.6579 32.8073C67.6696 32.3776 67.2399 31.1744 67.6696 30.186C68.0993 29.1977 69.3025 28.768 70.2909 29.1977C88.8976 37.7061 97.1482 59.7506 88.6398 78.4004C80.1314 97.1361 58.0869 105.344 39.4371 96.8353Z" fill="#8F98FF"/>
<path d="M54.864 94.1709C72.0464 94.1709 85.9756 80.2418 85.9756 63.0593C85.9756 45.8769 72.0464 31.9478 54.864 31.9478C37.6816 31.9478 23.7524 45.8769 23.7524 63.0593C23.7524 80.2418 37.6816 94.1709 54.864 94.1709Z" fill="#B0DDC9"/>
<path d="M83.1826 75.9938C82.1083 78.3573 80.7762 80.5059 79.2292 82.4826C75.5336 84.0296 71.4084 84.5452 67.455 83.8577C66.9393 83.7717 66.4236 83.6428 66.0369 83.299C64.8766 82.2677 65.865 80.4199 65.865 78.8729C65.865 77.5838 65.0915 76.4236 64.361 75.3493C62.7281 72.9428 61.0951 69.9778 62.0835 67.1846C63.0718 64.3915 66.3807 62.8874 67.2401 60.0513C68.0136 57.3441 66.2517 54.5509 66.2088 51.7148C66.1658 49.5232 67.2401 47.4176 68.7441 45.8706C70.2911 44.3236 72.2678 43.2923 74.3304 42.5618C75.4047 42.175 76.6079 41.9172 77.7682 41.9172C85.9758 50.8983 88.5541 64.2625 83.1826 75.9938ZM45.4104 92.1083C47.0004 91.3348 48.3325 89.8737 48.6333 88.1549C48.9341 86.2641 47.9887 84.4163 46.8285 82.9123C45.6253 81.4083 44.2072 80.1191 43.2189 78.4862C42.7892 77.7986 42.4883 77.0252 42.4883 76.2087C42.5313 73.9742 44.9377 72.4272 45.1956 70.2356C45.4534 68.3019 43.9064 66.54 42.1875 65.6806C40.4257 64.8212 38.449 64.6063 36.5582 64.0907C34.6675 63.575 32.7767 62.5437 32.0032 60.7389C31.0579 58.4614 32.2611 55.7541 30.9719 53.6055C30.1554 52.2304 28.0069 51.328 26.1591 51.0272C19.6703 66.4541 26.5888 84.3733 41.9297 91.3777C42.8321 91.7645 43.6916 92.1512 44.594 92.452C44.8948 92.3661 45.1526 92.2372 45.4104 92.1083ZM36.7731 37.749C36.859 38.0927 36.988 38.4365 37.1598 38.7373C38.6639 41.9172 41.8867 44.3236 42.3594 47.8044C42.4883 48.7497 42.4454 49.824 43.047 50.5545C43.3478 50.9413 43.8205 51.1562 44.2932 51.371C48.2036 53.0039 53.1024 51.8437 55.8096 48.5778C58.4309 45.3979 58.9036 40.9718 60.9662 37.4052C61.5678 36.3739 62.2983 35.3855 62.2983 34.1823C62.2983 33.6666 62.1264 33.194 61.8686 32.7642C53.0164 30.7016 43.9064 32.6353 36.7731 37.749Z" fill="#2EA889"/>
<path d="M57.9152 99.4565H51.8132V113.981H57.9152V99.4565Z" fill="#8F98FF"/>
<path d="M78.971 119.18H30.7567C29.1667 119.18 27.9205 117.891 27.9205 116.344C27.9205 114.754 29.2097 113.508 30.7567 113.508H78.928C80.518 113.508 81.7642 114.797 81.7642 116.344C81.8071 117.891 80.518 119.18 78.971 119.18Z" fill="#8F98FF"/>
<path d="M145.062 88.4988C148.113 88.4988 150.605 86.0065 150.605 82.9555C150.605 79.9045 148.113 77.4121 145.062 77.4121H80.1745C82.3231 81.1077 82.3231 84.8033 80.1745 88.4988H145.062Z" fill="#EDEDED"/>
<path d="M145.062 88.4985C148.199 88.4985 150.734 85.8772 150.605 82.6973C150.477 79.7322 147.898 77.4547 144.933 77.4547H79.3153C78.8426 77.4547 78.4559 77.068 78.4559 76.5953C78.4559 76.1226 78.8426 75.7358 79.3153 75.7358H145.062C149.059 75.7358 152.281 78.9587 152.281 82.9551C152.281 86.9515 149.059 90.1744 145.062 90.1744H79.3153C78.8426 90.1744 78.4559 89.7876 78.4559 89.3149C78.4559 88.8422 78.8426 88.4555 79.3153 88.4555H145.062V88.4985Z" fill="#FFC278"/>
<path d="M148.285 78.4863L143.043 78.5293L133.202 78.6153L113.478 78.6582L93.7539 78.6153L83.9134 78.5723L80.7335 78.5293C80.6905 78.4863 80.6905 78.4434 80.6475 78.4004L83.8704 78.3574L93.7109 78.3145L113.435 78.2715L133.159 78.3145L143 78.3574L148.07 78.4004C148.199 78.4004 148.242 78.4434 148.285 78.4863ZM149.574 79.7755C149.574 79.7325 149.531 79.7325 149.531 79.6896L143.086 79.6036L133.245 79.5606L113.521 79.5177L93.7969 79.5606L83.9563 79.6036L81.2491 79.6466C81.2491 79.6896 81.2921 79.7325 81.2921 79.8185L83.9563 79.8614L93.7969 79.9044L113.521 79.9474L133.202 79.9044L143.043 79.8614L149.574 79.7755ZM150.262 81.0647C150.262 81.0647 150.262 81.0217 150.219 81.0217L143.043 80.9357L133.202 80.8928L113.478 80.8498L93.7539 80.8928L83.9134 80.9357L81.5929 80.9787C81.5929 81.0217 81.5929 81.1076 81.6359 81.1506L83.9563 81.1936L93.7969 81.2365L113.521 81.2795L133.202 81.1936L143.043 81.1506L150.262 81.0647ZM80.6475 87.5964L83.8704 87.6393L93.7109 87.6823L113.435 87.7253L133.159 87.6823L143 87.6393L148.07 87.5964C148.113 87.5534 148.156 87.5104 148.199 87.5104L142.957 87.4675L133.116 87.4245L113.392 87.3815L93.668 87.4245L83.8274 87.4675L80.6475 87.5104C80.6905 87.4674 80.6905 87.5534 80.6475 87.5964ZM149.531 86.2642C149.531 86.2213 149.574 86.2213 149.574 86.1783L143.086 86.0923L133.245 86.0494L113.521 86.0064L93.7969 86.0494L83.9563 86.0923L81.2921 86.1353C81.2921 86.1783 81.2491 86.2213 81.2491 86.3072L83.9563 86.3502L93.7969 86.3932L113.521 86.4361L133.245 86.3932L143.086 86.3502L149.531 86.2642ZM150.219 84.9321C150.219 84.9321 150.219 84.8891 150.262 84.8891L143.086 84.8032L133.245 84.7602L113.521 84.7173L93.7969 84.7602L83.9563 84.8032L81.6359 84.8462C81.6359 84.8891 81.6359 84.9751 81.5929 85.0181L83.9134 85.061L93.7539 85.104L113.478 85.147L133.202 85.104L143.043 85.061L150.219 84.9321ZM150.563 83.643V83.6L143.043 83.514L133.202 83.4711L113.478 83.4281L93.7539 83.4711L83.9134 83.514L81.7648 83.557C81.7648 83.6 81.7648 83.6859 81.7648 83.7289L83.9134 83.7719L93.7539 83.8148L113.478 83.8578L133.202 83.7719L143.043 83.7289L150.563 83.643ZM150.563 82.3538V82.3108L143.086 82.2249L133.245 82.1819L113.521 82.1389L93.7969 82.1819L83.9563 82.2249L81.8078 82.2679C81.8078 82.3108 81.8078 82.3968 81.8078 82.4397L83.9563 82.4827L93.7969 82.5257L113.521 82.5687L133.202 82.4827L143.043 82.4397L150.563 82.3538Z" fill="#E1E3EF"/>
<path d="M87.1791 88.0261L90.0152 86.3932L92.8514 88.0261V80.8928H87.1791V88.0261Z" fill="#FFC278"/>
<path d="M85.7177 102.98C82.6667 102.98 80.1744 100.488 80.1744 97.4367C80.1744 94.3857 82.6667 91.8933 85.7177 91.8933H150.605C148.457 95.5889 148.457 99.2845 150.605 102.98H85.7177Z" fill="#EDEDED"/>
<path d="M85.718 102.98C82.581 102.98 80.0457 100.359 80.1746 97.1792C80.3035 94.2141 82.8818 91.9366 85.8469 91.9366H151.422C151.895 91.9366 152.281 91.5499 152.281 91.0772C152.281 90.6045 151.895 90.2178 151.422 90.2178H85.675C81.6786 90.2178 78.4557 93.4407 78.4557 97.437C78.4557 101.433 81.6786 104.656 85.675 104.656H151.422C151.895 104.656 152.281 104.27 152.281 103.797C152.281 103.324 151.895 102.937 151.422 102.937H85.718V102.98Z" fill="#FF7648"/>
<path d="M82.6238 92.8389L87.6944 92.7959L97.535 92.7529L117.259 92.71L136.983 92.7529L146.824 92.7959L150.046 92.8389C150.004 92.8818 150.004 92.9248 149.961 92.9678L146.781 93.0108L136.94 93.0537L117.216 93.0967L97.492 93.0537L87.6515 93.0108L82.4089 92.9678C82.5378 92.9248 82.5808 92.8818 82.6238 92.8389ZM87.6944 94.2999L97.535 94.3429L117.259 94.3859L136.983 94.3429L146.824 94.2999L149.488 94.2569C149.488 94.214 149.531 94.171 149.531 94.0851L146.824 94.0421L136.983 93.9991L117.259 93.9561L97.535 93.9991L87.6944 94.0421L81.2487 94.128C81.2487 94.171 81.2057 94.171 81.2057 94.214L87.6944 94.2999ZM87.6944 95.5891L97.535 95.632L117.259 95.675L136.983 95.632L146.824 95.5891L149.144 95.5461C149.144 95.5031 149.144 95.4172 149.187 95.3742L146.867 95.3312L137.026 95.2883L117.302 95.2453L97.5779 95.2883L87.7374 95.3312L80.5611 95.4172C80.5611 95.4172 80.5611 95.4602 80.5181 95.4602L87.6944 95.5891ZM150.046 101.906L146.867 101.863L137.026 101.82L117.302 101.777L97.5779 101.82L87.7374 101.863L82.4949 101.906C82.5378 101.949 82.5808 101.992 82.6238 101.992L87.6944 102.035L97.535 102.078L117.259 102.121L136.983 102.078L146.824 102.035L150.046 101.992C150.089 102.035 150.089 101.949 150.046 101.906ZM87.6944 100.789L97.535 100.832L117.259 100.875L136.983 100.832L146.824 100.789L149.531 100.746C149.531 100.703 149.488 100.66 149.488 100.574L146.824 100.531L136.983 100.488L117.259 100.445L97.535 100.488L87.6944 100.531L81.2057 100.617C81.2057 100.66 81.2487 100.66 81.2487 100.703L87.6944 100.789ZM87.6944 99.4995L97.535 99.5425L117.259 99.5854L136.983 99.5425L146.824 99.4995L149.144 99.4565C149.144 99.4136 149.144 99.3276 149.101 99.2846L146.781 99.2417L136.94 99.1987L117.216 99.1557L97.492 99.1987L87.6515 99.2417L80.4752 99.3276C80.4752 99.3276 80.4752 99.3706 80.5181 99.3706L87.6944 99.4995ZM87.6944 98.2104L97.535 98.2533L117.259 98.2963L136.983 98.2533L146.824 98.2104L148.972 98.1674C148.972 98.1244 148.972 98.0385 148.972 97.9955L146.824 97.9525L136.983 97.9095L117.259 97.8666L97.535 97.9095L87.6944 97.9525L80.1744 98.0385V98.0814L87.6944 98.2104ZM87.6944 96.9212L97.535 96.9642L117.259 97.0071L136.983 96.9642L146.824 96.9212L148.972 96.8782C148.972 96.8353 148.972 96.7493 148.972 96.7063L146.824 96.6634L136.983 96.6204L117.259 96.5774L97.535 96.6204L87.6944 96.6634L80.2173 96.7493V96.7923L87.6944 96.9212Z" fill="#E1E3EF"/>
<path d="M145.363 99.9722L142.526 98.3393L139.733 99.9722V92.7959H145.363V99.9722Z" fill="#FE9946"/>
<path d="M145.062 117.462C148.113 117.462 150.605 114.969 150.605 111.918C150.605 108.867 148.113 106.375 145.062 106.375H80.1743C82.3228 110.071 82.3228 113.766 80.1743 117.462H145.062Z" fill="#EDEDED"/>
<path d="M145.062 117.462C148.199 117.462 150.734 114.841 150.605 111.661C150.476 108.696 147.898 106.418 144.933 106.418H79.358C78.8853 106.418 78.4986 106.031 78.4986 105.559C78.4986 105.086 78.8853 104.699 79.358 104.699H145.105C149.101 104.699 152.324 107.922 152.324 111.918C152.324 115.915 149.101 119.138 145.105 119.138H79.358C78.8853 119.138 78.4986 118.751 78.4986 118.278C78.4986 117.806 78.8853 117.419 79.358 117.419H145.062V117.462Z" fill="#8F98FF"/>
<path d="M148.285 107.449L143.042 107.492L133.202 107.535L113.478 107.578L93.7537 107.535L83.9131 107.492L80.7332 107.449C80.6902 107.406 80.6902 107.363 80.6473 107.32L83.8702 107.277L93.7107 107.234L113.435 107.191L133.159 107.234L142.999 107.277L148.07 107.32C148.199 107.363 148.242 107.406 148.285 107.449ZM149.574 108.738C149.574 108.695 149.531 108.695 149.531 108.652L143.085 108.567L133.245 108.524L113.521 108.481L93.7966 108.524L83.9561 108.567L81.2489 108.609C81.2489 108.652 81.2919 108.695 81.2919 108.781L83.9561 108.824L93.7966 108.867L113.521 108.91L133.245 108.867L143.085 108.824L149.574 108.738ZM150.262 110.028C150.262 110.028 150.262 109.985 150.219 109.985L143.042 109.899L133.202 109.856L113.478 109.813L93.7537 109.856L83.9131 109.899L81.5927 109.942C81.5927 109.985 81.5927 110.071 81.6356 110.113L83.9561 110.156L93.7966 110.199L113.521 110.242L133.245 110.199L143.085 110.156L150.262 110.028ZM149.531 115.227C149.531 115.184 149.574 115.184 149.574 115.141L143.085 115.055L133.245 115.012L113.521 114.969L93.7966 115.012L83.9561 115.055L81.2919 115.098C81.2919 115.141 81.2489 115.184 81.2489 115.27L83.9561 115.313L93.7966 115.356L113.521 115.399L133.245 115.356L143.085 115.313L149.531 115.227ZM150.219 113.895C150.219 113.895 150.219 113.852 150.262 113.852L143.085 113.766L133.245 113.723L113.521 113.68L93.7966 113.723L83.9561 113.766L81.6356 113.809C81.6356 113.852 81.6356 113.938 81.5927 113.981L83.9131 114.024L93.7537 114.067L113.478 114.11L133.202 114.067L143.042 114.024L150.219 113.895ZM150.562 112.606V112.563L143.042 112.477L133.202 112.434L113.478 112.391L93.7537 112.434L83.9131 112.477L81.7645 112.52C81.7645 112.563 81.7645 112.649 81.7645 112.692L83.9131 112.735L93.7537 112.778L113.478 112.821L133.202 112.778L143.042 112.735L150.562 112.606ZM150.562 111.317V111.274L143.085 111.188L133.245 111.145L113.521 111.102L93.7966 111.145L83.9561 111.188L81.8075 111.231C81.8075 111.274 81.8075 111.36 81.8075 111.403L83.9561 111.446L93.7966 111.489L113.521 111.532L133.245 111.489L143.085 111.446L150.562 111.317Z" fill="#E1E3EF"/>
<path d="M102.778 116.989L105.614 115.356L108.407 116.989V109.813H102.778V116.989Z" fill="#8F98FF"/>
<defs>
<linearGradient id="paint0_linear_1352_1371" x1="164.645" y1="49.6564" x2="88.2956" y2="116.745" gradientUnits="userSpaceOnUse">
<stop stop-color="#6CD3FF"/>
<stop offset="1" stop-color="#8582C9"/>
</linearGradient>
<linearGradient id="paint1_linear_1352_1371" x1="169.472" y1="77.519" x2="140.576" y2="103.048" gradientUnits="userSpaceOnUse">
<stop offset="0.00060096" stop-color="#B2DB90"/>
<stop offset="1" stop-color="#2BBA90"/>
</linearGradient>
<linearGradient id="paint2_linear_1352_1371" x1="153.782" y1="79.9224" x2="159.65" y2="94.1101" gradientUnits="userSpaceOnUse">
<stop stop-color="#2B6565"/>
<stop offset="1" stop-color="#2BBA90"/>
</linearGradient>
<linearGradient id="paint3_linear_1352_1371" x1="168.955" y1="106.027" x2="136.409" y2="91.5923" gradientUnits="userSpaceOnUse">
<stop offset="0.00252404" stop-color="#56D6D5"/>
<stop offset="1" stop-color="#00674B"/>
</linearGradient>
<linearGradient id="paint4_linear_1352_1371" x1="149.882" y1="90.8223" x2="159.589" y2="106.337" gradientUnits="userSpaceOnUse">
<stop stop-color="#2B6565"/>
<stop offset="1" stop-color="#2BBA90"/>
</linearGradient>
</defs>
</svg>
