<svg width="111" height="141" viewBox="0 0 111 141" fill="none" xmlns="http://www.w3.org/2000/svg">
<path d="M55.3769 140.78C85.9607 140.78 110.754 138.907 110.754 136.596C110.754 134.285 85.9607 132.412 55.3769 132.412C24.7931 132.412 0 134.285 0 136.596C0 138.907 24.7931 140.78 55.3769 140.78Z" fill="#F5F5F5"/>
<path d="M12.063 123.714C12.063 123.714 14.1695 121.205 15.5159 122.374C16.8623 123.542 16.181 126.026 14.6282 126.105C13.7074 126.154 12.7989 125.876 12.063 125.32V123.714Z" fill="#407BFF"/>
<path opacity="0.1" d="M12.063 123.714C12.063 123.714 14.1695 121.205 15.5159 122.374C16.8623 123.542 16.181 126.026 14.6282 126.105C13.7074 126.154 12.7989 125.876 12.063 125.32V123.714Z" fill="white"/>
<path d="M3.47702 117.352C3.47702 117.352 1.70986 115.498 0.615904 115.814C-0.478051 116.129 -0.364041 120.556 3.02912 118.765L3.47702 117.352Z" fill="#407BFF"/>
<path opacity="0.2" d="M3.47702 117.352C3.47702 117.352 1.70986 115.498 0.615904 115.814C-0.478051 116.129 -0.364041 120.556 3.02912 118.765L3.47702 117.352Z" fill="white"/>
<path d="M9.79097 131.184C9.79097 131.184 15.6001 123.227 10.8768 121.616C6.15351 120.004 5.32014 128.015 6.66927 130.247C8.01839 132.478 9.79097 131.184 9.79097 131.184Z" fill="#407BFF"/>
<path d="M7.09823 114.895C7.09823 114.895 3.49334 106.519 8.83281 106.267C14.1723 106.014 14.7505 114.572 8.60751 115.814L7.09823 114.895Z" fill="#407BFF"/>
<path opacity="0.2" d="M9.79097 131.184C9.79097 131.184 15.6001 123.227 10.8768 121.616C6.15351 120.004 5.32014 128.015 6.66927 130.247C8.01839 132.478 9.79097 131.184 9.79097 131.184Z" fill="white"/>
<path opacity="0.2" d="M7.09823 114.895C7.09823 114.895 3.49334 106.519 8.83281 106.267C14.1723 106.014 14.7505 114.572 8.60751 115.814L7.09823 114.895Z" fill="white"/>
<path d="M8.37673 121.754C8.37673 121.754 10.1276 114.357 6.74801 113.767C3.36842 113.178 0.0702679 119.86 7.04389 123.227C7.04389 123.227 8.23014 122.477 8.37673 121.754Z" fill="#407BFF"/>
<path opacity="0.1" d="M8.37673 121.754C8.37673 121.754 10.1276 114.357 6.74801 113.767C3.36842 113.178 0.0702679 119.86 7.04389 123.227C7.04389 123.227 8.23014 122.477 8.37673 121.754Z" fill="white"/>
<path d="M13.9714 130.056H4.22081L5.03517 136.301H13.157L13.9714 130.056Z" fill="#407BFF"/>
<path d="M8.90068 114.297C9.11999 114.074 9.32748 113.839 9.52231 113.593C9.72266 113.356 9.90936 113.107 10.0815 112.849C10.429 112.338 10.7211 111.791 10.9529 111.218C11.1773 110.647 11.3092 110.043 11.3438 109.43V108.968C11.3438 108.816 11.3058 108.661 11.2922 108.509C11.2922 108.43 11.2922 108.351 11.2678 108.275L11.2135 108.05C11.1755 107.897 11.1402 107.745 11.1076 107.59C11.3823 108.166 11.5304 108.795 11.5419 109.433C11.5494 110.077 11.4314 110.717 11.1945 111.316C10.9561 111.91 10.6344 112.466 10.2389 112.968C9.85611 113.471 9.40577 113.918 8.90068 114.297Z" fill="#407BFF"/>
<path d="M10.1792 107.109C9.62172 107.327 9.11439 107.656 8.68826 108.076C8.26213 108.497 7.92615 109 7.70086 109.555L7.54613 109.973C7.49999 110.115 7.47555 110.264 7.43755 110.406C7.3691 110.698 7.31834 110.993 7.28554 111.291C7.25568 111.59 7.25568 111.895 7.24211 112.196C7.22853 112.498 7.26654 112.805 7.26654 113.112C7.2041 112.813 7.16067 112.509 7.10909 112.205C7.05752 111.9 7.0738 111.588 7.07923 111.278C7.09587 110.652 7.22173 110.034 7.45112 109.452C7.8098 108.573 8.46619 107.848 9.30515 107.405C9.5817 107.267 9.87577 107.168 10.1792 107.109Z" fill="#407BFF"/>
<path d="M6.09647 114.297C5.73291 114.485 5.4093 114.742 5.14367 115.053C4.87601 115.355 4.66456 115.703 4.51933 116.08C4.37203 116.453 4.28056 116.846 4.24787 117.246C4.23975 117.345 4.23975 117.445 4.24787 117.545C4.24787 117.643 4.24787 117.741 4.24787 117.838C4.27324 118.034 4.31501 118.228 4.37274 118.417C4.62506 119.187 5.01302 119.906 5.51827 120.54C5.76247 120.869 6.02435 121.185 6.30277 121.485C6.57423 121.795 6.86468 122.086 7.16056 122.374C6.49256 121.881 5.88646 121.309 5.3554 120.67C5.08507 120.35 4.84003 120.009 4.62248 119.651C4.40696 119.287 4.23563 118.898 4.11215 118.493C4.0517 118.288 4.00901 118.078 3.98457 117.866C3.97914 117.758 3.97914 117.65 3.98457 117.542C3.98036 117.435 3.98582 117.328 4.00085 117.221C4.04334 116.799 4.15428 116.386 4.32931 115.999C4.49593 115.612 4.73807 115.262 5.04152 114.97C5.34498 114.677 5.70364 114.449 6.09647 114.297Z" fill="#407BFF"/>
<path d="M7.09814 114.895C7.05471 115.18 7.00857 115.463 6.98685 115.748C6.95128 116.03 6.93315 116.315 6.93256 116.599C6.9264 116.879 6.94365 117.159 6.98413 117.436C7.01271 117.704 7.09883 117.963 7.23659 118.194C7.31783 118.32 7.38951 118.452 7.45103 118.588C7.50792 118.726 7.55332 118.869 7.58676 119.015C7.65376 119.303 7.69016 119.597 7.69534 119.893C7.70974 120.473 7.64675 121.052 7.50804 121.616C7.50804 121.328 7.53247 121.042 7.52704 120.757C7.52986 120.473 7.51626 120.189 7.48632 119.906C7.46268 119.35 7.29727 118.809 7.00585 118.335C6.85353 118.07 6.76089 117.774 6.7344 117.469C6.7032 117.175 6.7032 116.879 6.7344 116.585C6.78159 116.008 6.90387 115.44 7.09814 114.895Z" fill="#407BFF"/>
<path d="M9.46792 122.374C9.34141 122.45 9.23594 122.556 9.16118 122.684C9.08524 122.811 9.01987 122.945 8.96573 123.083C8.84822 123.36 8.75025 123.645 8.67256 123.936C8.51512 124.515 8.37668 125.097 8.25724 125.687C8.1378 126.276 8.0265 126.866 7.91249 127.456C7.85549 127.752 7.80391 128.048 7.75505 128.347C7.70619 128.646 7.65461 128.939 7.61118 129.241C7.59665 128.634 7.62841 128.028 7.70619 127.426C7.77134 126.822 7.87178 126.225 7.99122 125.632C8.11145 125.036 8.2729 124.448 8.4744 123.874C8.57681 123.585 8.69926 123.303 8.84086 123.031C8.92042 122.897 9.01123 122.77 9.11232 122.651C9.20168 122.526 9.32517 122.43 9.46792 122.374Z" fill="#407BFF"/>
<path d="M11.1157 122.632C11.3677 123.144 11.531 123.696 11.5989 124.263C11.6708 124.834 11.6488 125.413 11.5337 125.977C11.5093 126.119 11.4739 126.259 11.4278 126.396C11.3844 126.535 11.3491 126.668 11.2948 126.806C11.0759 127.338 10.7735 127.832 10.399 128.268C10.3079 128.377 10.208 128.478 10.1004 128.57C9.99729 128.671 9.89414 128.766 9.78827 128.858C10.1471 128.431 10.4592 127.966 10.7194 127.472C10.9773 126.986 11.1603 126.464 11.2623 125.923C11.3732 125.387 11.4134 124.839 11.3817 124.293C11.3546 123.731 11.2654 123.174 11.1157 122.632Z" fill="#407BFF"/>
<path d="M2.10615 118.257C1.95024 118.319 1.78241 118.346 1.61482 118.335C1.44707 118.329 1.28178 118.293 1.1262 118.229C0.969598 118.162 0.829685 118.061 0.716309 117.933C0.603027 117.808 0.528538 117.652 0.501862 117.485C0.61347 117.59 0.732294 117.687 0.857464 117.776C0.976918 117.855 1.10319 117.923 1.23478 117.979C1.51935 118.089 1.81034 118.182 2.10615 118.257Z" fill="#407BFF"/>
<path d="M2.46722 117.034L2.03561 116.833C1.90011 116.769 1.75933 116.717 1.61486 116.678C1.48102 116.638 1.34198 116.617 1.20225 116.618C1.05002 116.631 0.900287 116.665 0.757065 116.719C0.851714 116.571 0.996185 116.462 1.16424 116.411C1.33638 116.363 1.51873 116.363 1.69086 116.411C1.85491 116.46 2.00794 116.541 2.14147 116.648C2.2768 116.751 2.38797 116.883 2.46722 117.034Z" fill="#407BFF"/>
<path d="M13.0159 124.086C13.1152 123.877 13.2472 123.685 13.4068 123.518C13.564 123.344 13.7471 123.195 13.9497 123.078C14.1594 122.947 14.4032 122.882 14.6501 122.89C14.7716 122.895 14.8906 122.927 14.9981 122.984C15.1057 123.041 15.1992 123.121 15.2717 123.219C15.0822 123.12 14.8679 123.08 14.6555 123.102C14.452 123.132 14.2569 123.204 14.0827 123.314C13.7105 123.547 13.3541 123.805 13.0159 124.086Z" fill="#407BFF"/>
<path d="M13.0159 125.32C13.5381 125.312 14.0593 125.273 14.5768 125.203C14.824 125.168 15.0635 125.092 15.2853 124.977C15.509 124.86 15.6847 124.667 15.782 124.434C15.7801 124.576 15.7448 124.716 15.6787 124.842C15.6127 124.968 15.5179 125.077 15.402 125.159C15.1722 125.327 14.9046 125.436 14.6229 125.475C14.3536 125.517 14.0801 125.527 13.8086 125.502C13.5372 125.478 13.2704 125.417 13.0159 125.32Z" fill="#407BFF"/>
<g opacity="0.4">
<path d="M13.9714 130.056H4.22081L5.03517 136.301H13.157L13.9714 130.056Z" fill="black"/>
</g>
<path d="M81.6081 1.88662V131.96C81.6081 132.23 81.5545 132.498 81.4502 132.748C81.346 132.997 81.1932 133.224 81.0008 133.414C80.8084 133.604 80.5802 133.753 80.3295 133.854C80.0788 133.955 79.8105 134.005 79.5403 134.002H14.6874C14.4471 134.004 14.2086 133.959 13.9859 133.869C13.7632 133.778 13.5607 133.644 13.3903 133.475C13.3036 133.391 13.2264 133.298 13.1601 133.197C12.9482 132.882 12.8368 132.509 12.8405 132.129V1.71725C12.824 1.28122 12.981 0.856462 13.277 0.536248C13.5731 0.216034 13.984 0.0265512 14.4195 0.00941157H32.8368C33.0278 0.010032 33.2161 0.0551316 33.3867 0.141145C33.446 0.165917 33.5014 0.199199 33.5511 0.239945C33.6546 0.313573 33.7478 0.400584 33.8284 0.498709C33.9088 0.601625 33.9737 0.715742 34.0211 0.83745L34.7871 2.71936V2.76171C34.8338 2.86523 34.8922 2.9631 34.961 3.0534C35.0815 3.20011 35.2328 3.31835 35.4042 3.39968C35.5756 3.48101 35.7629 3.52342 35.9526 3.52388H58.543C58.7985 3.52235 59.0476 3.44452 59.2586 3.30035C59.4696 3.15619 59.6328 2.95225 59.7273 2.71466L60.4933 0.832748C60.5857 0.591847 60.7477 0.383969 60.9587 0.235648C61.1696 0.0873273 61.4199 0.00528796 61.6776 0H79.827C80.3091 0.0253683 80.7629 0.235429 81.0945 0.586654C81.4261 0.93788 81.61 1.40335 81.6081 1.88662Z" fill="#407BFF"/>
<path d="M81.6085 1.88662V9.09905H12.855V1.71725C12.8385 1.28122 12.9955 0.856462 13.2916 0.536248C13.5876 0.216034 13.9985 0.0265512 14.434 0.00941157H32.8513C33.0424 0.010032 33.2306 0.0551316 33.4012 0.141145C33.4605 0.165917 33.5159 0.199199 33.5657 0.239945C33.6691 0.313573 33.7623 0.400584 33.8429 0.498709C33.9233 0.601625 33.9882 0.715742 34.0356 0.83745L34.8016 2.71936V2.76171C34.8483 2.86523 34.9067 2.9631 34.9755 3.05341C35.096 3.20011 35.2473 3.31835 35.4188 3.39968C35.5902 3.48101 35.7774 3.52343 35.9671 3.52388H58.5435C58.7989 3.52235 59.0481 3.44452 59.259 3.30035C59.47 3.15619 59.6332 2.95225 59.7277 2.71466L60.4937 0.832748C60.5861 0.591847 60.7482 0.383969 60.9591 0.235648C61.17 0.0873273 61.4203 0.00528796 61.678 0H79.8274C80.3095 0.0253683 80.7634 0.235429 81.0949 0.586655C81.4265 0.93788 81.6104 1.40335 81.6085 1.88662Z" fill="#263238"/>
<path d="M12.8546 127.824H81.6081V131.96C81.6081 132.23 81.5544 132.498 81.4502 132.748C81.3459 132.997 81.1932 133.224 81.0008 133.414C80.8084 133.604 80.5802 133.753 80.3295 133.854C80.0788 133.955 79.8105 134.005 79.5403 134.002H14.6874C14.447 134.004 14.2086 133.959 13.9859 133.869C13.7632 133.778 13.5607 133.644 13.3903 133.475C13.3036 133.391 13.2264 133.298 13.16 133.197C12.9482 132.882 12.8368 132.509 12.8405 132.129L12.8546 127.824Z" fill="#263238"/>
<path opacity="0.3" d="M81.6081 9.09937H12.8546V127.824H81.6081V9.09937Z" fill="white"/>
<path d="M17.0699 63.1333H17.5398V65.7633H17.0699V63.1333Z" fill="white"/>
<path d="M20.1998 64.601V65.7489H19.7298V64.6621C19.7298 64.3046 19.5512 64.1305 19.2599 64.1305C19.181 64.1255 19.102 64.1381 19.0286 64.1676C18.9553 64.197 18.8894 64.2424 18.8358 64.3006C18.7822 64.3587 18.7423 64.4281 18.7189 64.5037C18.6955 64.5793 18.6893 64.6591 18.7006 64.7374V65.7489H18.2307V63.74H18.6771V64.0035C18.7645 63.9086 18.8717 63.8341 18.9911 63.7853C19.1105 63.7365 19.2392 63.7146 19.3679 63.7212C19.4835 63.7125 19.5995 63.7297 19.7076 63.7716C19.8157 63.8134 19.9131 63.8789 19.9928 63.9631C20.0724 64.0474 20.1323 64.1483 20.1681 64.2587C20.2039 64.369 20.2147 64.4859 20.1998 64.601Z" fill="white"/>
<path d="M22.0091 65.641C21.8722 65.738 21.7066 65.786 21.5391 65.7774C21.4468 65.7893 21.353 65.7801 21.2647 65.7505C21.1765 65.7209 21.0961 65.6716 21.0296 65.6064C20.9631 65.5412 20.9122 65.4617 20.8808 65.374C20.8494 65.2863 20.8383 65.1926 20.8483 65.0999V64.1354H20.5146V63.7591H20.8483V63.2886H21.3182V63.7591H21.8869V64.1354H21.3464V65.0764C21.3406 65.1156 21.3438 65.1557 21.3556 65.1936C21.3675 65.2315 21.3877 65.2662 21.4148 65.2951C21.4419 65.3241 21.4752 65.3465 21.5122 65.3608C21.5492 65.375 21.5889 65.3808 21.6284 65.3775C21.7229 65.3782 21.8152 65.3485 21.8916 65.2928L22.0091 65.641Z" fill="white"/>
<path d="M23.5553 63.7215V64.1685H23.4472C23.366 64.1629 23.2845 64.1755 23.2087 64.2053C23.1329 64.2351 23.0646 64.2813 23.0089 64.3408C22.9531 64.4002 22.9112 64.4713 22.8862 64.5489C22.8613 64.6265 22.8538 64.7087 22.8645 64.7895V65.7634H22.3945V63.7545H22.8269V64.0509C22.908 63.936 23.0183 63.845 23.1464 63.7871C23.2744 63.7292 23.4156 63.7066 23.5553 63.7215Z" fill="white"/>
<path d="M23.7667 64.7471C23.7583 64.5331 23.814 64.3216 23.9267 64.1396C24.0394 63.9576 24.2039 63.8135 24.3991 63.7259C24.5943 63.6383 24.8111 63.6112 25.0218 63.6481C25.2325 63.685 25.4274 63.7841 25.5813 63.9328C25.7352 64.0815 25.8412 64.2728 25.8856 64.4823C25.9299 64.6918 25.9106 64.9098 25.8302 65.1082C25.7498 65.3066 25.6119 65.4763 25.4342 65.5956C25.2566 65.7149 25.0474 65.7782 24.8335 65.7775C24.6946 65.7853 24.5555 65.7642 24.425 65.7157C24.2946 65.6672 24.1755 65.5922 24.0754 65.4955C23.9752 65.3988 23.8961 65.2823 23.843 65.1536C23.7899 65.0248 23.7639 64.8864 23.7667 64.7471ZM25.4303 64.7471C25.4239 64.6305 25.3835 64.5184 25.3142 64.4246C25.2448 64.3308 25.1495 64.2593 25.04 64.2191C24.9306 64.1789 24.8117 64.1717 24.6982 64.1983C24.5847 64.2249 24.4814 64.2843 24.4012 64.369C24.321 64.4537 24.2673 64.5601 24.2469 64.6751C24.2264 64.79 24.24 64.9084 24.2859 65.0157C24.3319 65.1229 24.4083 65.2144 24.5056 65.2787C24.6029 65.343 24.7169 65.3774 24.8335 65.3776C24.9157 65.3805 24.9976 65.3659 25.0738 65.3349C25.15 65.3039 25.2188 65.257 25.2756 65.1975C25.3324 65.1379 25.376 65.067 25.4035 64.9894C25.431 64.9118 25.4417 64.8292 25.435 64.7471H25.4303Z" fill="white"/>
<path d="M28.3252 62.9593V65.7492H27.8553V65.4858C27.7741 65.5812 27.6722 65.6567 27.5573 65.7064C27.4424 65.7562 27.3177 65.7789 27.1926 65.7728C26.9323 65.7551 26.6884 65.6391 26.5102 65.4483C26.3321 65.2575 26.233 65.006 26.233 64.7448C26.233 64.4835 26.3321 64.2321 26.5102 64.0412C26.6884 63.8504 26.9323 63.7344 27.1926 63.7168C27.3131 63.7109 27.4334 63.7319 27.5447 63.7782C27.6561 63.8246 27.7558 63.8952 27.8365 63.9849V62.9546L28.3252 62.9593ZM27.8553 64.7471C27.8488 64.6306 27.8085 64.5184 27.7391 64.4246C27.6697 64.3308 27.5744 64.2593 27.465 64.2191C27.3555 64.1789 27.2367 64.1717 27.1231 64.1983C27.0096 64.225 26.9064 64.2843 26.8262 64.369C26.7459 64.4538 26.6923 64.5601 26.6718 64.6751C26.6513 64.79 26.6649 64.9084 26.7109 65.0157C26.7569 65.1229 26.8332 65.2144 26.9305 65.2787C27.0278 65.343 27.1418 65.3774 27.2584 65.3776C27.3408 65.3804 27.4229 65.3659 27.4993 65.3349C27.5758 65.3039 27.6448 65.2571 27.702 65.1977C27.7592 65.1382 27.8032 65.0674 27.8312 64.9897C27.8593 64.9121 27.8707 64.8294 27.8647 64.7471H27.8553Z" fill="white"/>
<path d="M30.8864 63.7404V65.7493H30.4165V65.4858C30.3361 65.5782 30.2363 65.6515 30.1241 65.7003C30.0119 65.7492 29.8902 65.7723 29.7679 65.7681C29.6499 65.7789 29.5309 65.763 29.4197 65.7217C29.3086 65.6803 29.2081 65.6146 29.1256 65.5294C29.0431 65.4441 28.9808 65.3414 28.9431 65.2288C28.9054 65.1163 28.8934 64.9967 28.9079 64.8789V63.731H29.3779V64.8178C29.3779 65.18 29.5518 65.3541 29.8478 65.3541C30.1439 65.3541 30.3977 65.1518 30.3977 64.7472V63.731L30.8864 63.7404Z" fill="white"/>
<path d="M31.3376 64.7471C31.3359 64.6067 31.3634 64.4675 31.4182 64.3382C31.4729 64.209 31.5539 64.0925 31.6559 63.9962C31.7579 63.8998 31.8787 63.8256 32.0108 63.7784C32.1428 63.7311 32.2833 63.7117 32.4232 63.7215C32.5965 63.7086 32.77 63.7462 32.9225 63.8296C33.0751 63.9131 33.2003 64.0389 33.2832 64.1919L32.9213 64.4037C32.8703 64.317 32.7974 64.2454 32.7099 64.1958C32.6225 64.1463 32.5236 64.1206 32.4232 64.1214C32.2561 64.1214 32.096 64.1878 31.9779 64.306C31.8598 64.4243 31.7934 64.5846 31.7934 64.7518C31.7934 64.919 31.8598 65.0794 31.9779 65.1976C32.096 65.3158 32.2561 65.3823 32.4232 65.3823C32.5236 65.383 32.6225 65.3573 32.7099 65.3078C32.7974 65.2583 32.8703 65.1866 32.9213 65.1L33.2832 65.3117C33.1969 65.4617 33.071 65.585 32.9193 65.668C32.7675 65.751 32.5959 65.7905 32.4232 65.7822C32.2826 65.7913 32.1417 65.7711 32.0093 65.723C31.8769 65.6749 31.7559 65.5999 31.6539 65.5027C31.5519 65.4054 31.4712 65.2881 31.4167 65.158C31.3623 65.028 31.3353 64.8881 31.3376 64.7471Z" fill="white"/>
<path d="M34.9234 65.641C34.7865 65.738 34.6209 65.786 34.4534 65.7774C34.3611 65.7893 34.2673 65.7801 34.179 65.7505C34.0907 65.7209 34.0103 65.6716 33.9438 65.6064C33.8774 65.5412 33.8265 65.4617 33.7951 65.374C33.7637 65.2863 33.7526 65.1926 33.7626 65.0999V64.1354H33.4289V63.7591H33.7626V63.2886H34.2325V63.7591H34.773V64.1354H34.2466V65.0764C34.2408 65.1156 34.244 65.1557 34.2558 65.1936C34.2676 65.2315 34.2879 65.2662 34.315 65.2951C34.3421 65.3241 34.3754 65.3465 34.4124 65.3608C34.4494 65.375 34.4891 65.3808 34.5286 65.3775C34.6231 65.3782 34.7154 65.3485 34.7918 65.2928L34.9234 65.641Z" fill="white"/>
<path d="M35.2476 63.1333C35.2482 63.0952 35.2563 63.0576 35.2716 63.0227C35.2869 62.9878 35.3089 62.9563 35.3365 62.93C35.3641 62.9037 35.3966 62.8832 35.4321 62.8696C35.4677 62.8561 35.5056 62.8497 35.5436 62.851C35.5814 62.8484 35.6194 62.8535 35.6551 62.866C35.6909 62.8784 35.7238 62.898 35.7519 62.9235C35.78 62.9489 35.8026 62.9798 35.8185 63.0142C35.8344 63.0487 35.8432 63.0859 35.8444 63.1239C35.8451 63.1632 35.8377 63.2022 35.8227 63.2385C35.8077 63.2748 35.7854 63.3077 35.7572 63.335C35.729 63.3624 35.6955 63.3836 35.6588 63.3975C35.622 63.4113 35.5828 63.4175 35.5436 63.4156C35.5054 63.4175 35.4672 63.4116 35.4314 63.3983C35.3955 63.3849 35.3628 63.3644 35.3351 63.338C35.3074 63.3116 35.2853 63.2799 35.2703 63.2447C35.2552 63.2095 35.2475 63.1716 35.2476 63.1333ZM35.3087 63.7449H35.7786V65.7538H35.3087V63.7449Z" fill="white"/>
<path d="M36.2297 64.7471C36.2213 64.5331 36.277 64.3216 36.3897 64.1396C36.5024 63.9576 36.6669 63.8135 36.8621 63.7259C37.0573 63.6383 37.2742 63.6112 37.4849 63.6481C37.6956 63.685 37.8904 63.7841 38.0443 63.9328C38.1983 64.0815 38.3042 64.2728 38.3486 64.4823C38.3929 64.6918 38.3737 64.9098 38.2932 65.1082C38.2128 65.3066 38.0749 65.4763 37.8973 65.5956C37.7196 65.7149 37.5104 65.7782 37.2965 65.7775C37.1576 65.7853 37.0185 65.7642 36.8881 65.7157C36.7576 65.6672 36.6386 65.5922 36.5384 65.4955C36.4382 65.3988 36.3591 65.2823 36.306 65.1536C36.2529 65.0248 36.2269 64.8864 36.2297 64.7471ZM37.8934 64.7471C37.8869 64.6305 37.8465 64.5184 37.7772 64.4246C37.7078 64.3308 37.6125 64.2593 37.5031 64.2191C37.3936 64.1789 37.2748 64.1717 37.1612 64.1983C37.0477 64.2249 36.9445 64.2843 36.8642 64.369C36.784 64.4537 36.7304 64.5601 36.7099 64.6751C36.6894 64.79 36.703 64.9084 36.749 65.0157C36.7949 65.1229 36.8713 65.2144 36.9686 65.2787C37.0659 65.343 37.1799 65.3774 37.2965 65.3776C37.3784 65.3798 37.4597 65.3648 37.5354 65.3334C37.611 65.3021 37.6792 65.2552 37.7355 65.1957C37.7918 65.1362 37.835 65.0655 37.8622 64.9882C37.8894 64.9109 37.9 64.8288 37.8934 64.7471Z" fill="white"/>
<path d="M40.7977 64.6012V65.7492H40.3278V64.6624C40.3278 64.3048 40.1492 64.1308 39.8578 64.1308C39.779 64.1257 39.7 64.1384 39.6266 64.1678C39.5533 64.1973 39.4874 64.2427 39.4338 64.3009C39.3802 64.359 39.3403 64.4284 39.3169 64.504C39.2935 64.5795 39.2873 64.6594 39.2986 64.7377V65.7492H38.8287V63.7403H39.2751V64.0037C39.3632 63.9085 39.4712 63.8338 39.5914 63.785C39.7117 63.7362 39.8411 63.7145 39.9706 63.7214C40.0856 63.7144 40.2007 63.7327 40.3078 63.7752C40.4149 63.8177 40.5113 63.8832 40.5903 63.9672C40.6692 64.0511 40.7287 64.1515 40.7646 64.2611C40.8004 64.3706 40.8118 64.4868 40.7977 64.6012Z" fill="white"/>
<path opacity="0.7" d="M77.8249 21.4585H16.7175V60.2165H77.8249V21.4585Z" fill="white"/>
<path opacity="0.5" d="M77.8249 58.9648H16.7175V60.2163H77.8249V58.9648Z" fill="black"/>
<path opacity="0.6" d="M37.8887 58.9648H16.7175V60.2163H37.8887V58.9648Z" fill="white"/>
<path d="M39.5147 59.633C39.5147 59.9272 39.4274 60.2148 39.2641 60.4594C39.1007 60.704 38.8685 60.8946 38.5968 61.0069C38.3252 61.1193 38.0264 61.1485 37.7382 61.0907C37.45 61.033 37.1854 60.8909 36.9779 60.6825C36.7704 60.4742 36.6293 60.2088 36.5726 59.9201C36.5158 59.6314 36.5459 59.3323 36.659 59.0608C36.7721 58.7892 36.9632 58.5573 37.208 58.3945C37.4528 58.2317 37.7404 58.1453 38.0343 58.1462C38.2291 58.1462 38.422 58.1847 38.6019 58.2595C38.7818 58.3343 38.9452 58.4439 39.0827 58.582C39.2203 58.7201 39.3292 58.884 39.4033 59.0644C39.4774 59.2447 39.5153 59.4379 39.5147 59.633Z" fill="white"/>
<path opacity="0.4" d="M71.8096 63.4392L74.2486 65.881L76.6829 63.4392H71.8096Z" fill="white"/>
<path opacity="0.4" d="M77.8249 71.1689H16.7175V93.0509H77.8249V71.1689Z" fill="white"/>
<path opacity="0.3" d="M41.0749 73.677H19.6029V90.5483H41.0749V73.677Z" fill="black"/>
<path d="M43.8993 75.8883C43.9092 75.6795 43.98 75.4781 44.1031 75.3092C44.2262 75.1403 44.3961 75.0112 44.5918 74.9381C44.7874 74.8649 45.0002 74.8509 45.2038 74.8977C45.4073 74.9445 45.5927 75.0501 45.7368 75.2014L45.5019 75.4225C45.4358 75.3486 45.3546 75.2897 45.2637 75.2499C45.1729 75.2101 45.0746 75.1904 44.9755 75.192C44.8591 75.1922 44.7446 75.2216 44.6425 75.2776C44.5404 75.3336 44.4539 75.4143 44.3911 75.5124C44.3282 75.6105 44.291 75.7228 44.2828 75.8391C44.2745 75.9553 44.2956 76.0718 44.344 76.1778C44.3924 76.2838 44.4666 76.3759 44.5598 76.4458C44.653 76.5156 44.7622 76.5609 44.8774 76.5775C44.9927 76.5941 45.1102 76.5815 45.2193 76.5408C45.3284 76.5001 45.4256 76.4327 45.5019 76.3447L45.7368 76.5752C45.5927 76.7265 45.4073 76.8321 45.2038 76.8789C45.0002 76.9257 44.7874 76.9117 44.5918 76.8386C44.3961 76.7654 44.2262 76.6364 44.1031 76.4675C43.98 76.2985 43.9092 76.0972 43.8993 75.8883Z" fill="white"/>
<path d="M47.5414 76.0107V76.8764H47.1889V76.0578C47.1889 75.7896 47.0574 75.6578 46.8318 75.6578C46.7711 75.6542 46.7104 75.6643 46.6542 75.6873C46.598 75.7104 46.5477 75.7458 46.5071 75.7911C46.4664 75.8363 46.4365 75.8901 46.4195 75.9485C46.4025 76.0069 46.3988 76.0683 46.4088 76.1283V76.8905H46.0564V74.7969H46.4088V75.559C46.4747 75.4937 46.5534 75.4428 46.64 75.4096C46.7265 75.3764 46.8191 75.3616 46.9117 75.3661C46.9973 75.3595 47.0833 75.3718 47.1637 75.4021C47.244 75.4323 47.3168 75.4798 47.3768 75.5413C47.4368 75.6027 47.4827 75.6766 47.5111 75.7577C47.5396 75.8388 47.5499 75.9252 47.5414 76.0107Z" fill="white"/>
<path d="M49.2473 75.9916V76.8761H48.9184V76.6927C48.8628 76.7626 48.7908 76.8177 48.7088 76.853C48.6268 76.8883 48.5373 76.9027 48.4484 76.895C48.1054 76.895 47.8892 76.7068 47.8892 76.4245C47.8892 76.1422 48.0584 75.954 48.5142 75.954H48.8996C48.8996 75.747 48.7774 75.6247 48.5283 75.6247C48.359 75.6194 48.1931 75.6725 48.0584 75.7752L47.9174 75.5165C48.1056 75.389 48.3294 75.3247 48.5565 75.333C48.9983 75.3659 49.2473 75.5588 49.2473 75.9916ZM48.8949 76.4057V76.2269H48.533C48.2933 76.2269 48.2275 76.321 48.2275 76.4292C48.2275 76.5374 48.3356 76.6362 48.5142 76.6362C48.5939 76.6433 48.6738 76.6248 48.7423 76.5834C48.8107 76.5419 48.8642 76.4796 48.8949 76.4057Z" fill="white"/>
<path d="M51.301 76.1234C51.3064 76.2257 51.2903 76.328 51.2537 76.4238C51.2172 76.5195 51.161 76.6065 51.0889 76.6792C51.0167 76.7519 50.9302 76.8086 50.8348 76.8458C50.7394 76.883 50.6373 76.8997 50.535 76.895C50.4469 76.896 50.3595 76.8786 50.2786 76.8437C50.1976 76.8089 50.1249 76.7574 50.065 76.6927V77.4219H49.7173V75.3659H50.0509V75.5635C50.1147 75.495 50.1929 75.4417 50.2799 75.4075C50.367 75.3733 50.4606 75.3591 50.5538 75.3659C50.6533 75.3639 50.7521 75.3823 50.8442 75.4198C50.9364 75.4572 51.02 75.5131 51.0899 75.584C51.1598 75.6549 51.2146 75.7392 51.2509 75.832C51.2872 75.9247 51.3042 76.0238 51.301 76.1234ZM50.9392 76.1234C50.9437 76.0628 50.9356 76.002 50.9154 75.9447C50.8952 75.8874 50.8633 75.835 50.8218 75.7907C50.7802 75.7465 50.7299 75.7114 50.6741 75.6876C50.6182 75.6639 50.5581 75.6521 50.4974 75.6529C50.3728 75.6529 50.2532 75.7025 50.1651 75.7907C50.077 75.8789 50.0275 75.9986 50.0275 76.1234C50.0275 76.2482 50.077 76.3678 50.1651 76.4561C50.2532 76.5443 50.3728 76.5939 50.4974 76.5939C50.5581 76.5947 50.6182 76.5829 50.6741 76.5591C50.7299 76.5354 50.7802 76.5003 50.8218 76.456C50.8633 76.4118 50.8952 76.3593 50.9154 76.3021C50.9356 76.2448 50.9437 76.1839 50.9392 76.1234Z" fill="white"/>
<path d="M52.5417 76.7773C52.4439 76.8492 52.3246 76.8857 52.2034 76.8809C52.1342 76.8888 52.0641 76.8812 51.9981 76.8587C51.9322 76.8362 51.8721 76.7993 51.8222 76.7506C51.7723 76.702 51.7338 76.6429 51.7095 76.5775C51.6852 76.5122 51.6757 76.4422 51.6817 76.3727V75.6482H51.4373V75.3659H51.6817V75.0225H52.0342V75.3659H52.4336V75.6482H52.0295V76.3633C52.0251 76.3928 52.0275 76.4228 52.0364 76.4512C52.0452 76.4796 52.0604 76.5057 52.0807 76.5274C52.1011 76.5491 52.126 76.5659 52.1538 76.5766C52.1815 76.5873 52.2113 76.5916 52.241 76.5892C52.3116 76.5905 52.3808 76.5691 52.4383 76.528L52.5417 76.7773Z" fill="white"/>
<path d="M54.1912 76.2362H53.0069C53.0326 76.3406 53.0933 76.433 53.1788 76.498C53.2643 76.5631 53.3695 76.5969 53.4768 76.5937C53.5523 76.5969 53.6277 76.5843 53.6981 76.5568C53.7684 76.5292 53.8323 76.4873 53.8857 76.4338L54.0737 76.6502C53.9596 76.7634 53.8156 76.8417 53.6587 76.876C53.5018 76.9103 53.3383 76.8992 53.1875 76.8439C53.0367 76.7886 52.9047 76.6915 52.8069 76.5639C52.7092 76.4363 52.6498 76.2834 52.6356 76.1232C52.633 76.0204 52.6514 75.9181 52.6898 75.8227C52.7282 75.7272 52.7857 75.6407 52.8588 75.5684C52.932 75.4961 53.0191 75.4396 53.1149 75.4023C53.2107 75.365 53.313 75.3478 53.4157 75.3517C53.518 75.3475 53.62 75.3649 53.7152 75.4027C53.8104 75.4404 53.8966 75.4977 53.9683 75.5708C54.04 75.644 54.0957 75.7313 54.1316 75.8273C54.1676 75.9232 54.1831 76.0256 54.1771 76.128C54.1959 76.1562 54.1912 76.1985 54.1912 76.2362ZM53.0069 76.0009H53.8434C53.8252 75.9013 53.7727 75.8112 53.695 75.7463C53.6172 75.6815 53.5193 75.6459 53.4181 75.6459C53.3169 75.6459 53.2189 75.6815 53.1412 75.7463C53.0635 75.8112 53.011 75.9013 52.9928 76.0009H53.0069Z" fill="white"/>
<path d="M55.4037 75.366V75.7001H55.3238C55.2624 75.696 55.201 75.7056 55.1438 75.7283C55.0867 75.751 55.0353 75.7862 54.9934 75.8312C54.9516 75.8763 54.9203 75.9301 54.9018 75.9888C54.8834 76.0475 54.8782 76.1096 54.8867 76.1706V76.9045H54.5343V75.366H54.8679V75.5872C54.9314 75.5081 55.0138 75.4464 55.1074 75.4078C55.2011 75.3691 55.303 75.3548 55.4037 75.366Z" fill="white"/>
<path d="M56.3906 75.888C56.3906 75.2388 56.743 74.8718 57.213 74.8718C57.6829 74.8718 58.0401 75.2388 58.0401 75.888C58.0401 76.5373 57.6829 76.9043 57.213 76.9043C56.743 76.9043 56.3906 76.5373 56.3906 75.888ZM57.6688 75.888C57.6688 75.4176 57.4808 75.1917 57.1989 75.1917C56.9169 75.1917 56.7289 75.4082 56.7289 75.888C56.7289 76.3679 56.9169 76.5844 57.1989 76.5844C57.4808 76.5844 57.6688 76.3632 57.6688 75.888Z" fill="white"/>
<path d="M58.9565 74.8955V76.8715H58.59V75.2013H58.1717V74.8955H58.9565Z" fill="white"/>
<path opacity="0.5" d="M72.3312 78.8521H44.2941C44.0086 78.8521 43.7771 79.0838 43.7771 79.3696V79.3978C43.7771 79.6836 44.0086 79.9153 44.2941 79.9153H72.3312C72.6167 79.9153 72.8482 79.6836 72.8482 79.3978V79.3696C72.8482 79.0838 72.6167 78.8521 72.3312 78.8521Z" fill="white"/>
<path opacity="0.5" d="M67.1618 81.2043H44.2941C44.0086 81.2043 43.7771 81.4361 43.7771 81.7219V81.7501C43.7771 82.0359 44.0086 82.2676 44.2941 82.2676H67.1618C67.4473 82.2676 67.6787 82.0359 67.6787 81.7501V81.7219C67.6787 81.4361 67.4473 81.2043 67.1618 81.2043Z" fill="white"/>
<path opacity="0.6" d="M26.7838 79.0312V85.1898L32.9355 82.1129L26.7838 79.0312Z" fill="white"/>
<path d="M77.2798 18.7297L75.1039 16.8525L72.9327 18.7297V13.5686H77.2798V18.7297Z" fill="#407BFF"/>
<path d="M69.4364 13.5686H66.1467C65.9311 13.5686 65.7243 13.6544 65.5719 13.807C65.4194 13.9596 65.3337 14.1667 65.3337 14.3825V16.622C65.335 16.8375 65.421 17.0438 65.5732 17.1962C65.7254 17.3486 65.9315 17.4347 66.1467 17.4359H67.2558V18.7297L68.1017 17.4359H69.4176C69.6332 17.4359 69.84 17.3502 69.9925 17.1975C70.1449 17.0449 70.2306 16.8379 70.2306 16.622V14.3825C70.2319 14.1695 70.1492 13.9646 70.0005 13.8122C69.8518 13.6599 69.6491 13.5723 69.4364 13.5686Z" fill="#407BFF"/>
<path d="M62.8758 14.2037C62.2743 13.211 61.1088 13.5827 60.5026 14.3495C59.9058 13.5779 58.7403 13.1922 58.1247 14.1755C57.0908 15.8409 59.1961 17.4029 60.1971 18.0146L60.4791 18.1886L60.7658 18.0193C61.7668 17.3982 63.8956 15.8645 62.8758 14.2037Z" fill="#407BFF"/>
<path d="M38.6124 17.2053H17.8548C17.2267 17.2053 16.7175 17.7151 16.7175 18.3439V18.4144C16.7175 19.0433 17.2267 19.553 17.8548 19.553H38.6124C39.2405 19.553 39.7497 19.0433 39.7497 18.4144V18.3439C39.7497 17.7151 39.2405 17.2053 38.6124 17.2053Z" fill="#407BFF"/>
<path d="M45.3891 13.5686H17.8548C17.2267 13.5686 16.7175 14.0784 16.7175 14.7072V14.7777C16.7175 15.4065 17.2267 15.9163 17.8548 15.9163H45.3891C46.0172 15.9163 46.5263 15.4065 46.5263 14.7777V14.7072C46.5263 14.0784 46.0172 13.5686 45.3891 13.5686Z" fill="#407BFF"/>
<path opacity="0.4" d="M77.8249 95.6387H16.7175V117.521H77.8249V95.6387Z" fill="white"/>
<path opacity="0.3" d="M41.0749 98.1416H19.6029V115.013H41.0749V98.1416Z" fill="black"/>
<path d="M43.8993 100.353C43.9092 100.144 43.98 99.9427 44.1031 99.7738C44.2262 99.6049 44.3961 99.4758 44.5918 99.4027C44.7874 99.3295 45.0002 99.3155 45.2038 99.3623C45.4073 99.4091 45.5927 99.5147 45.7368 99.666L45.5019 99.8918C45.4358 99.8179 45.3546 99.759 45.2637 99.7192C45.1729 99.6794 45.0746 99.6597 44.9755 99.6613C44.8797 99.6534 44.7833 99.6655 44.6923 99.6968C44.6014 99.7281 44.5179 99.7779 44.4472 99.8431C44.3765 99.9083 44.32 99.9875 44.2814 100.076C44.2428 100.164 44.2229 100.259 44.2229 100.355C44.2229 100.452 44.2428 100.547 44.2814 100.635C44.32 100.723 44.3765 100.802 44.4472 100.867C44.5179 100.933 44.6014 100.982 44.6923 101.014C44.7833 101.045 44.8797 101.057 44.9755 101.049C45.0749 101.05 45.1734 101.029 45.2642 100.989C45.355 100.948 45.436 100.889 45.5019 100.814L45.7368 101.04C45.5927 101.191 45.4073 101.297 45.2038 101.344C45.0002 101.39 44.7874 101.376 44.5918 101.303C44.3961 101.23 44.2262 101.101 44.1031 100.932C43.98 100.763 43.9092 100.562 43.8993 100.353Z" fill="white"/>
<path d="M47.5414 100.48V101.341H47.1889V100.523C47.1889 100.254 47.0574 100.127 46.8318 100.127C46.7709 100.123 46.7098 100.132 46.6531 100.155C46.5965 100.178 46.5457 100.213 46.5049 100.259C46.4641 100.304 46.4342 100.358 46.4175 100.417C46.4009 100.476 46.3979 100.538 46.4088 100.598V101.36H46.0564V99.2664H46.4088V100.029C46.4753 99.9641 46.5541 99.9138 46.6406 99.8806C46.727 99.8475 46.8192 99.8322 46.9117 99.8356C46.9971 99.8299 47.0827 99.8427 47.1627 99.8732C47.2427 99.9038 47.3151 99.9513 47.375 100.013C47.4348 100.074 47.4807 100.147 47.5094 100.228C47.5382 100.309 47.5491 100.395 47.5414 100.48Z" fill="white"/>
<path d="M49.2473 100.456V101.341H48.9184V101.157C48.8634 101.228 48.7915 101.284 48.7093 101.319C48.6272 101.354 48.5374 101.368 48.4484 101.36C48.1054 101.36 47.8892 101.172 47.8892 100.889C47.8892 100.607 48.0584 100.419 48.5142 100.419H48.8996C48.8996 100.212 48.7774 100.094 48.5283 100.094C48.3599 100.09 48.1947 100.141 48.0584 100.24L47.9174 99.9859C48.104 99.8546 48.3286 99.7885 48.5565 99.7977C48.9983 99.8307 49.2473 100.024 49.2473 100.456ZM48.8949 100.87V100.696H48.533C48.2933 100.696 48.2275 100.786 48.2275 100.894C48.2275 101.002 48.3356 101.106 48.5142 101.106C48.5943 101.112 48.6743 101.092 48.7427 101.05C48.8111 101.008 48.8643 100.945 48.8949 100.87Z" fill="white"/>
<path d="M51.301 100.588C51.3064 100.69 51.2903 100.793 51.2537 100.888C51.2172 100.984 51.161 101.071 51.0889 101.144C51.0167 101.216 50.9302 101.273 50.8348 101.31C50.7394 101.348 50.6373 101.364 50.535 101.36C50.4469 101.361 50.3595 101.343 50.2786 101.308C50.1976 101.273 50.1249 101.222 50.065 101.157V101.887H49.7173V99.8305H50.0509V100.028C50.114 99.9588 50.1922 99.9049 50.2794 99.8707C50.3666 99.8364 50.4605 99.8227 50.5538 99.8305C50.6533 99.8286 50.7521 99.8469 50.8442 99.8844C50.9364 99.9219 51.02 99.9777 51.0899 100.049C51.1598 100.119 51.2146 100.204 51.2509 100.297C51.2872 100.389 51.3042 100.488 51.301 100.588ZM50.9392 100.588C50.9437 100.527 50.9356 100.467 50.9154 100.409C50.8952 100.352 50.8633 100.3 50.8218 100.255C50.7802 100.211 50.7299 100.176 50.6741 100.152C50.6182 100.129 50.5581 100.117 50.4974 100.118C50.3728 100.118 50.2532 100.167 50.1651 100.255C50.077 100.344 50.0275 100.463 50.0275 100.588C50.0275 100.713 50.077 100.832 50.1651 100.921C50.2532 101.009 50.3728 101.058 50.4974 101.058C50.5581 101.059 50.6182 101.047 50.6741 101.024C50.7299 101 50.7802 100.965 50.8218 100.921C50.8633 100.876 50.8952 100.824 50.9154 100.767C50.9356 100.709 50.9437 100.649 50.9392 100.588Z" fill="white"/>
<path d="M52.5417 101.242C52.4424 101.31 52.3238 101.345 52.2034 101.341C52.1342 101.349 52.0641 101.341 51.9981 101.319C51.9322 101.296 51.8721 101.259 51.8222 101.211C51.7723 101.162 51.7338 101.103 51.7095 101.037C51.6852 100.972 51.6757 100.902 51.6817 100.833V100.108H51.4373V99.8305H51.6817V99.4871H52.0342V99.8305H52.4336V100.113H52.0295V100.833C52.025 100.862 52.0273 100.892 52.0361 100.92C52.045 100.948 52.0603 100.974 52.0807 100.995C52.1012 101.017 52.1263 101.033 52.1541 101.043C52.1818 101.053 52.2116 101.057 52.241 101.054C52.3116 101.055 52.3808 101.034 52.4383 100.993L52.5417 101.242Z" fill="white"/>
<path d="M54.1912 100.701H53.0069C53.0317 100.807 53.092 100.9 53.1776 100.966C53.2632 101.032 53.3688 101.067 53.4768 101.064C53.5526 101.066 53.6281 101.053 53.6985 101.024C53.7688 100.996 53.8326 100.953 53.8857 100.899L54.0737 101.115C53.9596 101.229 53.8156 101.307 53.6587 101.341C53.5018 101.376 53.3383 101.364 53.1875 101.309C53.0367 101.254 52.9047 101.157 52.8069 101.029C52.7092 100.902 52.6498 100.749 52.6356 100.589C52.633 100.486 52.6514 100.383 52.6898 100.288C52.7282 100.193 52.7857 100.106 52.8588 100.034C52.932 99.9614 53.0191 99.9048 53.1149 99.8676C53.2107 99.8303 53.313 99.8131 53.4157 99.8169C53.5183 99.8135 53.6204 99.8315 53.7155 99.8698C53.8107 99.9081 53.8969 99.9658 53.9685 100.039C54.0402 100.113 54.0957 100.2 54.1316 100.297C54.1675 100.393 54.183 100.495 54.1771 100.598C54.1959 100.626 54.1912 100.669 54.1912 100.701ZM53.0069 100.466H53.8434C53.8252 100.367 53.7727 100.276 53.695 100.212C53.6172 100.147 53.5193 100.111 53.4181 100.111C53.3169 100.111 53.2189 100.147 53.1412 100.212C53.0635 100.276 53.011 100.367 52.9928 100.466H53.0069Z" fill="white"/>
<path d="M55.4037 99.8307V100.169C55.3772 100.165 55.3502 100.165 55.3238 100.169C55.2622 100.164 55.2003 100.173 55.1428 100.196C55.0852 100.218 55.0334 100.253 54.9914 100.299C54.9493 100.344 54.9181 100.398 54.8999 100.457C54.8818 100.516 54.8773 100.579 54.8867 100.64V101.369H54.5343V99.8307H54.8679V100.052C54.9308 99.9721 55.0131 99.9099 55.1069 99.8712C55.2007 99.8325 55.3029 99.8185 55.4037 99.8307Z" fill="white"/>
<path d="M56.3906 100.353C56.3906 99.7039 56.743 99.3369 57.213 99.3369C57.6829 99.3369 58.0401 99.7039 58.0401 100.353C58.0401 101.002 57.6829 101.369 57.213 101.369C56.743 101.369 56.3906 101.002 56.3906 100.353ZM57.6688 100.353C57.6688 99.8827 57.4808 99.6568 57.1989 99.6568C56.9169 99.6568 56.7289 99.878 56.7289 100.353C56.7289 100.828 56.9169 101.049 57.1989 101.049C57.4808 101.049 57.6688 100.828 57.6688 100.353Z" fill="white"/>
<path d="M59.7037 101.03V101.341H58.2469V101.096L59.0317 100.353C59.2244 100.169 59.2573 100.052 59.2573 99.9435C59.2573 99.76 59.1304 99.6565 58.8907 99.6565C58.8016 99.6513 58.7125 99.6673 58.6308 99.7033C58.5491 99.7393 58.4771 99.7942 58.4208 99.8635L58.167 99.6659C58.2569 99.5561 58.3714 99.469 58.5013 99.4118C58.6311 99.3546 58.7726 99.3288 58.9142 99.3366C59.3466 99.3366 59.6191 99.553 59.6191 99.9058C59.6171 100.027 59.5868 100.147 59.5305 100.255C59.4742 100.363 59.3935 100.456 59.2949 100.527L58.7685 101.03H59.7037Z" fill="white"/>
<path opacity="0.5" d="M72.3312 103.317H44.2941C44.0086 103.317 43.7771 103.549 43.7771 103.835V103.863C43.7771 104.149 44.0086 104.38 44.2941 104.38H72.3312C72.6167 104.38 72.8482 104.149 72.8482 103.863V103.835C72.8482 103.549 72.6167 103.317 72.3312 103.317Z" fill="white"/>
<path opacity="0.5" d="M67.1618 105.669H44.2941C44.0086 105.669 43.7771 105.901 43.7771 106.187V106.215C43.7771 106.501 44.0086 106.733 44.2941 106.733H67.1618C67.4473 106.733 67.6787 106.501 67.6787 106.215V106.187C67.6787 105.901 67.4473 105.669 67.1618 105.669Z" fill="white"/>
<path opacity="0.6" d="M26.7838 103.501V109.659L32.9355 106.578L26.7838 103.501Z" fill="white"/>
<path d="M23.3672 25.4622V28.9155H22.7281V27.4335H20.947V28.9155H20.3031V25.4622H20.947V26.8736H22.7281V25.4622H23.3672Z" fill="#407BFF"/>
<path d="M24.0205 27.5983C24.0083 27.3169 24.0805 27.0382 24.2278 26.7982C24.3751 26.5582 24.5908 26.3678 24.8471 26.2516C25.1034 26.1353 25.3886 26.0985 25.666 26.1458C25.9434 26.1932 26.2003 26.3225 26.4036 26.5173C26.6069 26.712 26.7474 26.9632 26.8069 27.2385C26.8665 27.5139 26.8424 27.8007 26.7377 28.0622C26.633 28.3237 26.4526 28.5479 26.2196 28.7058C25.9866 28.8638 25.7117 28.9483 25.4303 28.9486C25.2473 28.9604 25.0639 28.934 24.8916 28.8711C24.7193 28.8082 24.5619 28.7102 24.4294 28.5833C24.2969 28.4564 24.1921 28.3033 24.1217 28.1337C24.0513 27.9642 24.0169 27.7819 24.0205 27.5983ZM26.2011 27.5983C26.1928 27.4459 26.1401 27.2993 26.0495 27.1766C25.9589 27.0538 25.8344 26.9603 25.6913 26.9077C25.5483 26.855 25.3929 26.8454 25.2445 26.8802C25.096 26.9149 24.961 26.9925 24.8561 27.1032C24.7512 27.2139 24.681 27.353 24.6541 27.5032C24.6273 27.6534 24.645 27.8083 24.7051 27.9485C24.7652 28.0888 24.865 28.2083 24.9922 28.2924C25.1195 28.3765 25.2685 28.4214 25.4209 28.4217C25.5276 28.4239 25.6336 28.4038 25.7321 28.3627C25.8306 28.3215 25.9194 28.2602 25.9929 28.1827C26.0663 28.1052 26.1228 28.0132 26.1586 27.9125C26.1945 27.8119 26.2089 27.7049 26.2011 27.5983Z" fill="#407BFF"/>
<path d="M31.4457 26.281L30.4729 28.9157H29.876L29.1946 27.0996L28.5038 28.9157H27.9116L26.9482 26.281H27.5263L28.2171 28.2241L28.9455 26.281H29.4625L30.1721 28.2335L30.8864 26.281H31.4457Z" fill="#407BFF"/>
<path d="M34.8105 28.7887C34.6402 28.9124 34.4334 28.9754 34.2231 28.9675C34.1024 28.983 33.9797 28.971 33.8642 28.9324C33.7487 28.8938 33.6435 28.8295 33.5563 28.7445C33.4691 28.6594 33.4022 28.5558 33.3606 28.4412C33.319 28.3267 33.3038 28.2042 33.3161 28.083V26.8127H32.8791V26.3422H33.3161V25.74H33.9317V26.3422H34.6367V26.8127H33.9317V28.0642C33.9317 28.3229 34.0586 28.4594 34.2936 28.4594C34.4184 28.4639 34.5411 28.4257 34.6414 28.3511L34.8105 28.7887Z" fill="#407BFF"/>
<path d="M35.0173 27.5983C35.0051 27.3169 35.0773 27.0382 35.2246 26.7982C35.3719 26.5582 35.5876 26.3678 35.8439 26.2516C36.1002 26.1353 36.3854 26.0985 36.6628 26.1458C36.9402 26.1932 37.1971 26.3225 37.4004 26.5173C37.6037 26.712 37.7442 26.9632 37.8037 27.2385C37.8633 27.5139 37.8391 27.8007 37.7345 28.0622C37.6298 28.3237 37.4494 28.5479 37.2164 28.7058C36.9834 28.8638 36.7085 28.9483 36.4271 28.9486C36.244 28.9611 36.0602 28.9352 35.8876 28.8726C35.7149 28.8099 35.5573 28.712 35.4246 28.5849C35.2919 28.4578 35.1872 28.3045 35.1171 28.1346C35.0469 27.9647 35.0129 27.7821 35.0173 27.5983ZM37.1978 27.5983C37.1896 27.4461 37.137 27.2997 37.0467 27.177C36.9563 27.0544 36.832 26.9609 36.6892 26.9081C36.5464 26.8553 36.3913 26.8455 36.243 26.8798C36.0946 26.9142 35.9596 26.9913 35.8545 27.1015C35.7494 27.2118 35.6788 27.3504 35.6515 27.5004C35.6241 27.6503 35.6412 27.805 35.7005 27.9453C35.7599 28.0856 35.859 28.2055 35.9856 28.2902C36.1122 28.3748 36.2608 28.4205 36.413 28.4217C36.5201 28.4246 36.6266 28.405 36.7257 28.3641C36.8247 28.3233 36.9141 28.2621 36.9881 28.1845C37.0621 28.1069 37.1189 28.0147 37.1551 27.9137C37.1912 27.8127 37.2058 27.7053 37.1978 27.5983Z" fill="#407BFF"/>
<path d="M20.3031 29.6965H20.947V33.1498H20.3031V29.6965Z" fill="#407BFF"/>
<path d="M24.4106 31.6396V33.1498H23.7949V31.7384C23.7949 31.2679 23.56 31.0421 23.1652 31.0421C23.0621 31.0363 22.9589 31.0534 22.8631 31.0922C22.7674 31.131 22.6814 31.1905 22.6113 31.2665C22.5412 31.3425 22.4888 31.4331 22.4578 31.5318C22.4269 31.6304 22.4181 31.7347 22.4321 31.8372V33.1686H21.8165V30.534H22.4039V30.8727C22.5187 30.7484 22.6595 30.651 22.8163 30.5875C22.9732 30.5241 23.142 30.4962 23.3109 30.5057C23.461 30.4946 23.6117 30.5166 23.7524 30.5701C23.8932 30.6236 24.0204 30.7074 24.1253 30.8155C24.2301 30.9236 24.31 31.0535 24.3593 31.1959C24.4086 31.3382 24.4261 31.4897 24.4106 31.6396Z" fill="#407BFF"/>
<path d="M25.0027 31.8323C25.0004 31.6493 25.0359 31.4678 25.1068 31.2992C25.1777 31.1305 25.2826 30.9783 25.4149 30.8521C25.5472 30.7258 25.704 30.6282 25.8757 30.5653C26.0473 30.5025 26.2301 30.4757 26.4125 30.4867C26.6386 30.4704 26.8646 30.5193 27.0637 30.6277C27.2628 30.7362 27.4266 30.8995 27.5357 31.0983L27.0658 31.3759C26.9992 31.2623 26.9036 31.1684 26.7888 31.1039C26.674 31.0394 26.5441 31.0067 26.4125 31.0089C26.1944 31.0089 25.9852 31.0957 25.831 31.2501C25.6768 31.4045 25.5901 31.6139 25.5901 31.8323C25.5901 32.0506 25.6768 32.2601 25.831 32.4145C25.9852 32.5689 26.1944 32.6556 26.4125 32.6556C26.5441 32.6579 26.674 32.6251 26.7888 32.5606C26.9036 32.4962 26.9992 32.4023 27.0658 32.2887L27.5357 32.5662C27.4264 32.7652 27.2626 32.9288 27.0637 33.038C26.8648 33.1471 26.6389 33.1973 26.4125 33.1826C26.2297 33.1936 26.0465 33.1667 25.8746 33.1036C25.7026 33.0404 25.5455 32.9424 25.4131 32.8156C25.2808 32.6888 25.176 32.5361 25.1054 32.3669C25.0347 32.1976 24.9998 32.0157 25.0027 31.8323Z" fill="#407BFF"/>
<path d="M29.6035 30.487V31.0751C29.5565 31.0714 29.5094 31.0714 29.4625 31.0751C29.3557 31.0671 29.2486 31.0831 29.1488 31.1219C29.049 31.1607 28.9591 31.2213 28.8857 31.2993C28.8123 31.3773 28.7572 31.4707 28.7245 31.5727C28.6918 31.6747 28.6822 31.7828 28.6965 31.889V33.1687H28.0808V30.534H28.6683V30.9198C28.7727 30.7721 28.9141 30.6544 29.0782 30.5785C29.2423 30.5025 29.4234 30.471 29.6035 30.487Z" fill="#407BFF"/>
<path d="M32.5642 32.0302H30.5011C30.5407 32.2215 30.6494 32.3916 30.8063 32.5079C30.9632 32.6242 31.1573 32.6785 31.3517 32.6606C31.4843 32.6659 31.6165 32.6431 31.7396 32.5937C31.8627 32.5442 31.974 32.4692 32.0661 32.3736L32.395 32.7547C32.2503 32.9445 32.0598 33.0944 31.8415 33.1904C31.6231 33.2864 31.384 33.3254 31.1465 33.3037C30.909 33.282 30.6808 33.2004 30.4834 33.0664C30.286 32.9324 30.1258 32.7505 30.0177 32.5376C29.9096 32.3248 29.8573 32.088 29.8655 31.8494C29.8737 31.6107 29.9423 31.3781 30.0648 31.1732C30.1873 30.9684 30.3597 30.798 30.5658 30.6779C30.772 30.5579 31.0052 30.4922 31.2437 30.487C31.4228 30.4794 31.6015 30.5096 31.7681 30.5756C31.9348 30.6416 32.0858 30.742 32.2112 30.8702C32.3366 30.9984 32.4337 31.1516 32.4962 31.3198C32.5586 31.4881 32.585 31.6676 32.5736 31.8467C32.5736 31.8984 32.5689 31.969 32.5642 32.0302ZM30.4964 31.6208H31.9862C31.9683 31.4391 31.8812 31.2712 31.7429 31.1521C31.6046 31.0329 31.4258 30.9717 31.2437 30.981C31.0629 30.9736 30.886 31.0342 30.7477 31.1509C30.6094 31.2676 30.5198 31.4319 30.4964 31.6114V31.6208Z" fill="#407BFF"/>
<path d="M35.2946 31.6116V33.1547H34.7119V32.8348C34.6144 32.9581 34.4877 33.055 34.3432 33.1167C34.1987 33.1783 34.0411 33.2027 33.8848 33.1877C33.2832 33.1877 32.9073 32.8583 32.9073 32.3973C32.9073 31.9362 33.2033 31.6163 33.9975 31.6163H34.679V31.5739C34.679 31.2164 34.4628 31.0047 34.0257 31.0047C33.7384 31.0016 33.4579 31.0924 33.2268 31.2634L32.9825 30.8165C33.3102 30.5934 33.7001 30.4798 34.0962 30.4918C34.8575 30.4871 35.2946 30.8447 35.2946 31.6116ZM34.679 32.3314V32.0256H34.0445C33.6263 32.0256 33.5135 32.1809 33.5135 32.3737C33.5135 32.5666 33.6968 32.7407 34.0163 32.7407C34.1561 32.7494 34.2951 32.7142 34.4139 32.64C34.5327 32.5658 34.6254 32.4562 34.679 32.3267V32.3314Z" fill="#407BFF"/>
<path d="M35.7833 32.8866L36.0182 32.4162C36.3019 32.5871 36.6271 32.6766 36.9581 32.6749C37.3482 32.6749 37.5127 32.5667 37.5127 32.3832C37.5127 31.8845 35.8866 32.355 35.8866 31.3058C35.8866 30.8071 36.3331 30.4825 37.0427 30.4825C37.3851 30.4765 37.7238 30.554 38.0296 30.7083L37.7946 31.1788C37.5661 31.0428 37.3038 30.9743 37.038 30.9812C36.6668 30.9812 36.4882 31.1035 36.4882 31.2776C36.4882 31.8092 38.1142 31.3341 38.1142 32.3644C38.1142 32.8349 37.6443 33.1783 36.9205 33.1783C36.5213 33.1926 36.1265 33.0913 35.7833 32.8866Z" fill="#407BFF"/>
<path d="M41.0844 32.0299H39.0213C39.0609 32.2213 39.1695 32.3914 39.3264 32.5077C39.4833 32.624 39.6775 32.6783 39.8719 32.6604C40.0044 32.6657 40.1366 32.6429 40.2597 32.5934C40.3829 32.544 40.4941 32.469 40.5862 32.3734L40.9199 32.7545C40.7189 32.9525 40.4656 33.0889 40.1899 33.1477C39.9141 33.2065 39.6273 33.1852 39.3631 33.0864C39.099 32.9875 38.8686 32.8152 38.699 32.5897C38.5294 32.3642 38.4276 32.0949 38.4056 31.8135C38.4003 31.6342 38.432 31.4557 38.4985 31.2891C38.5651 31.1225 38.6652 30.9714 38.7926 30.8452C38.92 30.719 39.0719 30.6203 39.239 30.5554C39.4061 30.4906 39.5847 30.4608 39.7638 30.468C39.9429 30.4603 40.1216 30.4905 40.2883 30.5565C40.455 30.6225 40.6059 30.7229 40.7314 30.8511C40.8568 30.9794 40.9539 31.1326 41.0163 31.3008C41.0787 31.469 41.1051 31.6485 41.0938 31.8276C41.0938 31.8982 41.0891 31.9688 41.0844 32.0299ZM39.0166 31.6206H40.511C40.4827 31.4426 40.3919 31.2805 40.255 31.1635C40.118 31.0465 39.9439 30.9822 39.7638 30.9822C39.5837 30.9822 39.4096 31.0465 39.2726 31.1635C39.1357 31.2805 39.0449 31.4426 39.0166 31.6206Z" fill="#407BFF"/>
<path d="M22.7093 34.7495L21.478 37.5959C21.4226 37.8222 21.2918 38.0228 21.1074 38.1647C20.9229 38.3066 20.6956 38.3815 20.4629 38.3769C20.2064 38.3821 19.9563 38.2954 19.758 38.1323L20.0024 37.6618C20.1293 37.7817 20.2978 37.8475 20.4724 37.8453C20.6885 37.8453 20.8154 37.7418 20.9423 37.4783L20.9893 37.3748L19.8379 34.7307H20.477L21.3042 36.6785L22.136 34.7307L22.7093 34.7495Z" fill="#407BFF"/>
<path d="M22.8268 36.0668C22.8146 35.7854 22.8868 35.5067 23.0341 35.2667C23.1814 35.0267 23.3971 34.8363 23.6534 34.7201C23.9097 34.6038 24.1949 34.567 24.4723 34.6143C24.7497 34.6617 25.0066 34.791 25.2099 34.9858C25.4132 35.1805 25.5537 35.4317 25.6132 35.707C25.6728 35.9824 25.6487 36.2692 25.544 36.5307C25.4393 36.7922 25.2589 37.0164 25.0259 37.1743C24.7929 37.3323 24.518 37.4168 24.2366 37.4171C24.0536 37.4289 23.8702 37.4025 23.6979 37.3396C23.5256 37.2767 23.3682 37.1787 23.2357 37.0518C23.1032 36.9249 22.9984 36.7718 22.928 36.6023C22.8576 36.4327 22.8232 36.2504 22.8268 36.0668ZM25.0074 36.0668C24.9991 35.9144 24.9464 35.7678 24.8558 35.6451C24.7652 35.5223 24.6407 35.4288 24.4976 35.3762C24.3546 35.3235 24.1992 35.314 24.0508 35.3487C23.9023 35.3834 23.7673 35.461 23.6624 35.5717C23.5575 35.6824 23.4873 35.8215 23.4605 35.9717C23.4336 36.122 23.4513 36.2768 23.5114 36.417C23.5715 36.5573 23.6713 36.6768 23.7986 36.7609C23.9258 36.845 24.0748 36.8899 24.2272 36.8902C24.332 36.8892 24.4354 36.8667 24.5311 36.8241C24.6268 36.7815 24.7128 36.7197 24.7837 36.6425C24.8546 36.5654 24.9089 36.4745 24.9434 36.3755C24.9778 36.2764 24.9916 36.1714 24.9839 36.0668H25.0074Z" fill="#407BFF"/>
<path d="M28.7434 34.7496V37.3843H28.1607V37.0503C28.0549 37.1707 27.9237 37.2661 27.7766 37.3296C27.6295 37.3931 27.4702 37.423 27.3101 37.4173C27.1551 37.4325 26.9987 37.4127 26.8524 37.3593C26.7061 37.3059 26.5737 37.2202 26.4649 37.1086C26.3562 36.997 26.2739 36.8624 26.2241 36.7147C26.1744 36.5669 26.1584 36.4099 26.1775 36.2552V34.7496H26.7931V36.1611C26.7931 36.6316 27.0234 36.8668 27.4088 36.8668C27.7941 36.8668 28.1278 36.5986 28.1278 36.0717V34.7402L28.7434 34.7496Z" fill="#407BFF"/>
<path d="M31.0792 34.7213V35.3094C31.0307 35.3054 30.982 35.3054 30.9335 35.3094C30.8271 35.3021 30.7205 35.3187 30.6213 35.3578C30.5221 35.3969 30.4328 35.4576 30.36 35.5355C30.2871 35.6134 30.2324 35.7066 30.2 35.8082C30.1675 35.9099 30.158 36.0175 30.1722 36.1233V37.403H29.5565V34.7683H30.1393V35.1541C30.2445 35.006 30.3866 34.8881 30.5515 34.8122C30.7165 34.7362 30.8984 34.7049 31.0792 34.7213Z" fill="#407BFF"/>
<path d="M19.8051 43.1946L20.0636 42.6159C20.448 42.9024 20.9143 43.0574 21.3935 43.0581C22.0186 43.0581 22.2817 42.8323 22.2817 42.5359C22.2817 41.6655 19.8897 42.2348 19.8897 40.7387C19.8897 40.0894 20.4066 39.5342 21.511 39.5342C21.9834 39.527 22.4486 39.6508 22.8551 39.8918L22.6154 40.4752C22.2807 40.2716 21.8979 40.1612 21.5063 40.1553C20.886 40.1553 20.6322 40.3999 20.6322 40.7057C20.6322 41.562 23.0195 41.0021 23.0195 42.4841C23.0195 43.1287 22.4979 43.6791 21.3935 43.6791C20.825 43.6983 20.2663 43.5279 19.8051 43.1946Z" fill="#263238"/>
<path d="M25.1437 41.9338L24.5093 42.5924V43.6228H23.7668V39.6096H24.5187V41.6797L26.5066 39.6096H27.3478L25.656 41.4116L27.4512 43.6416H26.5864L25.1437 41.9338Z" fill="#263238"/>
<path d="M27.9492 39.6096H28.6964V43.6416H27.9492V39.6096Z" fill="#263238"/>
<path d="M29.782 39.6096H30.5292V43.0065H32.6346V43.6416H29.782V39.6096Z" fill="#263238"/>
<path d="M33.2268 39.6096H33.974V43.0065H36.0793V43.6416H33.2268V39.6096Z" fill="#263238"/>
<path d="M36.3002 43.1945L36.5587 42.6158C36.9436 42.9014 37.4096 43.0564 37.8886 43.0581C38.5137 43.0581 38.7815 42.8322 38.7815 42.5358C38.7815 41.6655 36.3848 42.2347 36.3848 40.7386C36.3848 40.0893 36.9065 39.5342 38.0108 39.5342C38.4817 39.5276 38.9451 39.6514 39.3502 39.8918L39.1152 40.4751C38.7786 40.272 38.3944 40.1616 38.0014 40.1552C37.3811 40.1552 37.1273 40.3999 37.1273 40.7057C37.1273 41.5619 39.5147 41.0021 39.5147 42.4841C39.5147 43.1286 38.993 43.6791 37.8886 43.6791C37.3202 43.6983 36.7614 43.5278 36.3002 43.1945Z" fill="#263238"/>
<path d="M43.0957 45.166L40.9105 44.0933C40.9105 44.0933 40.2619 42.6537 40.215 42.6819C40.168 42.7101 36.0324 41.8303 36.0324 41.8303C36.0324 41.8303 35.9854 44.2721 36.4507 44.7943C36.9159 45.3166 39.7403 45.5518 39.886 45.6412C40.0317 45.7306 40.3559 45.4389 40.3559 45.4389L42.7057 46.9679L43.0957 45.166Z" fill="#EBB376"/>
<path d="M66.9692 26.7609C66.9692 26.7609 66.0622 24.6672 63.1344 24.6672C60.2066 24.6672 57.7676 26.4127 57.9086 28.6475C58.0496 30.8822 56.3718 30.6705 56.0946 32.8347C55.8173 34.9989 56.8606 35.5541 56.9311 36.4621C57.0016 37.3701 55.8173 37.0926 55.0513 38.6263C54.2853 40.1601 53.3078 42.3243 56.588 45.213C59.8683 48.1017 69.1356 47.5654 71.1564 45.8387C73.1772 44.1121 73.1114 40.7435 71.1564 39.8354C69.2014 38.9274 71.0201 39.0686 71.2269 37.0455C71.4337 35.0225 69.6244 34.2556 69.7607 32.6465C69.897 31.0375 70.3857 26.9067 66.9692 26.7609Z" fill="#263238"/>
<path d="M55.5917 40.3435V46.0974C55.5917 46.0974 55.0982 46.7138 54.3604 47.5089C53.583 48.3589 52.7305 49.1367 51.8133 49.833C50.9298 50.4729 50.0416 50.9104 49.3225 50.8211C47.048 50.5247 40.9104 46.9961 40.9104 46.9961L41.9349 44.2814C41.9349 44.2814 48.9043 47.8712 49.3225 47.4995C49.7408 47.1278 54.3134 40.6681 55.5917 40.3435Z" fill="#407BFF"/>
<path opacity="0.2" d="M54.3605 47.5042C53.5831 48.3542 52.7306 49.1321 51.8133 49.8284C51.4797 47.2596 54.4216 44.0933 54.4216 44.0933C54.4216 44.0933 54.4639 45.7258 54.3605 47.5042Z" fill="black"/>
<path d="M67.002 58.9651H60.0985H59.8964H54.9666C54.9901 58.7487 55.0089 58.5558 55.0277 58.4005C55.0465 58.2452 55.0606 58.0618 55.07 57.9583C55.0794 57.8547 55.07 57.8689 55.07 57.8265C55.0678 57.8125 55.0678 57.7982 55.07 57.7842H55.54H56.118L57.6031 57.8406L60.1549 57.9347L62.6691 58.0288L63.2471 58.0523L65.4371 58.1323L66.6402 58.1794C66.7859 58.4617 66.8939 58.711 67.002 58.9651Z" fill="#407BFF"/>
<path opacity="0.4" d="M67.002 58.9651H60.0985H59.8964H54.9666C54.9901 58.7487 55.0089 58.5558 55.0277 58.4005C55.0465 58.2452 55.0606 58.0618 55.07 57.9583C55.0794 57.8547 55.07 57.8689 55.07 57.8265C55.0678 57.8125 55.0678 57.7982 55.07 57.7842H55.54H56.118L57.6031 57.8406L60.1549 57.9394L62.6691 58.0335H63.2471L65.4371 58.1135L66.6402 58.1606C66.7859 58.4617 66.8939 58.711 67.002 58.9651Z" fill="white"/>
<path d="M66.6683 58.965H62.763L62.655 58.9603L60.1125 58.8097L57.5607 58.6639L56.1039 58.5792L55.5305 58.5463L55.0324 58.518H55.0277V58.4004L54.9901 56.5044H54.9995L55.1969 56.5232L55.5963 56.5561L56.1697 56.6032L62.7161 57.1584L63.2894 57.2054L65.3807 57.3795L66.6401 57.4877L66.6542 58.2169V58.2216L66.6683 58.965Z" fill="#263238"/>
<path d="M60.2347 57.0455V57.0643L60.1689 57.9723V57.977L60.1126 58.8098L60.0985 58.965V58.9791L59.8964 58.965L57.5513 58.8004L57.5607 58.6639L57.6171 57.8782L57.6876 56.8949V56.8667L60.2347 57.0455Z" fill="white"/>
<path d="M63.2989 56.8621L63.2895 57.2055L63.2848 57.2667L63.2613 58.09V58.0947L63.2331 58.9651H62.655V58.9604L62.6832 58.0712V58.0665L62.7114 57.229L62.7161 57.1585L62.7255 56.8433L63.2895 56.8621H63.2989Z" fill="#407BFF"/>
<path opacity="0.4" d="M63.2989 56.8621L63.2895 57.2055L63.2848 57.2667L63.2613 58.09V58.0947L63.2331 58.9651H62.655V58.9604L62.6832 58.0712V58.0665L62.7114 57.229L62.7161 57.1585L62.7255 56.8433L63.2895 56.8621H63.2989Z" fill="white"/>
<path d="M56.1838 56.2173L56.1697 56.6031L56.165 56.7913L56.1321 57.8216L56.1039 58.5791L56.0898 58.9649H55.5165L55.5306 58.5462L55.5541 57.8028L55.587 56.7537L55.5964 56.5561L55.6058 56.1985L56.1838 56.2173Z" fill="#407BFF"/>
<path opacity="0.4" d="M56.1838 56.2173L56.1697 56.6031L56.165 56.7913L56.1321 57.8216L56.1039 58.5791L56.0898 58.9649H55.5165L55.5306 58.5462L55.5541 57.8028L55.587 56.7537L55.5964 56.5561L55.6058 56.1985L56.1838 56.2173Z" fill="white"/>
<path d="M55.0136 56.7207L66.6401 57.4876C66.8234 54.5942 67.0349 53.7238 67.9043 50.2517C68.1816 49.1366 68.5293 47.8993 68.9805 46.4549C69.2202 45.6833 69.4833 44.86 69.7794 43.9708C70.0003 43.298 70.2494 42.5593 70.5031 41.8254C68.9248 41.3194 67.3118 40.9294 65.6767 40.6586C63.952 40.3485 62.207 40.1645 60.4556 40.1082C58.1905 40.1082 55.5916 40.3434 55.5916 40.3434C55.5916 40.3434 55.2204 40.4328 54.9854 42.8322C54.7833 45.0905 54.5484 48.5156 55.0136 56.7207Z" fill="#263238"/>
<path opacity="0.4" d="M55.0136 56.7207L66.6401 57.4876C66.8234 54.5942 67.0349 53.7238 67.9043 50.2517C68.1816 49.1366 68.5293 47.8993 68.9805 46.4549C69.2202 45.6833 69.4833 44.86 69.7794 43.9708C70.0003 43.298 70.2494 42.5593 70.5031 41.8254C68.9248 41.3194 67.3118 40.9294 65.6767 40.6586C63.952 40.3485 62.207 40.1645 60.4556 40.1082C58.1905 40.1082 55.5916 40.3434 55.5916 40.3434C55.5916 40.3434 55.2204 40.4328 54.9854 42.8322C54.7833 45.0905 54.5484 48.5156 55.0136 56.7207Z" fill="white"/>
<path d="M61.4143 42.6774C64.281 42.3104 65.141 41.0825 65.141 41.0825C63.3223 39.3652 64.8356 36.3777 64.8356 36.3777L61.3626 37.0364C61.4449 37.5168 61.4904 38.0028 61.4989 38.4901C61.5271 40.5838 60.559 40.6073 60.559 40.6073C59.9904 41.7411 61.4143 42.6774 61.4143 42.6774Z" fill="#EBB376"/>
<path opacity="0.2" d="M61.3626 37.0362C61.4449 37.5166 61.4905 38.0026 61.4989 38.49C62.1897 38.4704 62.8624 38.2647 63.4463 37.8946C64.0302 37.5245 64.5036 37.0037 64.8168 36.387L61.3626 37.0362Z" fill="black"/>
<path d="M63.2894 27.3774C60.2912 27.2128 59.2385 28.7889 58.8484 31.8517C58.3785 35.7049 59.0693 38.4995 62.8665 37.8785C68.0218 37.0316 68.2709 27.6456 63.2894 27.3774Z" fill="#EBB376"/>
<path d="M60.7986 31.7856C60.5348 32.2206 60.2192 32.6219 59.8587 32.9807C59.9402 33.11 60.0556 33.2145 60.1924 33.2825C60.3291 33.3506 60.482 33.3796 60.6342 33.3665L60.7986 31.7856Z" fill="#D58745"/>
<path d="M62.6456 31.6395C62.6456 31.8841 62.7443 32.11 62.9088 32.11C63.0733 32.11 63.2236 31.9312 63.2424 31.6865C63.2612 31.4419 63.1437 31.2161 62.9793 31.2161C62.8148 31.2161 62.6644 31.3948 62.6456 31.6395Z" fill="#263238"/>
<path d="M63.0451 31.235L62.5281 30.981C62.5281 30.981 62.7725 31.4561 63.0451 31.235Z" fill="#263238"/>
<path d="M59.5909 31.348C59.5909 31.5973 59.6896 31.8185 59.8541 31.8185C60.0186 31.8185 60.1643 31.6444 60.1831 31.395C60.2018 31.1457 60.0891 30.9246 59.9246 30.9246C59.7601 30.9246 59.6097 31.1033 59.5909 31.348Z" fill="#263238"/>
<path d="M59.9904 30.9435L59.4829 30.6707C59.4829 30.6707 59.7038 31.1647 59.9904 30.9435Z" fill="#263238"/>
<path d="M64.0648 30.2659C64.0383 30.265 64.0123 30.2582 63.9887 30.246C63.9652 30.2338 63.9446 30.2165 63.9286 30.1953C63.7879 30.0372 63.6134 29.9129 63.4182 29.8314C63.2229 29.75 63.0119 29.7136 62.8007 29.7249C62.7558 29.728 62.7115 29.7131 62.6776 29.6836C62.6437 29.654 62.6229 29.6122 62.6197 29.5673C62.6166 29.5223 62.6315 29.478 62.661 29.444C62.6905 29.4101 62.7323 29.3892 62.7772 29.3861C63.042 29.369 63.3071 29.4137 63.5517 29.5165C63.7964 29.6194 64.0138 29.7777 64.187 29.9789C64.2121 30.0163 64.2221 30.0618 64.2152 30.1063C64.2082 30.1508 64.1847 30.191 64.1494 30.2189C64.1253 30.241 64.0964 30.2572 64.0648 30.2659Z" fill="#2E353A"/>
<path d="M59.4076 29.673C59.378 29.6729 59.349 29.665 59.3235 29.6501C59.2979 29.6353 59.2767 29.614 59.2619 29.5884C59.2503 29.5694 59.2426 29.5482 59.2393 29.5261C59.2361 29.504 59.2374 29.4815 59.2431 29.46C59.2488 29.4384 59.2589 29.4183 59.2726 29.4007C59.2863 29.3831 59.3035 29.3686 59.323 29.3578C59.5206 29.2241 59.746 29.1373 59.9822 29.1039C60.2183 29.0704 60.459 29.0913 60.6859 29.1649C60.7264 29.1844 60.7581 29.2185 60.7747 29.2603C60.7912 29.3022 60.7914 29.3488 60.7752 29.3908C60.7557 29.4314 60.7217 29.4631 60.6799 29.4797C60.638 29.4963 60.5915 29.4964 60.5496 29.4802C60.372 29.4269 60.1846 29.4144 60.0015 29.4437C59.8184 29.4731 59.6443 29.5434 59.4922 29.6495C59.4665 29.6645 59.4373 29.6726 59.4076 29.673Z" fill="#2E353A"/>
<path d="M61.0008 34.5707C61.1245 34.9173 61.2219 35.2728 61.2922 35.634H61.4895C62.3683 35.5964 62.7584 35.2859 62.9323 34.9565C63.0093 34.7917 63.0479 34.6115 63.0451 34.4296C63.0459 34.3265 63.0332 34.2236 63.0075 34.1238C62.4772 34.3917 61.8951 34.541 61.3015 34.5613C61.1183 34.5707 61.0008 34.5707 61.0008 34.5707Z" fill="#263238"/>
<path d="M61.3015 34.552L61.3955 34.8626C62.2226 34.8249 62.8054 34.6838 63.045 34.4203C63.0459 34.3172 63.0332 34.2144 63.0074 34.1145C62.4772 34.3824 61.8951 34.5317 61.3015 34.552Z" fill="white"/>
<path d="M61.4895 35.6245C62.3683 35.5869 62.7584 35.2764 62.9323 34.947C62.5983 34.9681 62.2706 35.0477 61.9642 35.1823C61.764 35.2768 61.5981 35.4314 61.4895 35.6245Z" fill="#DE5753"/>
<path d="M66.2924 32.6134C66.2924 32.6134 65.0236 30.0681 65.3525 28.1768C65.3525 28.1768 59.5392 25.4198 58.9142 31.4701C58.9142 31.4701 58.6275 26.0737 63.7923 26.2337C68.957 26.3937 68.52 33.9495 65.7332 36.0526C65.7238 36.0291 67.0772 34.2036 66.2924 32.6134Z" fill="#263238"/>
<path d="M66.5979 27.0855C66.5979 27.0855 64.2481 24.9919 62.1145 25.3871C59.981 25.7823 60.3475 28.6004 63.1578 29.6684C65.9681 30.7364 66.5509 32.1149 66.5509 32.1149L68.9899 29.9272L66.5979 27.0855Z" fill="#263238"/>
<path d="M67.1101 32.2747L66.8798 32.223C66.8798 32.223 66.9691 31.522 65.1175 30.8727C63.1625 30.1905 60.9444 29.4142 60.6483 27.8475C60.5847 27.6246 60.569 27.3906 60.6022 27.1611C60.6354 26.9317 60.7168 26.7118 60.841 26.5161C60.9172 26.4164 61.0127 26.3329 61.1216 26.2707C61.2306 26.2085 61.3509 26.1688 61.4754 26.1538V26.389C61.3828 26.4006 61.2935 26.4308 61.2127 26.4776C61.132 26.5245 61.0615 26.5872 61.0055 26.6619C60.9022 26.8315 60.8359 27.021 60.8108 27.218C60.7856 27.415 60.8024 27.6151 60.8598 27.8052C61.1277 29.2401 63.28 29.9882 65.1786 30.6516C67.2652 31.3761 67.1148 32.2371 67.1101 32.2747Z" fill="#263238"/>
<path d="M65.7661 33.2203C65.8163 32.8751 66.0002 32.5635 66.2782 32.353C66.5561 32.1426 66.9057 32.0502 67.2512 32.0959C68.1911 32.2465 68.5153 34.1848 66.175 34.5142C65.8413 34.5612 65.6721 34.2272 65.7661 33.2203Z" fill="#EBB376"/>
<path d="M67.8009 41.4019C67.8009 41.4019 64.4361 44.1354 61.3015 44.093C58.167 44.0507 57.072 40.5221 57.072 40.5221C60.6536 39.7036 64.4002 40.0108 67.8009 41.4019Z" fill="#EBB376"/>
<path d="M70.5032 41.8255L70.2071 45.3729L70.1225 46.3891L69.958 48.384L69.1873 57.6477L69.0745 58.965H65.5358C65.5045 58.711 65.4763 58.4475 65.4512 58.1746C65.423 57.9253 65.4042 57.6712 65.3854 57.4077V57.1678C65.235 55.0553 65.2162 52.6042 65.2585 50.2424C65.2585 49.2167 65.3055 48.2052 65.3384 47.2501C65.3384 46.8267 65.3713 46.4127 65.3901 46.0128C65.4089 45.6128 65.4183 45.34 65.4324 45.0247C65.4324 45.0012 65.4324 44.9777 65.4324 44.9542C65.4324 44.893 65.4324 44.8366 65.4324 44.7754C65.4324 44.3614 65.4747 43.9662 65.4935 43.5992C65.4935 43.3781 65.5217 43.1664 65.5311 42.9688C65.5286 42.9485 65.5286 42.9279 65.5311 42.9076C65.5311 42.7617 65.5311 42.6206 65.5311 42.4889C65.5875 41.5479 65.6345 40.9222 65.6486 40.7434C65.6497 40.7262 65.6497 40.7089 65.6486 40.6917C66.8716 40.869 68.0796 41.1379 69.2625 41.4962L69.9627 41.7032L70.2776 41.802L70.3857 41.8349H70.4515L70.5032 41.8255Z" fill="#407BFF"/>
<path opacity="0.4" d="M66.1937 45.213L67.0725 46.5633L65.2397 50.2095C65.3243 45.2224 65.6768 40.6541 65.6768 40.6541L68.473 43.2605L66.1937 45.213Z" fill="white"/>
<path d="M59.4077 40.0801V40.113V40.1412C59.3748 40.2024 59.3184 40.3059 59.2479 40.4518L59.1915 40.5694C59.168 40.6117 59.1492 40.6588 59.1257 40.7058L59.0552 40.8564C58.8578 41.2798 58.5852 41.8632 58.3127 42.6207C58.0401 43.3781 57.6406 44.4555 57.2788 45.6694C57.1284 46.1728 56.978 46.7091 56.8323 47.2831C56.79 47.4289 56.7524 47.5795 56.7148 47.73C56.6303 48.0735 56.5457 48.4311 56.4611 48.798C55.8777 51.3518 55.4555 53.9399 55.1969 56.5468C55.1969 56.6127 55.1969 56.6832 55.1969 56.7491C55.164 57.0973 55.1358 57.4501 55.1076 57.8077C55.1053 57.8217 55.1053 57.836 55.1076 57.85C55.1076 57.8924 55.1076 57.9347 55.1076 57.9818C55.1076 58.1653 55.0841 58.3534 55.07 58.5416L55.0418 58.9886H54.5014L53.7495 58.6404C53.624 55.0795 53.6899 51.5144 53.9469 47.9606C54.0549 46.6197 54.21 45.3118 54.4168 44.1215C54.4967 43.6886 54.5813 43.2652 54.68 42.87C54.8266 42.2149 55.0311 41.5741 55.2909 40.9552C55.3745 40.7604 55.4686 40.5704 55.5729 40.3859H55.7421L58.1858 40.2165L59.4077 40.0801Z" fill="#407BFF"/>
<path opacity="0.4" d="M59.4029 40.0801C59.3278 40.2165 57.7111 43.157 56.4235 48.798L55.8454 45.1659L57.0626 44.0933L55.8454 41.7691L59.4029 40.0801Z" fill="white"/>
<path d="M75.212 52.7828C75.1573 52.9397 75.0672 53.0819 74.9487 53.1983C74.8302 53.3147 74.6866 53.4022 74.5289 53.4541C74.3712 53.506 74.2037 53.5208 74.0393 53.4974C73.875 53.474 73.7183 53.413 73.5813 53.3192C73.0011 52.9945 72.5078 52.5346 72.1432 51.9783C71.8518 51.5596 71.4618 50.9291 71.0576 50.2611C70.1976 48.8167 69.3047 47.2171 69.3047 47.2171L70.5078 41.8113C72.2372 42.6534 75.8605 51.3996 75.212 52.7828Z" fill="#407BFF"/>
<path opacity="0.2" d="M73.5813 53.3334C73.0012 53.0087 72.5079 52.5488 72.1433 51.9925C71.8519 51.5738 71.4619 50.9433 71.0577 50.2752C71.3644 49.7139 71.7049 49.1719 72.0775 48.6521L72.9516 51.1127C72.9516 51.1127 74.4836 51.4609 74.728 52.2607C74.822 52.5665 74.3004 52.9946 73.5813 53.3334Z" fill="black"/>
<path d="M73.5296 46.3045L70.6347 57.3513C70.5979 57.48 70.5169 57.5916 70.406 57.6664C70.2951 57.7413 70.1615 57.7746 70.0285 57.7606L62.3448 56.735C62.2837 56.7285 62.2247 56.7087 62.1721 56.6769C62.1194 56.645 62.0745 56.602 62.0404 56.5508C62.0063 56.4996 61.9839 56.4415 61.9747 56.3806C61.9656 56.3197 61.97 56.2576 61.9876 56.1986L64.8825 45.1518C64.9203 45.024 65.0016 44.9134 65.1124 44.8395C65.2232 44.7656 65.3564 44.7329 65.4888 44.7472L73.1724 45.7681C73.2336 45.7745 73.2926 45.7944 73.3452 45.8262C73.3978 45.858 73.4427 45.9011 73.4768 45.9523C73.511 46.0035 73.5334 46.0616 73.5425 46.1225C73.5516 46.1834 73.5472 46.2455 73.5296 46.3045Z" fill="#263238"/>
<path opacity="0.1" d="M73.5296 46.3043L70.6348 57.3512C70.5979 57.4799 70.5169 57.5915 70.4061 57.6663C70.2952 57.7412 70.1615 57.7745 70.0285 57.7605L62.6973 56.7819C62.6361 56.7753 62.5771 56.7554 62.5243 56.7237C62.4716 56.6919 62.4264 56.649 62.3919 56.5979C62.3575 56.5468 62.3346 56.4888 62.3248 56.428C62.3151 56.3671 62.3187 56.3049 62.3355 56.2455L65.2351 45.1987C65.271 45.0708 65.3513 44.9598 65.4615 44.8857C65.5717 44.8115 65.7047 44.7791 65.8366 44.7941L73.1725 45.768C73.2336 45.7744 73.2926 45.7942 73.3452 45.8261C73.3979 45.8579 73.4428 45.901 73.4769 45.9522C73.511 46.0034 73.5334 46.0615 73.5425 46.1224C73.5517 46.1832 73.5473 46.2454 73.5296 46.3043Z" fill="white"/>
<path opacity="0.3" d="M68.1956 50.5199C68.0064 50.4981 67.8155 50.5443 67.6571 50.6503C67.4988 50.7563 67.3832 50.9152 67.3309 51.0986C67.3064 51.183 67.3006 51.2718 67.314 51.3587C67.3274 51.4456 67.3597 51.5285 67.4085 51.6016C67.4573 51.6747 67.5215 51.7362 67.5966 51.7818C67.6717 51.8274 67.7559 51.8559 67.8432 51.8655C68.0337 51.8873 68.2257 51.8406 68.3849 51.7337C68.5442 51.6268 68.6603 51.4668 68.7126 51.2821C68.625 51.2738 68.5404 51.2463 68.4647 51.2015C68.3891 51.1567 68.3242 51.0957 68.2748 51.0229C68.2254 50.9501 68.1927 50.8672 68.179 50.7803C68.1653 50.6933 68.171 50.6044 68.1956 50.5199Z" fill="white"/>
<path d="M74.1547 55.4033C73.6377 55.6762 72.4676 55.2622 72.1151 55.1211L72.0023 55.0787C72.0023 55.0787 71.3679 52.9945 73.0268 51.8701L73.0644 51.8465C73.5954 51.5642 75.2309 51.9312 75.2826 52.4817C75.4611 54.707 74.7703 55.0787 74.1547 55.4033Z" fill="#407BFF"/>
<path opacity="0.2" d="M73.1443 53.6251C72.9848 54.2281 72.621 54.757 72.1151 55.1212L72.0023 55.0789C72.0023 55.0789 71.3679 52.9946 73.0268 51.8702L73.0644 51.8467C73.2101 52.0349 73.4357 52.5289 73.1443 53.6251Z" fill="black"/>
<path d="M70.7616 50.9858C70.7616 50.9858 71.8284 50.9387 72.3172 50.9858C72.8059 51.0328 72.6555 52.6089 72.6555 52.6089L73.0785 52.8347C73.0785 52.8347 73.4168 53.7757 72.6884 54.2462L72.3078 54.1191C72.2387 54.3454 72.0966 54.5424 71.9036 54.679C71.5981 54.8625 70.1131 54.4438 70.1131 54.4438L70.7616 50.9858Z" fill="#EBB376"/>
<path opacity="0.6" d="M21.4029 5.62671H22.3616V4.34701H21.4029V5.62671Z" fill="white"/>
<path opacity="0.6" d="M19.8379 5.62671H20.7966V3.92358H19.8379V5.62671Z" fill="white"/>
<path opacity="0.6" d="M18.2824 5.62671H19.2411V3.49544H18.2824V5.62671Z" fill="white"/>
<path opacity="0.6" d="M16.7176 5.62671H17.6763V3.06731H16.7176V5.62671Z" fill="white"/>
<path opacity="0.6" d="M72.8341 3.88159H72.2654V5.16129H72.8341V3.88159Z" fill="white"/>
<path opacity="0.6" d="M73.2241 5.62671L77.7497 5.62671V3.41546L73.2241 3.41546V5.62671Z" fill="white"/>
<g opacity="0.1">
<path d="M43.7866 3.53811L23.9924 77.7607L23.7715 78.5982L23.4143 79.9343L23.1888 80.7671L12.8499 119.525V72.6184L32.2259 0.00952148H32.8556C33.1129 0.0138092 33.3631 0.0949082 33.5741 0.242431C33.7851 0.389954 33.9473 0.597179 34.0399 0.83756L34.8059 2.71947C34.8995 2.95846 35.0621 3.16404 35.2731 3.30988C35.4841 3.45573 35.7338 3.5352 35.9902 3.53811H43.7866Z" fill="white"/>
<path d="M81.6081 41.4446V88.3512L69.4365 134.002H56.9264L58.4162 128.417L58.7451 127.189L59.3984 124.738L59.7273 123.51L60.3806 121.054L60.7048 119.831L70.9967 81.2423V81.2376L71.4714 79.4545V79.4498L81.6081 41.4446Z" fill="white"/>
<path d="M50.5539 3.53809L30.8912 77.2996L30.7737 77.7419L29.6975 81.7833L29.58 82.2208L15.7776 134.002H14.7062C14.4658 134.004 14.2274 133.959 14.0047 133.869C13.782 133.778 13.5795 133.644 13.4091 133.475C13.3224 133.391 13.2452 133.298 13.1788 133.197L26.7745 82.2208L26.8919 81.7833L27.9681 77.7419L28.0856 77.2996L47.7342 3.53809H50.5539Z" fill="white"/>
</g>
<path d="M106.151 99.0235H77.5131C76.9379 99.0354 76.3857 99.2521 75.9557 99.6348C75.5257 100.017 75.246 100.541 75.1667 101.112L71.8428 128.294H104.642L107.976 101.106C108.017 100.845 108.001 100.578 107.927 100.324C107.853 100.07 107.725 99.8359 107.551 99.6372C107.377 99.4384 107.161 99.2805 106.919 99.1744C106.678 99.0684 106.415 99.0169 106.151 99.0235Z" fill="#263238"/>
<path opacity="0.6" d="M106.151 99.0235H77.5131C76.9379 99.0354 76.3857 99.2521 75.9557 99.6348C75.5257 100.017 75.246 100.541 75.1667 101.112L71.8428 128.294H104.642L107.976 101.106C108.017 100.845 108.001 100.578 107.927 100.324C107.853 100.07 107.725 99.8359 107.551 99.6372C107.377 99.4384 107.161 99.2805 106.919 99.1744C106.678 99.0684 106.415 99.0169 106.151 99.0235Z" fill="white"/>
<path opacity="0.2" d="M98.2991 128.294H104.642L107.976 101.106C108.018 100.844 108.002 100.577 107.929 100.322C107.856 100.068 107.728 99.8325 107.553 99.6332C107.379 99.4339 107.163 99.2754 106.921 99.1691C106.679 99.0628 106.416 99.0111 106.152 99.0179H103.972C103.397 99.0303 102.845 99.2472 102.415 99.6298C101.985 100.012 101.705 100.536 101.626 101.106L98.2991 128.294Z" fill="black"/>
<path d="M102.804 135.529H100.58L99.673 128.584H103.485L102.804 135.529Z" fill="#263238"/>
<path d="M93.0458 135.529H90.8246L89.9174 128.584H93.7263L93.0458 135.529Z" fill="#263238"/>
<path d="M76.4832 135.529H74.262L73.3548 128.584H77.1637L76.4832 135.529Z" fill="#263238"/>
<path d="M66.7278 135.529H64.504L63.5967 128.584H67.4082L66.7278 135.529Z" fill="#263238"/>
<path opacity="0.2" d="M93.0458 135.529H90.8246L89.9174 128.584H93.7263L93.0458 135.529Z" fill="white"/>
<path opacity="0.2" d="M66.7278 135.529H64.504L63.5967 128.584H67.4082L66.7278 135.529Z" fill="white"/>
<path d="M104.436 128.143L104.235 130.701C104.228 130.791 104.187 130.874 104.121 130.935C104.055 130.996 103.968 131.03 103.878 131.03H63.3751C63.2851 131.03 63.1984 130.996 63.1322 130.935C63.0659 130.874 63.0251 130.791 63.0179 130.701L62.8172 128.143H104.436Z" fill="#263238"/>
<path opacity="0.2" d="M94.79 128.143L94.5892 130.701C94.582 130.791 94.5412 130.874 94.475 130.935C94.4088 130.996 94.322 131.03 94.2321 131.03H63.3751C63.2851 131.03 63.1984 130.996 63.1322 130.935C63.0659 130.874 63.0251 130.791 63.0179 130.701L62.8172 128.143H94.79Z" fill="white"/>
<path d="M89.4456 122.244H76.9318L76.0219 111.82C75.9358 110.823 75.4794 109.895 74.7428 109.218C74.0063 108.542 73.0431 108.166 72.0436 108.166H58.7164C58.4837 108.166 58.2536 108.215 58.0407 108.309C57.8278 108.403 57.6367 108.54 57.4796 108.712C57.3225 108.883 57.2027 109.086 57.1279 109.307C57.0532 109.527 57.025 109.761 57.0452 109.993L57.2538 112.392C57.2875 112.774 57.4506 113.133 57.7161 113.41C57.9816 113.686 58.3336 113.864 58.7137 113.913L59.1856 113.973C59.4692 114.009 59.7319 114.141 59.9302 114.347C60.1284 114.553 60.2502 114.821 60.2754 115.106L61.4251 128.255C61.4655 128.717 61.6774 129.148 62.0191 129.461C62.3608 129.775 62.8074 129.949 63.2709 129.949H89.4456V122.244Z" fill="#263238"/>
<path opacity="0.6" d="M89.4456 122.244H76.9318L76.0219 111.82C75.9358 110.823 75.4794 109.895 74.7428 109.218C74.0063 108.542 73.0431 108.166 72.0436 108.166H58.7164C58.4837 108.166 58.2536 108.215 58.0407 108.309C57.8278 108.403 57.6367 108.54 57.4796 108.712C57.3225 108.883 57.2027 109.086 57.1279 109.307C57.0532 109.527 57.025 109.761 57.0452 109.993L57.2538 112.392C57.2875 112.774 57.4506 113.133 57.7161 113.41C57.9816 113.686 58.3336 113.864 58.7137 113.913L59.1856 113.973C59.4692 114.009 59.7319 114.141 59.9302 114.347C60.1284 114.553 60.2502 114.821 60.2754 115.106L61.4251 128.255C61.4655 128.717 61.6774 129.148 62.0191 129.461C62.3608 129.775 62.8074 129.949 63.2709 129.949H89.4456V122.244Z" fill="white"/>
<path opacity="0.2" d="M66.7929 111.82C66.7074 110.823 66.2516 109.895 65.5154 109.218C64.7793 108.542 63.8165 108.166 62.8172 108.166H72.0435C73.0431 108.166 74.0062 108.542 74.7428 109.218C75.4793 109.895 75.9357 110.823 76.0219 111.82L76.9317 122.244H67.7054L66.7929 111.82Z" fill="black"/>
<path opacity="0.1" d="M89.4456 122.244H67.7054L66.793 111.82C66.7075 110.823 66.2516 109.895 65.5155 109.218C64.7794 108.542 63.8165 108.166 62.8172 108.166H58.7164C58.4837 108.166 58.2536 108.215 58.0407 108.309C57.8278 108.403 57.6367 108.54 57.4796 108.712C57.3225 108.883 57.2027 109.086 57.1279 109.307C57.0532 109.527 57.025 109.761 57.0452 109.993L57.2538 112.392C57.2875 112.774 57.4506 113.133 57.7161 113.41C57.9816 113.686 58.3336 113.864 58.7137 113.913L59.1856 113.973C59.4692 114.009 59.7319 114.141 59.9302 114.347C60.1284 114.553 60.2502 114.821 60.2754 115.106L61.4251 128.255C61.4655 128.717 61.6774 129.148 62.0191 129.461C62.3608 129.775 62.8074 129.949 63.2709 129.949H89.4456V122.244Z" fill="white"/>
<path d="M87.2868 101.44C86.3359 101.155 85.4236 100.755 84.5703 100.247C84.3243 100.094 84.1013 99.9073 83.9081 99.6914C83.8599 99.6368 83.8163 99.5783 83.7778 99.5165C84.7085 96.2645 85.6496 94.8394 87.6205 94.6907C89.1248 96.6273 87.2868 101.44 87.2868 101.44Z" fill="#263238"/>
<path opacity="0.2" d="M84.5704 100.247C84.3244 100.095 84.1014 99.9074 83.9082 99.6915C84.0716 99.3501 84.2736 99.0287 84.5104 98.7336C84.7269 99.2111 84.7484 99.7543 84.5704 100.247Z" fill="black"/>
<path d="M50.9811 134.276L49.5655 132.454L53.8671 129.205L55.2828 131.024L50.9811 134.276Z" fill="#FFC3BD"/>
<path opacity="0.2" d="M55.2828 131.024L53.8646 129.205L51.6486 130.881L53.0668 132.702L55.2828 131.024Z" fill="black"/>
<path d="M50.3894 131.752L52.5402 133.219C52.5776 133.244 52.6046 133.281 52.6161 133.325C52.6277 133.368 52.6229 133.414 52.6027 133.454L51.6877 135.323C51.6631 135.369 51.629 135.41 51.5876 135.442C51.5462 135.475 51.4985 135.498 51.4476 135.51C51.3966 135.523 51.3436 135.525 51.292 135.515C51.2404 135.506 51.1913 135.486 51.148 135.456C50.4076 134.934 50.0765 134.639 49.1328 133.994C48.5514 133.598 47.2062 132.804 46.4032 132.256C45.6002 131.708 46.0982 130.883 46.4814 131.04C48.1994 131.742 49.1953 131.732 49.9879 131.651C50.1294 131.637 50.2712 131.673 50.3894 131.752Z" fill="#263238"/>
<path d="M49.211 131.197C49.2056 131.227 49.2056 131.258 49.211 131.288C49.2788 131.57 49.7689 131.797 50.0531 131.907C50.0604 131.912 50.069 131.914 50.0779 131.914C50.0867 131.914 50.0953 131.912 50.1026 131.907C50.107 131.899 50.1093 131.891 50.1093 131.882C50.1093 131.873 50.107 131.865 50.1026 131.857C50.0661 131.771 49.7428 131.001 49.4561 130.951C49.4248 130.946 49.3927 130.949 49.3629 130.96C49.3332 130.971 49.3068 130.99 49.2866 131.014C49.2449 131.067 49.2187 131.13 49.211 131.197ZM49.9931 131.781C49.5995 131.617 49.3466 131.426 49.3075 131.259C49.3 131.223 49.3021 131.186 49.3136 131.15C49.325 131.115 49.3453 131.083 49.3726 131.058C49.382 131.045 49.3952 131.034 49.4105 131.028C49.4258 131.022 49.4426 131.021 49.4587 131.024C49.6333 131.064 49.8732 131.515 49.9931 131.781Z" fill="#407BFF"/>
<path d="M49.9358 131.15C49.9122 131.399 49.947 131.65 50.0375 131.883C50.0404 131.891 50.0454 131.897 50.0519 131.902C50.0584 131.906 50.066 131.909 50.074 131.909C50.0819 131.91 50.09 131.909 50.0973 131.906C50.1047 131.903 50.111 131.898 50.1157 131.891C50.1313 131.868 50.5041 131.317 50.4207 130.993C50.4115 130.953 50.3937 130.916 50.3684 130.884C50.3432 130.852 50.3112 130.826 50.2747 130.808C50.2401 130.785 50.1989 130.775 50.1576 130.779C50.1164 130.782 50.0777 130.8 50.0479 130.829C49.9758 130.92 49.9363 131.033 49.9358 131.15ZM50.087 131.763C50.0036 131.502 49.9827 131.019 50.1105 130.894C50.1313 130.873 50.1652 130.855 50.233 130.894C50.258 130.907 50.2798 130.925 50.297 130.947C50.3141 130.969 50.3261 130.995 50.3321 131.022C50.3894 131.236 50.1835 131.607 50.087 131.763Z" fill="#407BFF"/>
<path d="M88.2437 96.7291L88.2776 96.8701L88.3011 96.9797L88.3402 97.1859C88.3637 97.3216 88.3819 97.4469 88.3976 97.5852C88.4262 97.8462 88.4419 98.1072 88.4471 98.3682C88.4552 98.8927 88.416 99.4168 88.3298 99.9342C88.1575 100.978 87.7857 101.978 87.2348 102.881C86.959 103.327 86.6431 103.747 86.2911 104.136C86.1164 104.329 85.9287 104.507 85.7436 104.682L85.4542 104.943C85.3499 105.026 85.2378 105.105 85.1231 105.183C84.614 105.528 84.0323 105.75 83.4233 105.833C83.0645 105.876 82.7005 105.841 82.357 105.728C82.1803 105.664 82.0128 105.576 81.8591 105.467C81.782 105.413 81.7088 105.354 81.6401 105.29L81.5384 105.185L81.4133 105.037C81.2889 104.897 81.2237 104.714 81.2314 104.527C81.2392 104.341 81.3193 104.164 81.4548 104.035C81.5903 103.906 81.7705 103.835 81.9574 103.837C82.1443 103.839 82.3232 103.913 82.4561 104.045C82.4326 104.014 82.4561 104.021 82.4561 104.014H82.4874L82.5578 103.995C82.6023 103.982 82.6451 103.963 82.6855 103.94C82.7696 103.894 82.8498 103.841 82.9254 103.781C83.1447 103.607 83.3472 103.412 83.5302 103.199L83.6971 103.009L83.8874 102.81C84.0099 102.672 84.1298 102.536 84.2367 102.393C84.4554 102.113 84.6491 101.814 84.8155 101.5C85.1411 100.875 85.358 100.199 85.4568 99.5009C85.506 99.1482 85.5278 98.7922 85.522 98.4361C85.522 98.2586 85.522 98.0811 85.4933 97.9141L85.4672 97.6531L85.4386 97.4625L85.4125 97.2929C85.3566 96.9237 85.4455 96.5472 85.6606 96.2422C85.8757 95.9371 86.2003 95.7272 86.5665 95.6564C86.9327 95.5856 87.3121 95.6593 87.6252 95.8622C87.9383 96.065 88.1609 96.3813 88.2464 96.7448L88.2437 96.7291Z" fill="#CE7A63"/>
<path d="M84.6354 97.9663C84.339 99.239 84.129 100.53 84.0071 101.832C83.7829 103.721 83.6213 105.593 83.4049 108.717L92.8555 110.215C93.0875 107.519 93.8774 104.53 96.5236 98.8015C96.6731 98.5038 96.7543 98.1765 96.7611 97.8434C96.7679 97.5103 96.7002 97.1799 96.563 96.8764C96.4258 96.5729 96.2225 96.3039 95.968 96.0892C95.7136 95.8745 95.4144 95.7195 95.0923 95.6356C94.7221 95.539 94.3311 95.4424 93.927 95.3589C92.5147 95.0296 91.0806 94.8028 89.6358 94.6803C89.1613 94.6464 88.6685 94.6307 88.1967 94.6203C86.4917 94.5811 84.9483 96.3089 84.6354 97.9663Z" fill="#263238"/>
<path d="M93.3144 90.4756C92.9364 91.8745 92.4697 94.4401 93.3769 95.3745C93.3769 95.3745 92.0526 95.1735 89.2396 96.9118C88.4262 95.7425 89.031 95.3693 89.031 95.3693C90.6187 94.9987 90.6656 93.8399 90.4753 92.7593L93.3144 90.4756Z" fill="#CE7A63"/>
<path opacity="0.2" d="M92.1594 91.4048L90.4805 92.7515C90.5279 93.0099 90.5532 93.2718 90.5561 93.5345C91.1583 93.4484 92.0264 92.7959 92.1359 92.1721C92.1919 91.9201 92.1999 91.6598 92.1594 91.4048Z" fill="black"/>
<path d="M88.679 89.1056C88.7077 89.8233 88.2749 90.4105 87.717 90.4445C87.1591 90.4784 86.6742 89.9016 86.6507 89.1838C86.6273 88.4661 87.0548 87.8789 87.6153 87.8449C88.1758 87.811 88.6529 88.3878 88.679 89.1056Z" fill="#407BFF"/>
<path d="M89.4038 89.1185C89.4377 90.0372 88.8824 90.8019 88.1733 90.8307C87.4642 90.8594 86.8489 90.1364 86.815 89.2203C86.7811 88.3042 87.3365 87.5369 88.0456 87.5082C88.7547 87.4794 89.3543 88.2024 89.4038 89.1185Z" fill="#263238"/>
<path opacity="0.2" d="M89.4038 89.1185C89.4377 90.0372 88.8824 90.8019 88.1733 90.8307C87.4642 90.8594 86.8489 90.1364 86.815 89.2203C86.7811 88.3042 87.3365 87.5369 88.0456 87.5082C88.7547 87.4794 89.3543 88.2024 89.4038 89.1185Z" fill="black"/>
<path d="M93.3457 84.8381C93.3457 84.8381 94.0417 82.9198 95.6034 83.2982C97.165 83.6767 97.5404 85.1252 97.019 86.8556C96.4976 88.586 97.1989 88.9436 97.1989 88.9436C97.1989 88.9436 95.3739 89.2438 95.2149 87.1506C95.0559 85.0573 93.9792 85.7098 93.9792 85.7098L93.3457 84.8381Z" fill="#263238"/>
<path d="M93.2518 87.0462C93.4708 89.3377 93.609 90.2982 92.673 91.6972C91.2626 93.8034 88.4653 93.7121 87.5841 91.5693C86.802 89.6405 86.5647 86.2214 88.593 84.859C89.0184 84.5507 89.5185 84.362 90.0414 84.3126C90.5642 84.2632 91.0908 84.3549 91.5662 84.5781C92.0417 84.8013 92.4489 85.148 92.7453 85.582C93.0417 86.016 93.2166 86.5216 93.2518 87.0462Z" fill="#CE7A63"/>
<path d="M90.5848 88.2101C90.6109 88.4006 90.5353 88.5755 90.4153 88.6016C90.2954 88.6277 90.1781 88.492 90.1546 88.3015C90.1312 88.1109 90.2016 87.9334 90.3215 87.91C90.4414 87.8865 90.5587 88.017 90.5848 88.2101Z" fill="#263238"/>
<path d="M88.2333 88.6305C88.2593 88.821 88.1837 88.9959 88.0638 89.022C87.9439 89.0481 87.8266 88.9124 87.8031 88.7219C87.7796 88.5313 87.8527 88.3539 87.9726 88.3304C88.0925 88.3069 88.2072 88.4374 88.2333 88.6305Z" fill="#263238"/>
<path d="M88.0221 88.3277L87.5633 88.2886C87.5633 88.2886 87.8396 88.6018 88.0221 88.3277Z" fill="#263238"/>
<path d="M89.0049 88.8992C88.9026 89.3715 88.7396 89.8286 88.52 90.259C88.6247 90.3104 88.7397 90.3371 88.8563 90.3371C88.9729 90.3371 89.0879 90.3104 89.1926 90.259L89.0049 88.8992Z" fill="#BA4D3C"/>
<path d="M90.3476 90.734C90.249 90.7741 90.1469 90.8047 90.0425 90.8254C90.0356 90.8269 90.0285 90.8269 90.0216 90.8254C90.0147 90.8239 90.0082 90.821 90.0025 90.8168C89.9968 90.8126 89.9921 90.8072 89.9887 90.8011C89.9852 90.7949 89.9831 90.788 89.9826 90.781C89.9801 90.7662 89.9834 90.751 89.9916 90.7384C89.9998 90.7259 90.0124 90.7169 90.0269 90.7131C90.262 90.6651 90.4833 90.5646 90.6742 90.4191C90.8651 90.2736 91.0208 90.0868 91.1297 89.8727C91.135 89.8586 91.1456 89.8471 91.1592 89.8408C91.1729 89.8344 91.1885 89.8337 91.2027 89.8388C91.216 89.8455 91.2262 89.8572 91.2311 89.8713C91.2359 89.8855 91.2351 89.901 91.2287 89.9145C91.046 90.2871 90.7322 90.5789 90.3476 90.734Z" fill="#263238"/>
<path d="M90.7647 86.9364C90.7514 86.9435 90.7366 86.9472 90.7216 86.9472C90.7066 86.9472 90.6919 86.9435 90.6786 86.9364C90.5641 86.8611 90.4325 86.8156 90.2958 86.8042C90.1592 86.7928 90.022 86.8159 89.8965 86.8712C89.8838 86.8777 89.8698 86.8815 89.8555 86.8824C89.8412 86.8833 89.8269 86.8812 89.8135 86.8763C89.8 86.8714 89.7877 86.8638 89.7773 86.8539C89.767 86.8441 89.7587 86.8322 89.7531 86.819C89.7417 86.7911 89.741 86.7599 89.7511 86.7315C89.7612 86.7031 89.7814 86.6795 89.8079 86.665C89.9657 86.5942 90.1386 86.5638 90.3111 86.5766C90.4836 86.5893 90.6502 86.6448 90.7959 86.7381C90.8204 86.755 90.8374 86.7808 90.8432 86.81C90.8491 86.8393 90.8433 86.8696 90.8272 86.8947C90.8116 86.9152 90.7896 86.93 90.7647 86.9364Z" fill="#263238"/>
<path d="M87.0992 87.5732C87.0733 87.5838 87.0442 87.5838 87.0183 87.5732C86.9914 87.5607 86.9704 87.5381 86.9597 87.5104C86.949 87.4827 86.9494 87.4518 86.961 87.4244C87.0223 87.2537 87.1218 87.0993 87.2519 86.9731C87.3821 86.8468 87.5394 86.7521 87.7118 86.6962C87.7259 86.6932 87.7404 86.6931 87.7545 86.6958C87.7686 86.6985 87.7821 86.7041 87.794 86.7121C87.8059 86.7201 87.8161 86.7305 87.8239 86.7426C87.8318 86.7547 87.8371 86.7682 87.8396 86.7824C87.8445 86.8123 87.8382 86.843 87.8218 86.8686C87.8054 86.8941 87.7802 86.9127 87.7509 86.9207C87.6152 86.9669 87.4916 87.0432 87.3896 87.144C87.2875 87.2448 87.2096 87.3675 87.1617 87.5027C87.1564 87.518 87.1482 87.5321 87.1375 87.5442C87.1267 87.5563 87.1137 87.5662 87.0992 87.5732Z" fill="#263238"/>
<path d="M90.3737 87.9073L89.9253 87.8682C89.9253 87.8682 90.186 88.1788 90.3737 87.9073Z" fill="#263238"/>
<path d="M90.8768 85.2897C90.9813 85.7795 91.1943 86.2395 91.5003 86.6357C91.8062 87.0319 92.1973 87.3542 92.6444 87.5787L92.9338 89.3065L93.2884 90.3636C93.2884 90.3636 95.0794 89.9825 94.7718 86.9706C94.5632 84.9452 93.6116 84.3606 92.9468 84.1857C92.5782 84.0985 92.2331 83.932 91.9353 83.6977C91.5025 83.3453 90.6318 83.0008 89.0258 83.6063C86.656 84.5015 87.3391 86.4956 87.3391 86.4956C87.6193 86.0416 88.0082 85.6649 88.4705 85.3994C89.1223 85.0653 90.2642 84.8904 90.8768 85.2897Z" fill="#263238"/>
<path d="M94.2763 88.7531C94.118 89.2148 93.7833 89.5949 93.3456 89.8101C92.7773 90.0711 92.4149 89.5308 92.5061 88.8966C92.587 88.325 92.9806 87.5003 93.5802 87.5081C94.1799 87.5159 94.4823 88.1684 94.2763 88.7531Z" fill="#CE7A63"/>
<path d="M94.4068 88.8573C94.4407 89.7734 93.8854 90.5407 93.1763 90.5668C92.4672 90.5929 91.8519 89.8752 91.818 88.9565C91.7841 88.0377 92.3394 87.2756 93.0485 87.2469C93.7576 87.2182 94.3703 87.9412 94.4068 88.8573Z" fill="#263238"/>
<path opacity="0.2" d="M94.4068 88.8573C94.4407 89.7734 93.8854 90.5407 93.1763 90.5668C92.4672 90.5929 91.8519 89.8752 91.818 88.9565C91.7841 88.0377 92.3394 87.2756 93.0485 87.2469C93.7576 87.2182 94.3703 87.9412 94.4068 88.8573Z" fill="black"/>
<path d="M93.2857 87.7976C93.2857 87.7976 93.304 84.7021 92.2429 83.9009L93.0589 84.2428C93.6828 85.353 93.9461 86.63 93.8123 87.8968L93.2857 87.7976Z" fill="#407BFF"/>
<path opacity="0.2" d="M93.2857 87.7976C93.2857 87.7976 93.304 84.7021 92.2429 83.9009L93.0589 84.2428C93.6828 85.353 93.9461 86.63 93.8123 87.8968L93.2857 87.7976Z" fill="black"/>
<path d="M94.4954 88.9254C94.5241 89.6431 94.0939 90.2304 93.5334 90.2643C92.9729 90.2982 92.4906 89.7214 92.4671 89.0037C92.4437 88.2859 92.8712 87.6987 93.4317 87.6648C93.9923 87.6308 94.4693 88.2076 94.4954 88.9254Z" fill="#407BFF"/>
<path d="M80.2269 103.458L80.326 104.074C80.3439 104.188 80.3886 104.296 80.4566 104.39C80.5247 104.483 80.6139 104.559 80.7171 104.611L81.6999 105.099C81.8932 105.196 82.1067 105.244 82.3226 105.241C82.5385 105.238 82.7505 105.183 82.9409 105.081L83.1807 104.953C83.0895 103.909 82.2266 102.865 82.2266 102.865L82.0154 102.539C81.974 102.47 81.9194 102.411 81.8547 102.363C81.79 102.316 81.7165 102.282 81.6386 102.264C81.5606 102.245 81.4798 102.243 81.4008 102.256C81.3218 102.269 81.2463 102.298 81.1785 102.341L80.5268 102.753C80.4138 102.828 80.3252 102.935 80.2719 103.061C80.2187 103.186 80.2031 103.324 80.2269 103.458Z" fill="#CE7A63"/>
<path d="M91.711 121.146C88.0612 123.596 79.8281 122.075 72.3615 120.483C71.3942 121.791 70.2611 122.969 68.9906 123.985C65.419 126.927 60.7263 129.284 57.6526 130.656C55.7338 131.518 54.4407 131.993 54.4407 131.993L52.4489 129.521C52.4489 129.521 56.7506 126.17 61.5058 122.516C64.7385 120.029 68.1798 117.398 70.6148 115.586C70.749 115.49 70.899 115.417 71.058 115.372H71.0711C71.3072 115.311 71.5494 115.277 71.7932 115.271L72.3146 115.237L72.7291 115.211C75.3049 115.038 80.9361 114.738 80.9361 114.738L83.564 108.644L93.111 109.247C93.111 109.247 94.8786 119.021 91.711 121.146Z" fill="#407BFF"/>
<path d="M51.5522 129.704L54.0732 132.817L55.4497 131.99L52.7045 128.68L51.5522 129.704Z" fill="#263238"/>
<path opacity="0.2" d="M73.6651 115.25C72.2595 118.237 70.6992 121.148 68.9907 123.972C65.419 126.927 60.7263 129.284 57.6526 130.656C58.5355 127.77 59.8345 125.027 61.5085 122.516C61.9777 121.814 62.4939 121.104 63.0727 120.399C65.8596 116.933 68.949 115.751 71.0711 115.372H71.0841C71.3448 115.325 71.5795 115.294 71.8063 115.271C72.1582 115.231 72.4711 115.216 72.7344 115.211C73.0452 115.201 73.3563 115.214 73.6651 115.25Z" fill="black"/>
<path d="M59.939 132.984L57.8221 132.071L60.0329 127.151L62.1498 128.062L59.939 132.984Z" fill="#FFC3BD"/>
<path opacity="0.2" d="M62.1497 128.064L60.0302 127.151L58.8935 129.688L61.0104 130.601L62.1497 128.064Z" fill="black"/>
<path d="M58.2078 131.063L60.7966 131.324C60.8412 131.328 60.883 131.348 60.9141 131.38C60.9453 131.412 60.9637 131.455 60.9661 131.499L61.0626 133.587C61.0628 133.64 61.0521 133.691 61.0311 133.739C61.0102 133.787 60.9794 133.83 60.9409 133.866C60.9024 133.901 60.8569 133.928 60.8074 133.945C60.7578 133.962 60.7053 133.968 60.6533 133.963C59.7512 133.859 59.3211 133.765 58.1818 133.652C57.4805 133.585 55.9215 133.538 54.9543 133.444C53.987 133.35 54.0288 132.4 54.4328 132.34C56.2786 132.126 57.1442 131.638 57.8038 131.186C57.9195 131.098 58.0628 131.055 58.2078 131.063Z" fill="#263238"/>
<path d="M56.9095 131.139C56.9215 131.167 56.9383 131.193 56.9591 131.215C57.152 131.431 57.6917 131.392 58.0019 131.35C58.0106 131.349 58.0188 131.346 58.0257 131.34C58.0326 131.335 58.0378 131.327 58.041 131.319C58.0425 131.31 58.0418 131.301 58.0391 131.292C58.0364 131.284 58.0317 131.276 58.0254 131.27C57.9498 131.212 57.298 130.693 57.0243 130.787C56.9941 130.797 56.9672 130.815 56.9466 130.84C56.926 130.864 56.9123 130.894 56.9069 130.925C56.8827 130.994 56.8836 131.07 56.9095 131.139ZM57.8715 131.275C57.4492 131.319 57.1364 131.275 57.0269 131.155C57.0023 131.127 56.9857 131.092 56.9788 131.056C56.9719 131.019 56.975 130.981 56.9878 130.946C56.989 130.929 56.9951 130.914 57.0053 130.901C57.0156 130.888 57.0294 130.878 57.0451 130.873C57.2146 130.815 57.6421 131.1 57.8715 131.275Z" fill="#407BFF"/>
<path d="M57.5197 130.75C57.6207 130.979 57.7722 131.181 57.9629 131.343C57.9696 131.347 57.9773 131.349 57.985 131.349C57.9928 131.349 58.0005 131.347 58.0072 131.343C58.0142 131.339 58.0203 131.334 58.0249 131.328C58.0294 131.321 58.0323 131.314 58.0333 131.306C58.0333 131.277 58.0984 130.617 57.8716 130.374C57.8446 130.343 57.8108 130.319 57.7729 130.302C57.735 130.286 57.6939 130.279 57.6526 130.28C57.6114 130.277 57.5703 130.288 57.5361 130.311C57.5019 130.334 57.4768 130.369 57.4649 130.408C57.4438 130.525 57.4631 130.646 57.5197 130.75ZM57.9472 131.215C57.7517 131.027 57.4988 130.612 57.551 130.432C57.551 130.403 57.5796 130.372 57.6552 130.369C57.6832 130.368 57.7111 130.372 57.7368 130.383C57.7626 130.394 57.7855 130.411 57.8038 130.432C57.9577 130.607 57.9577 131.03 57.9472 131.215Z" fill="#407BFF"/>
<path opacity="0.3" d="M91.711 121.146C88.0612 123.596 79.8281 122.075 72.3615 120.483C71.3942 121.791 70.2611 122.969 68.9906 123.985C65.419 126.927 60.7263 129.284 57.6526 130.656C55.7338 131.518 54.4407 131.993 54.4407 131.993L52.4489 129.521C52.4489 129.521 56.7506 126.17 61.5058 122.516C64.7385 120.029 68.1798 117.398 70.6148 115.586C70.749 115.49 70.899 115.417 71.058 115.372H71.0711C71.3072 115.311 71.5494 115.277 71.7932 115.271L72.3146 115.237L72.7291 115.211C75.3049 115.038 80.9361 114.738 80.9361 114.738L83.564 108.644L93.111 109.247C93.111 109.247 94.8786 119.021 91.711 121.146Z" fill="black"/>
<path d="M92.2012 112.225C92.2012 112.225 77.925 109.745 72.5571 109.972C67.3091 110.194 58.9222 128.255 58.9222 128.255L61.9464 129.56C68.3232 123.317 72.0148 118.734 73.6651 115.258C85.9547 120.88 90.5796 120.833 90.5796 120.833L92.2012 112.225Z" fill="#407BFF"/>
<path opacity="0.3" d="M92.2012 112.225C92.2012 112.225 77.925 109.745 72.5571 109.972C67.3091 110.194 58.9222 128.255 58.9222 128.255L61.9464 129.56C68.3232 123.317 72.0148 118.734 73.6651 115.258C85.9547 120.88 90.5796 120.833 90.5796 120.833L92.2012 112.225Z" fill="black"/>
<path d="M58.2418 128.701L61.949 130.22L62.7572 128.829L58.7606 127.25L58.2418 128.701Z" fill="#263238"/>
<path opacity="0.2" d="M73.6651 115.25C73.6651 115.25 74.1474 114.101 74.9686 113.968C75.7899 113.835 82.6255 114.407 82.6255 114.407L73.6651 115.25Z" fill="black"/>
<path d="M84.4243 104.703L83.3815 99.8166C83.3557 99.7107 83.2962 99.6161 83.2121 99.5469C83.1279 99.4777 83.0236 99.4378 82.9149 99.433H80.4277C80.38 99.4307 80.3325 99.4398 80.289 99.4596C80.2455 99.4794 80.2074 99.5093 80.1778 99.5468C80.1482 99.5844 80.128 99.6284 80.1189 99.6754C80.1098 99.7223 80.112 99.7707 80.1253 99.8166L81.1681 104.703C81.194 104.809 81.2538 104.904 81.3384 104.974C81.423 105.044 81.5279 105.084 81.6374 105.089H84.1245C84.1721 105.09 84.2194 105.08 84.2625 105.06C84.3056 105.04 84.3433 105.01 84.3725 104.972C84.4017 104.934 84.4216 104.89 84.4307 104.843C84.4397 104.797 84.4375 104.748 84.4243 104.703Z" fill="#407BFF"/>
<path opacity="0.2" d="M83.8899 105.081H81.6349C81.5254 105.076 81.4205 105.036 81.3358 104.966C81.2512 104.897 81.1915 104.801 81.1656 104.695L80.1228 99.8088C80.1094 99.7629 80.1072 99.7145 80.1164 99.6676C80.1255 99.6206 80.1457 99.5766 80.1753 99.539C80.2049 99.5015 80.243 99.4716 80.2864 99.4518C80.3299 99.432 80.3775 99.4228 80.4252 99.4252H82.6803C82.7891 99.43 82.8933 99.4699 82.9775 99.5391C83.0616 99.6083 83.1211 99.7029 83.1469 99.8088L84.1898 104.703C84.2015 104.748 84.2025 104.795 84.1928 104.841C84.1831 104.887 84.163 104.93 84.1339 104.966C84.1049 105.003 84.0677 105.033 84.0254 105.052C83.983 105.072 83.9367 105.082 83.8899 105.081Z" fill="black"/>
<path d="M83.3738 102.202L84.0699 102.048C84.1989 102.019 84.3331 102.021 84.4611 102.055C84.5891 102.088 84.7071 102.152 84.805 102.241L85.7384 103.082C85.9225 103.247 86.0643 103.454 86.1518 103.686C86.2394 103.918 86.2701 104.167 86.2415 104.413L86.205 104.721C85.0684 105.058 83.598 104.58 83.598 104.58L83.1626 104.491C83.0725 104.476 82.9863 104.443 82.9091 104.394C82.8319 104.345 82.7652 104.281 82.7128 104.206C82.6604 104.131 82.6234 104.046 82.604 103.957C82.5845 103.867 82.583 103.775 82.5995 103.685L82.7637 102.816C82.7958 102.665 82.8704 102.528 82.9786 102.419C83.0867 102.31 83.224 102.235 83.3738 102.202Z" fill="#CE7A63"/>
<path opacity="0.6" d="M90.2641 100.527L90.8377 100.005C90.8541 99.9898 90.8741 99.9792 90.8957 99.9738C90.9174 99.9685 90.94 99.9687 90.9616 99.9744C90.9831 99.9801 91.0029 99.9912 91.019 100.007C91.0352 100.022 91.0473 100.041 91.0541 100.062L91.2679 100.759C91.2749 100.781 91.276 100.805 91.2711 100.827C91.2661 100.85 91.2553 100.871 91.2396 100.888C91.224 100.905 91.2041 100.917 91.182 100.924C91.16 100.931 91.1365 100.932 91.114 100.926L90.3319 100.764C90.3048 100.763 90.2787 100.753 90.2574 100.736C90.2361 100.719 90.2206 100.696 90.2132 100.67C90.2057 100.644 90.2066 100.616 90.2157 100.59C90.2249 100.565 90.2418 100.542 90.2641 100.527Z" fill="white"/>
<path opacity="0.2" d="M92.9416 100.644C92.9416 100.644 91.9118 102.902 92.9416 103.677C93.9714 104.452 94.8109 100.879 92.9416 100.644Z" fill="black"/>
<path d="M96.667 100.503C96.581 100.874 96.5002 101.184 96.4063 101.516C96.3125 101.847 96.2056 102.163 96.0987 102.484C95.878 103.123 95.6277 103.753 95.3479 104.376C95.065 105.002 94.7491 105.612 94.4015 106.203C94.043 106.814 93.6404 107.397 93.1971 107.949L93.1632 107.991C93.1173 108.049 93.0658 108.103 93.0093 108.15C92.6883 108.415 92.2985 108.582 91.8857 108.633C91.5923 108.67 91.2949 108.66 91.0045 108.604C90.5735 108.519 90.1549 108.379 89.7584 108.189C89.0853 107.87 88.443 107.489 87.8396 107.052C87.2608 106.634 86.7133 106.193 86.1867 105.731C85.6601 105.269 85.1595 104.799 84.672 104.28C84.6064 104.211 84.555 104.13 84.5209 104.041C84.4868 103.952 84.4706 103.857 84.4733 103.762C84.476 103.667 84.4974 103.573 84.5365 103.487C84.5755 103.4 84.6313 103.322 84.7007 103.257C84.8176 103.147 84.9674 103.079 85.1267 103.064C85.286 103.048 85.446 103.086 85.5819 103.17H85.5975C86.1502 103.52 86.7185 103.886 87.2869 104.214C87.8552 104.543 88.421 104.885 88.9919 105.18C89.5303 105.474 90.0908 105.725 90.6682 105.932C90.8923 106.015 91.1263 106.069 91.3643 106.091C91.4503 106.091 91.5077 106.091 91.4973 106.075C91.422 106.081 91.3506 106.112 91.2939 106.162L91.1036 106.365C91.4201 105.881 91.7099 105.38 91.9717 104.864C92.2325 104.342 92.4775 103.792 92.7017 103.233C92.9259 102.675 93.1345 102.106 93.3248 101.529C93.4239 101.242 93.5177 100.952 93.6038 100.662C93.6898 100.373 93.781 100.07 93.8514 99.8193V99.7749C93.9551 99.4117 94.1961 99.1032 94.5234 98.9151C94.8506 98.727 95.2382 98.6741 95.6038 98.7675C95.9694 98.861 96.2842 99.0935 96.4813 99.4156C96.6783 99.7378 96.7422 100.124 96.6592 100.493L96.667 100.503Z" fill="#CE7A63"/>
<path d="M95.8224 95.9644C97.4362 97.1075 97.5118 98.8145 96.641 102.082C95.4757 102.667 92.6444 101.928 92.6444 101.928C92.6444 101.928 93.536 96.8544 95.8224 95.9644Z" fill="#263238"/>
<path d="M109.27 108.171H94.571C93.5715 108.171 92.6083 108.547 91.8718 109.223C91.1352 109.9 90.6788 110.828 90.5927 111.825L89.6828 122.249H88.64V129.959H104.718C105.181 129.959 105.628 129.785 105.97 129.472C106.313 129.158 106.525 128.728 106.566 128.265L107.713 115.116C107.738 114.831 107.86 114.564 108.058 114.357C108.257 114.151 108.519 114.019 108.803 113.984L109.275 113.924C109.655 113.875 110.008 113.697 110.273 113.42C110.539 113.144 110.703 112.784 110.737 112.402L110.946 110.003C110.967 109.77 110.939 109.536 110.864 109.314C110.79 109.093 110.67 108.889 110.512 108.717C110.354 108.544 110.162 108.407 109.948 108.313C109.734 108.219 109.503 108.171 109.27 108.171Z" fill="#263238"/>
<path opacity="0.6" d="M109.27 108.171H94.571C93.5715 108.171 92.6083 108.547 91.8718 109.223C91.1352 109.9 90.6788 110.828 90.5927 111.825L89.6828 122.249H88.64V129.959H104.718C105.181 129.959 105.628 129.785 105.97 129.472C106.313 129.158 106.525 128.728 106.566 128.265L107.713 115.116C107.738 114.831 107.86 114.564 108.058 114.357C108.257 114.151 108.519 114.019 108.803 113.984L109.275 113.924C109.655 113.875 110.008 113.697 110.273 113.42C110.539 113.144 110.703 112.784 110.737 112.402L110.946 110.003C110.967 109.77 110.939 109.536 110.864 109.314C110.79 109.093 110.67 108.889 110.512 108.717C110.354 108.544 110.162 108.407 109.948 108.313C109.734 108.219 109.503 108.171 109.27 108.171Z" fill="white"/>
<g opacity="0.2">
<path d="M95.9632 128.26L97.1129 115.111C97.137 114.826 97.2582 114.558 97.4561 114.352C97.654 114.146 97.9166 114.014 98.2001 113.978L98.6746 113.918C99.0545 113.869 99.4062 113.691 99.6716 113.414C99.9371 113.138 100.1 112.779 100.134 112.397L100.343 109.998C100.363 109.766 100.335 109.532 100.26 109.311C100.185 109.09 100.065 108.888 99.9078 108.716C99.7504 108.544 99.559 108.407 99.3458 108.313C99.1326 108.219 98.9022 108.171 98.6693 108.171H109.27C109.502 108.171 109.733 108.219 109.946 108.313C110.159 108.407 110.351 108.544 110.508 108.716C110.665 108.888 110.785 109.09 110.86 109.311C110.935 109.532 110.964 109.766 110.943 109.998L110.735 112.397C110.7 112.779 110.537 113.138 110.271 113.415C110.005 113.692 109.653 113.869 109.272 113.918L108.8 113.978C108.517 114.014 108.254 114.146 108.056 114.352C107.858 114.558 107.736 114.826 107.711 115.111L106.563 128.26C106.522 128.723 106.31 129.153 105.968 129.466C105.626 129.78 105.179 129.954 104.715 129.954H94.1174C94.5809 129.954 95.0275 129.78 95.3692 129.466C95.7109 129.153 95.9228 128.722 95.9632 128.26Z" fill="black"/>
</g>
<path opacity="0.1" d="M98.6693 108.171H94.571C93.5715 108.171 92.6083 108.547 91.8718 109.223C91.1352 109.9 90.6788 110.828 90.5927 111.825L89.6828 122.249H88.64V129.959H94.1148C94.5783 129.959 95.0249 129.785 95.3666 129.471C95.7082 129.158 95.9202 128.728 95.9606 128.265L97.1103 115.116C97.1344 114.831 97.2555 114.563 97.4534 114.357C97.6513 114.151 97.914 114.019 98.1974 113.984L98.6719 113.924C99.0519 113.874 99.4036 113.696 99.669 113.42C99.9344 113.143 100.098 112.784 100.132 112.402L100.34 110.003C100.361 109.771 100.334 109.537 100.259 109.315C100.185 109.094 100.065 108.891 99.9082 108.719C99.7509 108.546 99.5596 108.409 99.3463 108.314C99.133 108.22 98.9025 108.171 98.6693 108.171Z" fill="white"/>
</svg>
