<svg width="154" height="143" viewBox="0 0 154 143" fill="none" xmlns="http://www.w3.org/2000/svg">
<path d="M146.679 141.956C146.679 142.003 114.214 142.044 74.1737 142.044C34.1332 142.044 1.66135 142.003 1.66135 141.956C1.66135 141.909 34.1197 141.869 74.1737 141.869C114.228 141.869 146.679 141.909 146.679 141.956Z" fill="#263238"/>
<path d="M19.4743 135.43C19.4743 135.43 18.6149 140.026 26.1836 140.363C33.7523 140.7 49.3344 141.074 49.3344 141.074L48.3572 131.197L24.0943 129.513L20.219 132.362L19.4743 135.43Z" fill="#E0E0E0"/>
<path d="M101.486 0H29.2502C26.2724 0 23.8584 2.41233 23.8584 5.38809V136.635C23.8584 139.611 26.2724 142.023 29.2502 142.023H101.486C104.464 142.023 106.878 139.611 106.878 136.635V5.38809C106.878 2.41233 104.464 0 101.486 0Z" fill="#263238"/>
<path d="M28.4313 6.5127H102.302V136.628H30.187C29.7214 136.628 29.2748 136.444 28.9456 136.115C28.6163 135.786 28.4313 135.339 28.4313 134.874V6.5127Z" fill="white"/>
<path d="M72.6235 3.41122H56.8257C56.5755 3.41122 56.3355 3.31188 56.1585 3.13505C55.9816 2.95822 55.8821 2.71838 55.8821 2.46831C55.8821 2.21823 55.9816 1.97839 56.1585 1.80156C56.3355 1.62473 56.5755 1.52539 56.8257 1.52539H72.6235C72.8738 1.52539 73.1138 1.62473 73.2907 1.80156C73.4677 1.97839 73.5671 2.21823 73.5671 2.46831C73.5671 2.71838 73.4677 2.95822 73.2907 3.13505C73.1138 3.31188 72.8738 3.41122 72.6235 3.41122Z" fill="#455A64"/>
<path d="M38.504 20.4141V21.3401H38.4298C38.3818 21.1229 38.2633 20.9276 38.0928 20.7845C37.9428 20.6588 37.7528 20.5907 37.557 20.5925C37.3933 20.5912 37.2332 20.6406 37.0987 20.734C36.9614 20.8265 36.8546 20.9578 36.7921 21.1111C36.7048 21.3247 36.6623 21.554 36.6674 21.7847C36.6647 22.0058 36.6954 22.226 36.7584 22.438C36.8042 22.6129 36.9031 22.7693 37.0415 22.8859C37.1866 22.9921 37.3638 23.0456 37.5436 23.0374C37.7043 23.0394 37.863 23.0012 38.0052 22.9263C38.1754 22.8275 38.3262 22.6986 38.45 22.5457V22.7747C38.3187 22.9179 38.1593 23.0326 37.9816 23.1115C37.8012 23.1859 37.6073 23.2226 37.4121 23.2192C37.1481 23.2243 36.8868 23.1654 36.6505 23.0475C36.4331 22.9376 36.2535 22.7652 36.135 22.5525C36.0192 22.3467 35.9577 22.115 35.9564 21.879C35.9569 21.6232 36.0255 21.3721 36.1552 21.1516C36.2842 20.9282 36.4718 20.7442 36.6977 20.6195C36.9191 20.4956 37.1685 20.4306 37.4222 20.4309C37.6268 20.4348 37.8289 20.4759 38.0187 20.5521C38.0916 20.5857 38.1687 20.6095 38.2478 20.6229C38.2684 20.6233 38.2888 20.6196 38.3078 20.6121C38.3269 20.6046 38.3443 20.5934 38.3591 20.5791C38.3936 20.5369 38.4148 20.4852 38.4197 20.4309L38.504 20.4141Z" fill="#263238"/>
<path d="M39.6157 20.478V21.5455C39.6959 21.4554 39.7904 21.3792 39.8954 21.3199C39.9763 21.2765 40.0665 21.2534 40.1583 21.2526C40.266 21.2498 40.3712 21.2856 40.4548 21.3536C40.5329 21.4119 40.5906 21.4931 40.6199 21.586C40.6531 21.7328 40.6667 21.8834 40.6604 22.0338V22.7545C40.6521 22.8437 40.6648 22.9337 40.6975 23.0172C40.7411 23.059 40.7988 23.083 40.8592 23.0845V23.1552H39.9224V23.0845C39.9513 23.0817 39.9793 23.0731 40.0048 23.0592C40.0303 23.0453 40.0527 23.0264 40.0707 23.0037C40.1031 22.9249 40.1158 22.8393 40.1077 22.7545V21.9261C40.1126 21.8302 40.1058 21.7341 40.0875 21.6398C40.078 21.6036 40.0566 21.5716 40.0269 21.5489C40.0001 21.5273 39.9669 21.5155 39.9325 21.5152C39.876 21.5169 39.8215 21.537 39.7775 21.5725C39.7116 21.6241 39.6567 21.6881 39.6157 21.7611V22.7511C39.6084 22.8343 39.6187 22.9181 39.6461 22.997C39.664 23.0216 39.6873 23.042 39.7141 23.0565C39.7409 23.0711 39.7706 23.0795 39.8011 23.0812V23.1519H38.8643V23.0812C38.8956 23.08 38.9264 23.0726 38.9547 23.0593C38.9831 23.046 39.0085 23.0271 39.0294 23.0037C39.0613 22.9236 39.0729 22.8368 39.0631 22.7511V20.8754C39.0715 20.7873 39.0587 20.6984 39.026 20.6161C38.9824 20.5743 38.9247 20.5503 38.8643 20.5487V20.478H39.6157Z" fill="#263238"/>
<path d="M42.1298 22.8791C41.9694 23.047 41.7543 23.1521 41.5232 23.1755C41.4749 23.1769 41.4268 23.1684 41.3818 23.1507C41.3368 23.1329 41.296 23.1062 41.2616 23.0722C41.2273 23.0382 41.2002 22.9976 41.182 22.9528C41.1638 22.9081 41.155 22.8601 41.1559 22.8118C41.1575 22.7396 41.1745 22.6685 41.2059 22.6035C41.2373 22.5384 41.2823 22.4808 41.3379 22.4346C41.5803 22.2493 41.8467 22.0975 42.1298 21.9834V21.7982C42.1359 21.7099 42.128 21.6212 42.1062 21.5355C42.0889 21.4959 42.0594 21.4628 42.0219 21.4412C41.9795 21.4147 41.9304 21.4007 41.8804 21.4008C41.8054 21.3977 41.7314 21.4177 41.6681 21.458C41.6532 21.4666 41.6408 21.4788 41.6319 21.4936C41.6231 21.5083 41.6181 21.525 41.6176 21.5422C41.6229 21.5812 41.642 21.6171 41.6715 21.6432C41.716 21.687 41.7425 21.7459 41.7456 21.8083C41.7457 21.8391 41.7395 21.8697 41.7274 21.8981C41.7152 21.9265 41.6973 21.9521 41.6748 21.9733C41.6229 22.0191 41.5554 22.0432 41.4861 22.0406C41.4092 22.0419 41.3347 22.0142 41.2772 21.9632C41.2512 21.9419 41.2301 21.9152 41.2156 21.885C41.201 21.8547 41.1933 21.8216 41.193 21.788C41.1964 21.6872 41.2373 21.5912 41.3075 21.5186C41.3921 21.4253 41.5004 21.3567 41.6209 21.32C41.7552 21.2728 41.8965 21.2489 42.0388 21.2492C42.1863 21.2416 42.3325 21.2805 42.4566 21.3604C42.5444 21.4201 42.6124 21.5044 42.6521 21.6028C42.6791 21.7278 42.6893 21.8557 42.6824 21.9834V22.7007C42.6765 22.7533 42.6765 22.8063 42.6824 22.8589C42.6865 22.878 42.6959 22.8954 42.7094 22.9094C42.7247 22.9143 42.7412 22.9143 42.7566 22.9094C42.7903 22.9094 42.824 22.8859 42.861 22.8387L42.9183 22.8859C42.8673 22.9706 42.7983 23.043 42.7161 23.098C42.644 23.1414 42.5611 23.1636 42.4769 23.162C42.3876 23.1679 42.2991 23.1416 42.2275 23.0879C42.1714 23.032 42.1368 22.9581 42.1298 22.8791ZM42.1298 22.7343V22.1181C41.998 22.1938 41.8833 22.2958 41.7928 22.4178C41.7426 22.4784 41.7151 22.5546 41.7153 22.6333C41.715 22.6626 41.7205 22.6917 41.7315 22.7188C41.7425 22.746 41.7587 22.7707 41.7793 22.7916C41.7971 22.8099 41.8187 22.8242 41.8425 22.8335C41.8664 22.8428 41.8919 22.8469 41.9175 22.8455C41.9984 22.8325 42.073 22.7934 42.1298 22.7343Z" fill="#263238"/>
<path d="M43.8417 22.9634V23.6369C43.8368 23.7018 43.8448 23.767 43.8652 23.8288C43.878 23.8617 43.9018 23.8891 43.9326 23.9063C43.9937 23.925 44.0576 23.933 44.1214 23.9298V24.0006H43.0666V23.9298C43.1001 23.9309 43.1335 23.9252 43.1648 23.913C43.1961 23.9009 43.2246 23.8825 43.2486 23.8591C43.2849 23.7862 43.299 23.7042 43.289 23.6234V21.6904C43.2984 21.6045 43.282 21.5177 43.2418 21.4412C43.2183 21.4195 43.1907 21.4027 43.1606 21.3917C43.1305 21.3807 43.0986 21.3758 43.0666 21.3772V21.3065H43.8417V21.549C43.8925 21.4671 43.9603 21.397 44.0405 21.3436C44.1335 21.2822 44.2424 21.2494 44.3539 21.2493C44.4882 21.2495 44.6187 21.2945 44.7246 21.3772C44.8403 21.4705 44.9278 21.5941 44.9773 21.7342C45.0361 21.8891 45.0658 22.0535 45.0649 22.2191C45.0672 22.394 45.0363 22.5676 44.9739 22.731C44.9207 22.8653 44.8308 22.982 44.7144 23.0677C44.6178 23.1376 44.5039 23.1796 44.385 23.1891C44.2662 23.1986 44.147 23.1753 44.0405 23.1216C43.9652 23.0812 43.8979 23.0276 43.8417 22.9634ZM43.8417 22.7647C43.8784 22.831 43.9307 22.8874 43.9941 22.9291C44.0575 22.9707 44.1301 22.9963 44.2056 23.0038C44.242 23.0024 44.2775 22.9915 44.3083 22.9719C44.3391 22.9524 44.3641 22.925 44.3808 22.8926C44.5211 22.4753 44.5211 22.0236 44.3808 21.6062C44.3604 21.5709 44.3309 21.5416 44.2953 21.5215C44.2598 21.5013 44.2195 21.4911 44.1786 21.4917C44.0472 21.4917 43.936 21.586 43.8417 21.778V22.7647Z" fill="#263238"/>
<path d="M46.1164 20.6297V21.3032H46.5545V21.4885H46.1164V22.6267C46.1082 22.6949 46.1082 22.7639 46.1164 22.8321C46.1252 22.8614 46.1429 22.8873 46.167 22.9062C46.1868 22.9235 46.2116 22.9341 46.2378 22.9365C46.322 22.9365 46.4029 22.8725 46.4804 22.7412L46.541 22.785C46.5064 22.8951 46.4373 22.9912 46.3438 23.0591C46.2504 23.127 46.1376 23.1631 46.0221 23.1621C45.9136 23.1667 45.8071 23.132 45.7222 23.0645C45.6496 23.0102 45.5955 22.935 45.5672 22.8489C45.556 22.728 45.556 22.6062 45.5672 22.4852V21.475H45.3245V21.4043C45.4791 21.2978 45.6215 21.1747 45.7491 21.0372C45.8661 20.9041 45.9678 20.7584 46.0524 20.6028L46.1164 20.6297Z" fill="#263238"/>
<path d="M48.2933 22.1619H47.2824C47.2826 22.3711 47.3513 22.5745 47.4778 22.7411C47.5171 22.7932 47.568 22.8352 47.6266 22.8639C47.6851 22.8926 47.7496 22.907 47.8148 22.9061C47.8908 22.9059 47.9649 22.8824 48.0271 22.8388C48.112 22.7751 48.1831 22.6949 48.2361 22.603L48.3035 22.6468C48.2282 22.8159 48.1125 22.964 47.9665 23.0779C47.844 23.1631 47.6979 23.2078 47.5486 23.2058C47.426 23.2126 47.3038 23.1868 47.1943 23.1312C47.0849 23.0757 46.992 22.9922 46.9252 22.8893C46.8065 22.7012 46.7478 22.4817 46.7567 22.2595C46.7414 21.9918 46.8308 21.7285 47.0061 21.5254C47.0773 21.4389 47.1668 21.3693 47.2682 21.3216C47.3696 21.2738 47.4803 21.2491 47.5924 21.2493C47.6854 21.25 47.7771 21.2712 47.861 21.3114C47.9448 21.3516 48.0188 21.4097 48.0777 21.4816C48.2275 21.6759 48.3039 21.9168 48.2933 22.1619ZM47.8081 22.0305C47.8139 21.8836 47.8014 21.7366 47.771 21.5928C47.7558 21.5238 47.7192 21.4614 47.6666 21.4143C47.6348 21.3895 47.5956 21.3765 47.5553 21.3772C47.5208 21.3774 47.4868 21.3868 47.4572 21.4046C47.4275 21.4224 47.4032 21.4478 47.3869 21.4783C47.3016 21.6239 47.2606 21.7913 47.2689 21.9598V22.0305H47.8081Z" fill="#263238"/>
<path d="M49.2907 21.3065V21.7241C49.3778 21.5771 49.4922 21.4479 49.6276 21.3436C49.7055 21.2874 49.7979 21.2546 49.8939 21.2493C49.927 21.2477 49.96 21.2532 49.9908 21.2654C50.0216 21.2776 50.0494 21.2962 50.0725 21.32C50.0955 21.3461 50.113 21.3765 50.124 21.4095C50.135 21.4425 50.1392 21.4773 50.1365 21.512C50.1413 21.586 50.1185 21.6592 50.0725 21.7174C50.0535 21.7399 50.0297 21.758 50.0029 21.7702C49.9761 21.7824 49.9469 21.7885 49.9174 21.7881C49.8505 21.7893 49.7855 21.7653 49.7355 21.7208L49.6479 21.6467C49.6323 21.6432 49.6162 21.6432 49.6007 21.6467C49.5605 21.6471 49.5219 21.6627 49.4928 21.6904C49.4353 21.7405 49.3932 21.8059 49.3715 21.879C49.3269 22.016 49.3052 22.1593 49.3075 22.3033V22.8354C49.3012 22.8824 49.3012 22.9299 49.3075 22.9769C49.3206 23.0106 49.3458 23.0382 49.3783 23.0543C49.4286 23.0751 49.4822 23.0865 49.5366 23.088V23.1587H48.5257V23.088C48.5559 23.0887 48.5859 23.0831 48.6137 23.0715C48.6416 23.0599 48.6667 23.0425 48.6875 23.0206C48.7275 22.9273 48.7426 22.8252 48.7313 22.7243V21.714C48.7399 21.6469 48.7399 21.579 48.7313 21.512C48.722 21.4793 48.7018 21.4507 48.674 21.4311C48.6337 21.4086 48.5887 21.3959 48.5425 21.3941V21.3234L49.2907 21.3065Z" fill="#263238"/>
<path d="M52.438 20.4209V22.6098C52.4335 22.7146 52.4403 22.8196 52.4583 22.923C52.4742 22.9698 52.5065 23.0092 52.5493 23.0341C52.618 23.0686 52.6949 23.0837 52.7717 23.0779H52.8323V23.152H51.4237V23.0779H51.4945C51.5774 23.0839 51.6606 23.0701 51.7371 23.0375C51.7836 23.0162 51.8199 22.9775 51.8382 22.9297C51.8615 22.8191 51.8694 22.7058 51.8618 22.593V21.2055C51.8655 21.1277 51.8598 21.0497 51.845 20.9732C51.8306 20.9404 51.8072 20.9124 51.7776 20.8924C51.7444 20.8713 51.7056 20.8607 51.6664 20.862C51.5823 20.866 51.4998 20.8866 51.4237 20.9227L51.3867 20.8519L52.3707 20.4041L52.438 20.4209Z" fill="#263238"/>
<path d="M42.0187 37.7335V39.8989H41.8199C41.7418 39.5183 41.5994 39.1539 41.3987 38.8213C41.237 38.5961 41.0199 38.4163 40.7685 38.2993C40.5164 38.212 40.2496 38.1753 39.9833 38.1915H39.3869V44.3643C39.3707 44.621 39.3935 44.8787 39.4542 45.1287C39.5125 45.2442 39.6056 45.3384 39.7205 45.3981C39.8869 45.4832 40.073 45.5227 40.2596 45.5126H40.5259V45.7349H36.3203V45.516H36.5865C36.7814 45.5247 36.9753 45.4829 37.1493 45.3947C37.258 45.3293 37.3421 45.2299 37.3885 45.1119C37.4499 44.8688 37.4726 44.6177 37.4559 44.3676V38.1915H36.8763C36.4559 38.1526 36.0362 38.2727 35.7002 38.5283C35.3395 38.8921 35.1116 39.3665 35.0532 39.8753H34.8275V37.71L42.0187 37.7335Z" fill="#263238"/>
<path d="M93.7491 28.8432C93.7491 28.8937 90.7162 28.9307 86.9824 28.9307C83.2486 28.9307 80.2158 28.8937 80.2158 28.8432C80.2158 28.7927 83.2486 28.7556 86.9824 28.7556C90.7162 28.7556 93.7491 28.796 93.7491 28.8432Z" fill="#263238"/>
<path d="M93.594 39.36C93.594 39.4072 82.551 39.4476 68.9301 39.4476C55.3092 39.4476 44.2662 39.4072 44.2662 39.36C44.2662 39.3129 55.3058 39.2725 68.9301 39.2725C82.5544 39.2725 93.594 39.3095 93.594 39.36Z" fill="#263238"/>
<path d="M93.594 42.7477C93.594 42.7982 82.551 42.8353 68.9301 42.8353C55.3092 42.8353 44.2662 42.7982 44.2662 42.7477C44.2662 42.6972 55.3058 42.6602 68.9301 42.6602C82.5544 42.6602 93.594 42.7039 93.594 42.7477Z" fill="#263238"/>
<path d="M93.594 46.1388C93.594 46.1893 82.551 46.2264 68.9301 46.2264C55.3092 46.2264 44.2662 46.1893 44.2662 46.1388C44.2662 46.0883 55.3058 46.0513 68.9301 46.0513C82.5544 46.0513 93.594 46.0917 93.594 46.1388Z" fill="#263238"/>
<path d="M93.5942 49.5299C93.5942 49.5771 80.3406 49.6175 63.9935 49.6175C47.6464 49.6175 34.3928 49.5771 34.3928 49.5299C34.3928 49.4828 47.643 49.4424 63.9935 49.4424C80.344 49.4424 93.5942 49.4828 93.5942 49.5299Z" fill="#263238"/>
<path d="M93.5942 52.9213C93.5942 52.9684 80.3406 53.0089 63.9935 53.0089C47.6464 53.0089 34.3928 52.9684 34.3928 52.9213C34.3928 52.8741 47.643 52.8337 63.9935 52.8337C80.344 52.8337 93.5942 52.8708 93.5942 52.9213Z" fill="#263238"/>
<path d="M67.7306 56.3121C67.7306 56.3593 60.2664 56.3997 51.0634 56.3997C41.8603 56.3997 34.3928 56.3593 34.3928 56.3121C34.3928 56.265 41.8536 56.2212 51.0634 56.2212C60.2732 56.2212 67.7306 56.2616 67.7306 56.3121Z" fill="#263238"/>
<path d="M93.5942 59.7001C93.5942 59.7506 80.3406 59.7877 63.9935 59.7877C47.6464 59.7877 34.3928 59.7506 34.3928 59.7001C34.3928 59.6496 47.643 59.6125 63.9935 59.6125C80.344 59.6125 93.5942 59.653 93.5942 59.7001Z" fill="#263238"/>
<path d="M93.5942 63.0912C93.5942 63.1384 80.3406 63.1788 63.9935 63.1788C47.6464 63.1788 34.3928 63.1384 34.3928 63.0912C34.3928 63.0441 47.643 63.0037 63.9935 63.0037C80.344 63.0037 93.5942 63.0441 93.5942 63.0912Z" fill="#263238"/>
<path d="M93.5942 66.4823C93.5942 66.5295 80.3406 66.5699 63.9935 66.5699C47.6464 66.5699 34.3928 66.5295 34.3928 66.4823C34.3928 66.4352 47.643 66.3948 63.9935 66.3948C80.344 66.3948 93.5942 66.4318 93.5942 66.4823Z" fill="#263238"/>
<path d="M93.5942 69.8734C93.5942 69.9206 80.3406 69.961 63.9935 69.961C47.6464 69.961 34.3928 69.9206 34.3928 69.8734C34.3928 69.8263 47.643 69.7859 63.9935 69.7859C80.344 69.7859 93.5942 69.8229 93.5942 69.8734Z" fill="#263238"/>
<path d="M93.5942 73.2614C93.5942 73.3119 80.3406 73.3489 63.9935 73.3489C47.6464 73.3489 34.3928 73.3119 34.3928 73.2614C34.3928 73.2109 47.643 73.1738 63.9935 73.1738C80.344 73.1738 93.5942 73.2142 93.5942 73.2614Z" fill="#263238"/>
<path d="M44.2662 76.6523C44.2662 76.7028 42.0556 76.7398 39.3293 76.7398C36.6031 76.7398 34.406 76.7162 34.406 76.6523C34.406 76.5883 36.6133 76.5647 39.3428 76.5647C42.0724 76.5647 44.2662 76.6051 44.2662 76.6523Z" fill="#263238"/>
<path d="M93.594 80.0436C93.594 80.0908 80.3404 80.1312 63.9932 80.1312C47.6461 80.1312 34.406 80.084 34.406 80.0436C34.406 80.0032 47.6562 79.9561 64.0067 79.9561C80.3572 79.9561 93.594 79.9965 93.594 80.0436Z" fill="#263238"/>
<path d="M93.594 83.4513C93.594 83.4985 80.3404 83.5389 63.9932 83.5389C47.6461 83.5389 34.406 83.4816 34.406 83.4513C34.406 83.421 47.6562 83.3638 64.0067 83.3638C80.3572 83.3638 93.594 83.384 93.594 83.4513Z" fill="#263238"/>
<path d="M93.594 86.819C93.594 86.8695 80.3404 86.9066 63.9932 86.9066C47.6461 86.9066 34.406 86.8729 34.406 86.819C34.406 86.7651 47.6562 86.7314 64.0067 86.7314C80.3572 86.7314 93.594 86.7752 93.594 86.819Z" fill="#263238"/>
<path d="M79.8385 90.2135C79.8385 90.264 69.6649 90.3011 57.1156 90.3011C44.5663 90.3011 34.3928 90.264 34.3928 90.2135C34.3928 90.163 44.563 90.126 57.1156 90.126C69.6683 90.126 79.8385 90.1664 79.8385 90.2135Z" fill="#263238"/>
<path d="M93.5942 93.6046C93.5942 93.6518 80.3406 93.6922 63.9935 93.6922C47.6464 93.6922 34.3928 93.6518 34.3928 93.6046C34.3928 93.5575 47.643 93.5171 63.9935 93.5171C80.344 93.5171 93.5942 93.5541 93.5942 93.6046Z" fill="#263238"/>
<path d="M93.5942 96.9958C93.5942 97.0429 80.3406 97.0833 63.9935 97.0833C47.6464 97.0833 34.3928 97.0429 34.3928 96.9958C34.3928 96.9486 47.643 96.9082 63.9935 96.9082C80.344 96.9082 93.5942 96.9452 93.5942 96.9958Z" fill="#263238"/>
<path d="M85.6276 100.387C85.6276 100.434 74.1702 100.474 60.0168 100.474C45.8635 100.474 34.406 100.434 34.406 100.387C34.406 100.34 45.8635 100.296 60.0168 100.296C74.1702 100.296 85.6276 100.336 85.6276 100.387Z" fill="#263238"/>
<path d="M93.594 103.775C93.594 103.825 80.3404 103.862 63.9932 103.862C47.6461 103.862 34.406 103.825 34.406 103.775C34.406 103.724 47.6562 103.687 64.0067 103.687C80.3572 103.687 93.594 103.727 93.594 103.775Z" fill="#263238"/>
<path d="M93.5942 110.557C93.5942 110.604 80.3406 110.645 63.9935 110.645C47.6464 110.645 34.3928 110.604 34.3928 110.557C34.3928 110.51 47.643 110.469 63.9935 110.469C80.344 110.469 93.5942 110.507 93.5942 110.557Z" fill="#263238"/>
<path d="M93.594 113.948C93.594 113.995 80.3404 114.035 63.9932 114.035C47.6461 114.035 34.406 113.995 34.406 113.948C34.406 113.901 47.6562 113.86 64.0067 113.86C80.3572 113.86 93.594 113.897 93.594 113.948Z" fill="#263238"/>
<path d="M93.5942 117.336C93.5942 117.386 80.3406 117.423 63.9935 117.423C47.6464 117.423 34.3928 117.386 34.3928 117.336C34.3928 117.285 47.643 117.248 63.9935 117.248C80.344 117.248 93.5942 117.289 93.5942 117.336Z" fill="#263238"/>
<path d="M65.8468 127.341L65.6581 127.856H64.081V127.782C64.443 127.471 64.7717 127.124 65.0616 126.745C65.2288 126.535 65.3276 126.279 65.3447 126.011C65.3478 125.934 65.3357 125.857 65.3091 125.785C65.2825 125.713 65.2419 125.646 65.1897 125.59C65.1421 125.538 65.0842 125.497 65.0198 125.469C64.9554 125.442 64.8858 125.427 64.8156 125.428C64.6883 125.426 64.5638 125.466 64.4618 125.543C64.3512 125.628 64.27 125.746 64.2293 125.879H64.1585C64.1735 125.668 64.2631 125.469 64.4112 125.317C64.4787 125.252 64.5585 125.201 64.6459 125.168C64.7333 125.134 64.8265 125.119 64.9201 125.122C65.0204 125.119 65.1202 125.136 65.2139 125.172C65.3076 125.208 65.3932 125.261 65.466 125.33C65.5342 125.394 65.5885 125.47 65.6256 125.555C65.6628 125.641 65.6818 125.733 65.6817 125.826C65.681 125.966 65.6487 126.104 65.5873 126.23C65.4671 126.478 65.3078 126.705 65.1155 126.903C64.7786 127.263 64.5831 127.479 64.4989 127.553H65.1998C65.3 127.555 65.4003 127.55 65.4997 127.536C65.5551 127.526 65.6079 127.504 65.6547 127.472C65.7032 127.435 65.7433 127.388 65.7727 127.334L65.8468 127.341Z" fill="#263238"/>
<path d="M66.1601 126.533C66.1545 126.263 66.2015 125.996 66.2982 125.745C66.373 125.55 66.5001 125.38 66.6655 125.253C66.7714 125.173 66.9 125.128 67.0329 125.125C67.1432 125.13 67.2509 125.161 67.3469 125.215C67.443 125.27 67.5248 125.346 67.5855 125.438C67.8046 125.745 67.9128 126.116 67.8922 126.492C67.8999 126.762 67.8541 127.031 67.7574 127.284C67.6935 127.47 67.5764 127.634 67.4204 127.755C67.3054 127.847 67.1634 127.899 67.016 127.903C66.8785 127.894 66.7461 127.847 66.6336 127.768C66.5212 127.688 66.4331 127.579 66.3791 127.452C66.2279 127.17 66.1525 126.853 66.1601 126.533ZM66.5476 126.583C66.538 126.89 66.5848 127.196 66.6858 127.486C66.7599 127.681 66.8722 127.779 67.0227 127.779C67.106 127.776 67.1852 127.742 67.2452 127.684C67.3365 127.593 67.3967 127.475 67.417 127.348C67.4868 127.033 67.5173 126.71 67.508 126.388C67.5147 126.131 67.4829 125.874 67.4137 125.627C67.3858 125.5 67.3227 125.383 67.2317 125.29C67.1994 125.265 67.1625 125.247 67.1232 125.237C67.0838 125.226 67.0428 125.223 67.0025 125.229C66.9621 125.234 66.9232 125.247 66.8879 125.268C66.8527 125.288 66.8218 125.315 66.797 125.347C66.6859 125.497 66.6182 125.674 66.6015 125.859C66.5657 126.099 66.5477 126.341 66.5476 126.583Z" fill="#263238"/>
<path d="M29.0142 136.298C26.5071 132.025 21.2097 131.978 19.4708 135.43V9.57376C19.4582 8.44361 19.8563 7.34727 20.5914 6.48827C21.3264 5.62927 22.3483 5.06598 23.4675 4.90296C24.9401 4.71437 26.2779 5.27676 28.5559 6.58674L29.0142 136.298Z" fill="white"/>
<path d="M29.0145 136.298C29.0145 135.372 28.7718 79.1543 28.4652 6.59348L28.509 6.66757C27.8151 6.25784 27.1009 5.88356 26.3691 5.54617C25.6331 5.18564 24.8294 4.98371 24.0102 4.95348C23.1724 4.95895 22.3538 5.20438 21.6513 5.66067C20.9462 6.12304 20.381 6.76936 20.017 7.52967C19.8291 7.92767 19.6954 8.34898 19.6193 8.7824C19.5578 9.21956 19.5353 9.66133 19.5519 10.1025C19.5519 11.0005 19.5519 11.8895 19.5519 12.7696V28.5028C19.5519 35.3794 19.5519 42.0775 19.5519 48.597C19.5519 61.6093 19.5519 73.81 19.5519 84.8892C19.5519 107.048 19.5216 124.714 19.5149 135.43L19.4475 135.413C19.8543 134.601 20.5015 133.934 21.3009 133.503C22.0015 133.14 22.7796 132.952 23.5688 132.954C23.9199 132.951 24.2707 132.979 24.6168 133.039C24.7819 133.069 24.9538 133.119 25.0987 133.156C25.2519 133.192 25.4018 133.24 25.5469 133.301C25.8232 133.398 26.0904 133.518 26.3455 133.662L26.7027 133.86C26.8106 133.931 26.915 134.008 27.0161 134.083C27.2116 134.21 27.3944 134.355 27.5621 134.517C27.7204 134.668 27.8754 134.8 28.0035 134.938C28.2147 135.171 28.4138 135.415 28.6 135.669C28.8662 136.079 28.9875 136.261 29.0178 136.312L28.5865 135.682C28.445 135.467 28.2225 135.244 27.9833 134.955C27.8552 134.82 27.7002 134.689 27.5418 134.541C27.3705 134.382 27.1868 134.238 26.9925 134.109C26.8915 134.039 26.7904 133.961 26.6825 133.891L26.3253 133.699C26.0713 133.556 25.8052 133.437 25.53 133.342C25.3861 133.283 25.2373 133.236 25.0852 133.204C24.9302 133.167 24.7718 133.119 24.6101 133.086C24.2658 133.03 23.9175 133.004 23.5688 133.008C22.7874 133.013 22.0186 133.206 21.3278 133.571C20.5409 133.996 19.9051 134.655 19.5081 135.456L19.4407 135.591V135.443C19.4407 124.727 19.4205 107.061 19.4037 84.9027C19.4037 73.8234 19.4037 61.6228 19.4037 48.6105C19.4037 42.0999 19.4037 35.4018 19.4037 28.5163V18.0769C19.4037 16.319 19.4037 14.5521 19.4037 12.7763V10.1025C19.3884 9.65217 19.4132 9.20139 19.4778 8.75546C19.5557 8.30567 19.694 7.86844 19.8889 7.45558C20.2639 6.66812 20.8464 5.99755 21.5738 5.51587C22.3016 5.04347 23.1492 4.78876 24.017 4.78174C24.8614 4.81224 25.6901 5.0187 26.45 5.3879C27.2048 5.72465 27.9091 6.1254 28.6033 6.5194L28.6471 6.54634V6.59685C28.8527 79.1543 29.0145 135.372 29.0145 136.298Z" fill="#263238"/>
<path d="M97.2235 76.8206C97.1977 76.8209 97.1723 76.8149 97.1494 76.8032C97.1265 76.7914 97.1068 76.7743 97.092 76.7533C97.0649 76.7179 97.0528 76.6733 97.0585 76.6291C97.0642 76.585 97.0871 76.5448 97.1224 76.5175L99.0364 75.0695L97.1358 73.8639C97.1167 73.8525 97.1 73.8374 97.0868 73.8194C97.0736 73.8014 97.0642 73.7809 97.0592 73.7592C97.0542 73.7375 97.0536 73.715 97.0575 73.6931C97.0614 73.6711 97.0697 73.6502 97.0819 73.6315C97.0936 73.6127 97.1089 73.5964 97.127 73.5835C97.145 73.5706 97.1654 73.5614 97.187 73.5564C97.2086 73.5513 97.231 73.5507 97.2528 73.5543C97.2747 73.558 97.2957 73.5659 97.3144 73.5776L99.4206 74.9247C99.444 74.9386 99.4635 74.9583 99.477 74.9819C99.4906 75.0055 99.4979 75.0322 99.4981 75.0594C99.4999 75.0864 99.4949 75.1134 99.4838 75.1381C99.4726 75.1628 99.4555 75.1843 99.4341 75.2008L97.3279 76.797C97.2966 76.816 97.2599 76.8243 97.2235 76.8206Z" fill="#E0E0E0"/>
<g opacity="0.3">
<path d="M83.5622 6.5127V22.0439C83.5627 22.1155 83.5843 22.1853 83.6243 22.2446C83.6643 22.304 83.721 22.3502 83.7872 22.3776C83.8534 22.4049 83.9262 22.4121 83.9965 22.3983C84.0667 22.3844 84.1314 22.3502 84.1822 22.2998L87.9261 18.5585C87.9949 18.4908 88.0875 18.4529 88.1839 18.4529C88.2804 18.4529 88.373 18.4908 88.4417 18.5585L92.1823 22.2998C92.233 22.3513 92.2979 22.3866 92.3687 22.4011C92.4396 22.4156 92.5131 22.4087 92.58 22.3812C92.6469 22.3537 92.7041 22.307 92.7443 22.2469C92.7845 22.1868 92.8059 22.1161 92.8057 22.0439V6.5127H83.5622Z" fill="black"/>
</g>
<path d="M82.7736 6.5127V20.6093C82.7734 20.6816 82.7948 20.7522 82.835 20.8123C82.8752 20.8724 82.9324 20.9192 82.9993 20.9466C83.0662 20.9741 83.1397 20.981 83.2106 20.9665C83.2814 20.952 83.3463 20.9168 83.397 20.8652L87.1409 17.1272C87.1742 17.093 87.2141 17.0658 87.258 17.0473C87.302 17.0287 87.3493 17.0191 87.397 17.0191C87.4448 17.0191 87.4921 17.0287 87.5361 17.0473C87.58 17.0658 87.6199 17.093 87.6532 17.1272L91.3971 20.8652C91.4478 20.9168 91.5127 20.952 91.5835 20.9665C91.6544 20.981 91.7279 20.9741 91.7948 20.9466C91.8617 20.9192 91.9189 20.8724 91.9591 20.8123C91.9993 20.7522 92.0207 20.6816 92.0205 20.6093V6.5127H82.7736Z" fill="#FF725E"/>
<path d="M113.166 28.0046C113.234 26.8057 113.968 26.0716 115.003 25.4587C115.524 25.1576 116.11 24.9863 116.711 24.9593C117.312 24.9324 117.911 25.0505 118.457 25.3038C119.181 25.6405 119.805 26.2366 120.61 26.3376C121.921 26.506 123.161 25.2937 124.448 25.5968C124.832 25.6878 125.173 25.9092 125.412 26.2231C125.651 26.537 125.773 26.9241 125.759 27.3182C125.744 27.7124 125.593 28.0892 125.331 28.3845C125.07 28.6798 124.713 28.8752 124.324 28.9374C125.18 29.062 125.672 30.1463 125.335 30.9579C124.998 31.7695 124.118 32.2309 123.252 32.2511C122.38 32.221 121.532 31.9544 120.799 31.4799C120.051 31.0455 119.35 30.5201 118.568 30.1329C117.798 29.7168 116.905 29.5868 116.047 29.7658C114.915 30.0655 114.11 31.1364 113.813 32.2713C113.517 33.4061 113.645 34.605 113.813 35.7668C113.982 36.9286 114.214 38.0971 114.103 39.2657C114.107 39.3343 114.094 39.4029 114.066 39.4656C114.038 39.5283 113.995 39.5834 113.941 39.626C113.766 39.7203 113.567 39.5553 113.439 39.4038C111.995 37.6819 110.904 35.6933 110.228 33.5509C109.83 32.3083 109.611 31.096 110.086 29.8837C110.561 28.6713 112.165 27.5095 113.173 28.0046" fill="#263238"/>
<path d="M112.061 33.7902L113.978 45.6137C114.336 47.8228 115.771 49.9578 119.242 49.2305C122.201 48.3751 121.982 46.2468 121.601 43.6235C121.601 43.6235 124.856 42.7748 124.566 39.4645C124.425 37.8649 123.865 34.5917 123.326 31.6383C123.048 30.1066 122.202 28.736 120.957 27.7999C119.712 26.8637 118.16 26.4306 116.61 26.587L116.29 26.6173C112.866 27.1763 111.417 30.3856 112.061 33.7902Z" fill="#FFBF9D"/>
<path d="M121.598 43.6231C120.068 43.7715 118.528 43.4794 117.159 42.7812C117.159 42.7812 118.46 45.2429 121.729 44.6132L121.598 43.6231Z" fill="#FF9A6C"/>
<path d="M122.672 34.9586C122.686 35.0816 122.651 35.2049 122.575 35.3024C122.498 35.3999 122.387 35.4638 122.265 35.4806C122.205 35.4917 122.144 35.4906 122.085 35.4775C122.025 35.4644 121.969 35.4395 121.92 35.4043C121.871 35.3691 121.829 35.3243 121.797 35.2726C121.765 35.2209 121.745 35.1634 121.736 35.1034C121.722 34.9805 121.757 34.8572 121.833 34.7597C121.91 34.6622 122.021 34.5983 122.143 34.5815C122.203 34.5709 122.264 34.5723 122.323 34.5856C122.382 34.5989 122.438 34.6239 122.487 34.659C122.536 34.6941 122.578 34.7387 122.61 34.7902C122.642 34.8416 122.663 34.8989 122.672 34.9586Z" fill="#263238"/>
<path d="M122.774 33.3319C122.723 33.3993 122.339 33.1703 121.83 33.2242C121.321 33.278 120.974 33.5609 120.913 33.5104C120.853 33.4599 120.93 33.369 121.082 33.2343C121.286 33.0606 121.539 32.9536 121.806 32.9278C122.071 32.9003 122.338 32.9582 122.568 33.0928C122.736 33.1972 122.801 33.3016 122.774 33.3319Z" fill="#263238"/>
<path d="M118.187 35.4065C118.201 35.5294 118.166 35.6528 118.089 35.7502C118.013 35.8477 117.902 35.9117 117.779 35.9285C117.72 35.9395 117.659 35.9385 117.599 35.9254C117.54 35.9123 117.484 35.8874 117.435 35.8522C117.385 35.817 117.344 35.7722 117.312 35.7205C117.28 35.6688 117.259 35.6113 117.25 35.5513C117.237 35.4289 117.271 35.306 117.347 35.2086C117.422 35.1112 117.533 35.0469 117.655 35.0293C117.715 35.0183 117.776 35.0193 117.835 35.0324C117.895 35.0454 117.951 35.0703 118.001 35.1055C118.05 35.1406 118.092 35.1854 118.124 35.2371C118.157 35.2888 118.178 35.3464 118.187 35.4065Z" fill="#263238"/>
<path d="M117.786 33.9482C117.732 34.0155 117.348 33.7865 116.839 33.837C116.33 33.8875 115.983 34.1738 115.923 34.1266C115.862 34.0795 115.943 33.9852 116.091 33.8505C116.296 33.6754 116.55 33.5683 116.819 33.5441C117.084 33.5156 117.35 33.5722 117.581 33.7057C117.746 33.7933 117.813 33.901 117.786 33.9482Z" fill="#263238"/>
<path d="M120 37.5146C120.259 37.401 120.533 37.3229 120.812 37.2822C120.94 37.2553 121.058 37.2182 121.072 37.1273C121.071 36.9917 121.027 36.8598 120.947 36.7501L120.465 35.8005C119.791 34.4535 119.286 33.3287 119.343 33.3018C119.4 33.2748 119.987 34.3524 120.664 35.7062L121.129 36.6626C121.226 36.8108 121.269 36.9881 121.251 37.1644C121.236 37.212 121.21 37.2557 121.177 37.2924C121.143 37.3291 121.101 37.3578 121.055 37.3765C120.985 37.4027 120.911 37.4197 120.836 37.427C120.562 37.4903 120.281 37.5197 120 37.5146Z" fill="#263238"/>
<path d="M117.715 31.9278C117.682 32.0726 117.166 32.0592 116.576 32.1905C115.987 32.3218 115.522 32.5273 115.431 32.4161C115.387 32.3622 115.458 32.2242 115.64 32.0794C115.882 31.8874 116.166 31.7548 116.469 31.6921C116.77 31.625 117.083 31.6308 117.382 31.7089C117.611 31.7595 117.732 31.8571 117.715 31.9278Z" fill="#263238"/>
<path d="M122.44 31.8807C122.363 32.0053 121.999 31.9211 121.577 31.9581C121.156 31.9952 120.809 32.1131 120.715 32.0019C120.671 31.948 120.715 31.8268 120.86 31.6988C121.052 31.5455 121.288 31.455 121.534 31.4395C121.782 31.4185 122.031 31.4762 122.245 31.6045C122.413 31.7089 122.474 31.8201 122.44 31.8807Z" fill="#263238"/>
<path d="M112.586 36.2114C112.529 36.1912 110.227 35.7669 110.544 38.0198C110.861 40.2727 113.048 39.5082 113.041 39.4409C113.035 39.3735 112.586 36.2114 112.586 36.2114Z" fill="#FFBF9D"/>
<path d="M112.229 38.6797C112.229 38.6797 112.196 38.7134 112.132 38.7504C112.044 38.8041 111.939 38.821 111.839 38.7976C111.682 38.7241 111.547 38.6108 111.448 38.469C111.348 38.3272 111.288 38.1618 111.272 37.9894C111.243 37.797 111.256 37.6005 111.309 37.4135C111.322 37.341 111.352 37.2727 111.397 37.2141C111.441 37.1555 111.499 37.1084 111.566 37.0768C111.609 37.0597 111.657 37.058 111.702 37.0721C111.747 37.0862 111.786 37.1152 111.812 37.1542C111.849 37.2148 111.842 37.262 111.852 37.262C111.862 37.262 111.896 37.2182 111.852 37.1273C111.833 37.0729 111.795 37.0274 111.744 36.9993C111.676 36.9599 111.595 36.949 111.518 36.969C111.428 37.0001 111.348 37.0535 111.284 37.1242C111.221 37.1949 111.176 37.2805 111.154 37.3731C111.086 37.5815 111.069 37.8032 111.104 38.0197C111.12 38.2216 111.195 38.4143 111.32 38.5741C111.444 38.7339 111.613 38.8537 111.805 38.9188C111.865 38.9253 111.927 38.919 111.985 38.9004C112.043 38.8819 112.096 38.8514 112.142 38.8111C112.25 38.7336 112.25 38.6831 112.229 38.6797Z" fill="#FF9A6C"/>
<path d="M123.053 28.5602C122.665 27.9529 122.132 27.4509 121.503 27.0986C120.178 26.276 118.628 25.8918 117.072 26.0008C115.513 26.1243 114.062 26.8488 113.028 28.0213C112.235 28.9812 111.741 30.1518 111.606 31.3889C111.475 32.6216 111.59 33.8679 111.943 35.0562C112.056 35.5916 112.321 36.083 112.708 36.4706C112.964 36.6894 113.382 36.8073 113.628 36.5783C113.757 36.4234 113.831 36.2306 113.84 36.0294C114.1 34.2412 114.339 32.3251 113.53 30.7053C113.889 30.0855 114.37 29.5457 114.945 29.1192C115.233 28.908 115.56 28.7561 115.907 28.6723C116.255 28.5885 116.615 28.5744 116.967 28.6309C118.009 28.8397 118.73 29.759 119.603 30.3584C120.232 30.7844 120.954 31.0547 121.709 31.1472C122.463 31.2398 123.229 31.1518 123.943 30.8905L123.053 28.5602Z" fill="#263238"/>
<path d="M120.459 38.8853C120.431 39.0997 120.375 39.3094 120.29 39.5082C120.246 39.607 120.181 39.6953 120.101 39.7673C120.02 39.8392 119.925 39.8933 119.822 39.9258C119.709 39.9492 119.593 39.9442 119.483 39.9113C119.373 39.8784 119.273 39.8186 119.191 39.7372C119.033 39.5682 118.932 39.3539 118.902 39.1243C118.868 38.9189 118.902 38.6596 119.107 38.5923C119.191 38.5721 119.279 38.5721 119.363 38.5923L120.512 38.8011" fill="#FF9A6C"/>
<path d="M120.216 39.8447C120.028 39.8984 119.831 39.9155 119.636 39.8952C119.436 39.8612 119.254 39.7545 119.127 39.5955C119.055 39.4976 119.003 39.3857 118.976 39.2669C118.949 39.1481 118.946 39.0249 118.969 38.9052C118.981 38.8431 119.001 38.7831 119.03 38.7267C119.06 38.6762 119.053 38.6795 119.1 38.6762C119.148 38.6728 119.222 38.6964 119.286 38.7065L119.475 38.7402C119.721 38.7873 119.943 38.8244 120.128 38.8513C120.329 38.9015 120.536 38.9197 120.742 38.9052C120.558 38.8105 120.36 38.7468 120.155 38.7166L119.508 38.5684L119.32 38.5246C119.251 38.5083 119.181 38.496 119.111 38.4876C119.056 38.4827 119.002 38.4957 118.956 38.5246C118.912 38.5532 118.878 38.5943 118.858 38.6425C118.822 38.7137 118.795 38.7897 118.78 38.8681C118.751 39.0146 118.754 39.1658 118.791 39.3108C118.827 39.4558 118.895 39.591 118.989 39.7067C119.147 39.8977 119.373 40.0188 119.619 40.0434C119.778 40.0603 119.937 40.0335 120.081 39.966C120.182 39.902 120.223 39.8548 120.216 39.8447Z" fill="#263238"/>
<path d="M125.203 26.0581C125.225 26.1053 125.239 26.1551 125.247 26.2063C125.275 26.3527 125.281 26.5026 125.264 26.6508C125.226 26.9242 125.134 27.1874 124.994 27.425C124.853 27.6627 124.667 27.87 124.445 28.0349C124.107 28.265 123.726 28.4257 123.325 28.5078C122.925 28.5899 122.511 28.5917 122.11 28.5131C121.193 28.3885 120.277 27.9473 119.32 27.5533C118.363 27.1593 117.382 26.8798 116.502 27.0549C115.719 27.2027 115.007 27.6081 114.48 28.2066C114.121 28.6047 113.831 29.06 113.621 29.5536C113.48 29.8904 113.429 30.1093 113.412 30.1059C113.418 30.0546 113.428 30.0038 113.443 29.9544C113.477 29.8116 113.519 29.671 113.571 29.5334C113.76 29.0217 114.042 28.5492 114.403 28.1393C114.934 27.5121 115.662 27.0845 116.469 26.9269C117.389 26.7518 118.406 27.0246 119.367 27.422C120.327 27.8193 121.23 28.2538 122.12 28.3817C122.897 28.5429 123.707 28.3891 124.371 27.954C124.806 27.6407 125.102 27.1711 125.197 26.6441C125.222 26.4497 125.225 26.253 125.203 26.0581Z" fill="#455A64"/>
<path d="M110.396 32.9378C110.385 32.7265 110.414 32.5149 110.484 32.3148C110.62 31.8267 110.849 31.3693 111.158 30.9678C111.331 30.7469 111.528 30.5448 111.744 30.365C111.92 30.2035 112.133 30.0879 112.364 30.0283C112.523 29.9933 112.688 30.011 112.836 30.0788C112.937 30.1327 112.974 30.1832 112.967 30.1899C112.787 30.1039 112.582 30.0825 112.388 30.1293C111.937 30.3216 111.551 30.6396 111.276 31.0453C110.973 31.4363 110.736 31.8743 110.575 32.3418C110.457 32.6886 110.42 32.9378 110.396 32.9378Z" fill="#455A64"/>
<path d="M110.993 34.8711C111 34.6588 111.043 34.4493 111.121 34.2515C111.288 33.7602 111.544 33.3036 111.875 32.9045C112.205 32.509 112.605 32.1779 113.055 31.9279C113.236 31.8157 113.436 31.7359 113.645 31.6921C113.645 31.7157 113.432 31.8134 113.109 32.0289C112.258 32.5651 111.597 33.3541 111.218 34.2852C111.155 34.4849 111.08 34.6806 110.993 34.8711Z" fill="#455A64"/>
<path d="M131.036 127.566L136.199 134.349L138.733 140.892C138.777 141.003 138.843 141.104 138.927 141.189C139.011 141.274 139.112 141.341 139.223 141.386C139.335 141.43 139.454 141.451 139.573 141.448C139.693 141.445 139.811 141.417 139.919 141.367C140.046 141.308 140.156 141.22 140.241 141.109C140.326 140.999 140.383 140.87 140.408 140.733C140.728 138.962 141.877 132.432 141.473 131.958C141.001 131.405 136.502 124.441 136.502 124.441L131.036 127.566Z" fill="#455A64"/>
<g opacity="0.6">
<path d="M139.919 141.373L141.132 131.496L141.345 131.789C141.529 132.041 141.618 132.35 141.594 132.662C141.53 133.497 141.301 135.79 140.428 140.727C140.403 140.868 140.343 141.001 140.254 141.114C140.166 141.226 140.051 141.316 139.919 141.373Z" fill="white"/>
</g>
<g opacity="0.6">
<path d="M138.103 130.297C138.062 130.421 138.069 130.555 138.122 130.674C138.175 130.793 138.27 130.888 138.389 130.941C138.511 130.986 138.647 130.983 138.766 130.93C138.886 130.878 138.98 130.782 139.03 130.661C139.069 130.531 139.06 130.39 139.004 130.266C138.947 130.142 138.847 130.043 138.723 129.988C138.59 129.954 138.45 129.974 138.332 130.043C138.213 130.111 138.126 130.223 138.089 130.355" fill="white"/>
</g>
<path d="M139.309 137.215C138.992 137.095 138.647 137.062 138.313 137.122C137.978 137.181 137.666 137.329 137.409 137.551C137.392 137.551 137.439 137.423 137.584 137.282C137.781 137.106 138.024 136.989 138.285 136.945C138.545 136.9 138.813 136.93 139.057 137.033C139.239 137.103 139.323 137.198 139.309 137.215Z" fill="#263238"/>
<path d="M139.488 138.494C139.21 138.527 138.934 138.577 138.662 138.643C138.228 138.791 137.968 139.08 137.924 139.043C137.881 139.006 138.106 138.636 138.598 138.464C138.738 138.398 138.892 138.366 139.047 138.372C139.202 138.377 139.353 138.419 139.488 138.494Z" fill="#263238"/>
<path d="M139.367 135.369C138.933 135.381 138.502 135.427 138.076 135.507C137.664 135.645 137.263 135.814 136.876 136.012C137.186 135.678 137.586 135.44 138.027 135.326C138.469 135.212 138.933 135.227 139.367 135.369Z" fill="#263238"/>
<path d="M137.968 133.174C137.968 133.231 137.483 133.345 136.974 133.689C136.465 134.032 136.159 134.433 136.112 134.403C136.282 134.05 136.544 133.75 136.871 133.533C137.198 133.317 137.577 133.193 137.968 133.174Z" fill="#263238"/>
<path d="M136.512 131.146C136.14 131.264 135.786 131.434 135.461 131.651C135.171 131.914 134.92 132.215 134.713 132.547C134.689 132.547 134.713 132.399 134.797 132.19C134.924 131.921 135.111 131.686 135.346 131.504C135.58 131.321 135.854 131.196 136.145 131.139C136.364 131.099 136.512 131.122 136.512 131.146Z" fill="#263238"/>
<path d="M135.188 131.271C135.188 131.271 135.097 131.196 134.989 131.018C134.838 130.762 134.74 130.478 134.699 130.183C134.653 129.97 134.677 129.748 134.767 129.55C134.802 129.486 134.856 129.435 134.922 129.404C134.989 129.374 135.063 129.366 135.134 129.381C135.271 129.414 135.391 129.497 135.471 129.614C135.624 129.857 135.687 130.146 135.65 130.43C135.612 130.715 135.476 130.978 135.266 131.173C135.053 131.361 134.79 131.482 134.508 131.521C134.227 131.56 133.941 131.515 133.685 131.392C133.622 131.36 133.566 131.315 133.521 131.26C133.476 131.205 133.444 131.141 133.426 131.072C133.413 131 133.425 130.926 133.458 130.861C133.491 130.796 133.545 130.743 133.611 130.712C133.807 130.626 134.022 130.594 134.234 130.617C134.531 130.632 134.823 130.698 135.097 130.813C135.2 130.847 135.295 130.902 135.377 130.974C135.008 130.845 134.622 130.771 134.231 130.752C134.045 130.737 133.858 130.77 133.688 130.846C133.653 130.863 133.623 130.892 133.605 130.927C133.587 130.962 133.581 131.002 133.587 131.042C133.603 131.086 133.627 131.126 133.659 131.16C133.691 131.195 133.73 131.222 133.773 131.24C133.996 131.342 134.243 131.376 134.486 131.34C134.728 131.303 134.954 131.197 135.137 131.035C135.315 130.869 135.431 130.649 135.466 130.409C135.502 130.169 135.455 129.924 135.333 129.715C135.281 129.631 135.199 129.57 135.104 129.543C135.065 129.534 135.024 129.539 134.988 129.555C134.951 129.571 134.921 129.599 134.902 129.634C134.825 129.801 134.801 129.988 134.834 130.169C134.884 130.555 135.004 130.928 135.188 131.271Z" fill="#263238"/>
<path d="M126.177 130.82L125.166 137.696C125.166 137.696 131.869 140.522 131.805 141.811L118.349 140.845L119.475 130.069L126.177 130.82Z" fill="#455A64"/>
<g opacity="0.6">
<path d="M121.089 136.659C120.955 136.685 120.836 136.759 120.754 136.867C120.672 136.975 120.633 137.11 120.644 137.245C120.664 137.379 120.734 137.5 120.841 137.583C120.948 137.666 121.082 137.705 121.217 137.693C121.358 137.665 121.485 137.586 121.572 137.471C121.659 137.356 121.7 137.213 121.688 137.07C121.652 136.933 121.564 136.815 121.443 136.741C121.322 136.667 121.177 136.643 121.038 136.672" fill="white"/>
</g>
<g opacity="0.6">
<path d="M118.356 140.845L118.47 139.757L131.431 141.145C131.563 141.225 131.672 141.338 131.75 141.472C131.827 141.606 131.869 141.758 131.872 141.912L118.356 140.845Z" fill="white"/>
</g>
<path d="M125.392 137.649C125.392 137.716 125.055 137.71 124.718 137.885C124.381 138.06 124.172 138.316 124.115 138.282C124.057 138.249 124.196 137.885 124.617 137.679C125.038 137.474 125.419 137.592 125.392 137.649Z" fill="#263238"/>
<path d="M126.74 138.386C126.74 138.45 126.45 138.531 126.201 138.784C125.951 139.036 125.864 139.323 125.786 139.312C125.709 139.302 125.719 138.925 126.039 138.619C126.359 138.312 126.74 138.322 126.74 138.386Z" fill="#263238"/>
<path d="M127.353 140.154C127.293 140.154 127.239 139.818 127.444 139.481C127.65 139.144 127.973 139.03 127.997 139.087C128.02 139.144 127.808 139.316 127.64 139.599C127.471 139.882 127.414 140.154 127.353 140.154Z" fill="#263238"/>
<path d="M125.453 136.059C125.419 136.117 125.116 135.992 124.755 135.975C124.394 135.958 124.081 136.046 124.054 135.975C124.027 135.904 124.327 135.713 124.765 135.736C125.203 135.76 125.49 136.009 125.453 136.059Z" fill="#263238"/>
<g opacity="0.3">
<path d="M125.975 132.18L125.8 133.406L119.215 132.625L119.33 131.517L125.975 132.18Z" fill="black"/>
</g>
<path d="M125.628 134.669C125.4 134.703 125.168 134.677 124.954 134.591C124.718 134.522 124.492 134.423 124.28 134.298C124.153 134.224 124.032 134.142 123.916 134.052C123.845 134.003 123.782 133.941 123.731 133.87C123.696 133.821 123.677 133.762 123.677 133.702C123.677 133.642 123.696 133.583 123.731 133.534C123.769 133.492 123.816 133.459 123.868 133.439C123.921 133.419 123.978 133.411 124.034 133.416C124.12 133.424 124.203 133.445 124.283 133.476C124.422 133.528 124.556 133.591 124.684 133.665C124.899 133.793 125.094 133.954 125.261 134.14C125.54 134.477 125.618 134.719 125.598 134.729C125.577 134.739 125.436 134.527 125.146 134.254C124.977 134.096 124.788 133.96 124.583 133.85C124.464 133.788 124.34 133.734 124.213 133.689C124.074 133.638 123.953 133.621 123.909 133.689C123.866 133.756 123.893 133.719 123.909 133.766C123.95 133.816 123.996 133.86 124.048 133.897C124.155 133.984 124.267 134.064 124.385 134.137C124.582 134.262 124.791 134.369 125.008 134.456C125.22 134.512 125.427 134.583 125.628 134.669Z" fill="#263238"/>
<path d="M125.533 134.753C125.427 134.546 125.39 134.309 125.429 134.08C125.443 133.829 125.502 133.583 125.601 133.352C125.658 133.216 125.731 133.086 125.817 132.965C125.862 132.88 125.928 132.808 126.01 132.756C126.092 132.705 126.185 132.676 126.282 132.672C126.341 132.68 126.397 132.705 126.443 132.744C126.489 132.782 126.523 132.833 126.541 132.891C126.566 132.973 126.58 133.058 126.581 133.143C126.59 133.295 126.574 133.448 126.534 133.595C126.472 133.846 126.346 134.078 126.17 134.268C125.87 134.588 125.587 134.635 125.587 134.605C125.587 134.575 125.81 134.47 126.046 134.157C126.183 133.978 126.279 133.771 126.329 133.551C126.358 133.423 126.368 133.291 126.359 133.16C126.359 133.015 126.312 132.894 126.258 132.904C126.204 132.914 126.066 132.992 125.998 133.1C125.92 133.205 125.851 133.318 125.793 133.436C125.693 133.65 125.624 133.877 125.587 134.11C125.527 134.494 125.571 134.746 125.533 134.753Z" fill="#263238"/>
<path d="M130.376 73.6082C130.376 73.6082 133.55 79.6933 133.55 84.6167C133.55 85.6573 127.107 137.309 127.107 137.309L118.009 136.541L122.43 88.8194L120.998 79.1209L130.376 73.6082Z" fill="#263238"/>
<path d="M110.073 78.9995C110.073 78.9995 112.202 96.7836 113.203 103.637C114.251 110.809 116.307 112.163 116.307 112.163L134.491 135.127L140.462 129.836L124.802 106.351C124.802 106.351 121.486 78.3092 121.621 79.0029C121.756 79.6966 110.073 78.9995 110.073 78.9995Z" fill="#263238"/>
<path d="M116.63 112.46C116.672 112.539 116.723 112.614 116.782 112.682L117.254 113.288L118.982 115.514L124.634 122.923C126.834 125.812 128.843 128.422 130.329 130.284C131.07 131.217 131.677 131.968 132.108 132.473L132.603 133.059C132.659 133.129 132.72 133.194 132.785 133.254C132.742 133.176 132.69 133.102 132.63 133.035C132.512 132.881 132.357 132.679 132.162 132.429L130.447 130.187C128.988 128.281 126.996 125.674 124.795 122.778C122.595 119.882 120.573 117.296 119.087 115.443C118.346 114.511 117.739 113.76 117.308 113.251L116.812 112.669C116.758 112.594 116.697 112.524 116.63 112.46Z" fill="#455A64"/>
<path d="M122.811 89.4121C122.806 89.4389 122.806 89.4662 122.811 89.4929L122.831 89.7286C122.851 89.9532 122.881 90.2562 122.922 90.6379C123.01 91.4394 123.131 92.5776 123.286 93.9751C123.623 96.8039 124.061 100.687 124.553 104.977C124.61 105.448 124.664 105.917 124.718 106.354V106.378V106.395L130.346 114.834C131.057 115.891 131.633 116.743 132.031 117.346C132.226 117.632 132.384 117.854 132.496 118.02L132.62 118.195C132.651 118.232 132.664 118.252 132.667 118.248C132.659 118.226 132.648 118.204 132.634 118.185L132.523 118.003L132.084 117.312L130.447 114.77L124.863 106.297V106.334C124.812 105.893 124.755 105.425 124.701 104.953C124.186 100.666 123.721 96.7837 123.384 93.9583C123.205 92.5608 123.063 91.4259 122.962 90.6244C122.912 90.2439 122.871 89.9509 122.841 89.7219C122.824 89.6276 122.814 89.5502 122.804 89.4862C122.794 89.4222 122.814 89.4087 122.811 89.4121Z" fill="#455A64"/>
<g opacity="0.3">
<path d="M110.902 85.7347C110.902 85.7347 117.978 87.597 122.817 86.8224C129.661 85.7347 133.405 82.6063 133.405 82.6063L132.795 80.6531L110.608 83.4515L110.902 85.7347Z" fill="black"/>
</g>
<path d="M122.022 45.3308L127.414 46.8799C127.414 46.8799 130.598 69.5368 131.387 72.8438C132.378 76.9892 133.493 80.2524 133.409 81.4176C133.409 81.4176 130.952 84.674 123.71 85.526C116.469 86.378 109.554 84.3541 109.554 84.3541L108.961 70.7592C108.961 70.7592 105.618 58.5889 105.547 56.5583C105.365 51.5675 106.578 48.6613 106.578 48.6613L113.79 45.4318C115.798 47.6746 120.951 48.429 122.022 45.3308Z" fill="#FF725E"/>
<path d="M132.021 51.0355C131.581 50.063 130.944 49.1919 130.152 48.4768C129.359 47.7617 128.427 47.218 127.414 46.8799L127.876 58.269L130.855 61.9901L127.876 64.0107L132.88 70.4999C132.88 70.4999 137.675 68.2504 137.887 66.2299C138.1 64.2093 132.806 52.8068 132.021 51.0355Z" fill="#FF725E"/>
<path d="M118.288 63.5828L117.068 67.8158C121.277 72.8031 132.873 70.4896 132.873 70.4896L128.26 63.9768C125.867 64.7681 118.288 63.5828 118.288 63.5828Z" fill="#FF725E"/>
<path d="M117.261 62.9801C117.261 62.9801 115.097 58.7201 114.865 58.6696C114.632 58.6191 111.228 57.4236 111.228 57.4236C111.126 57.6995 111.126 58.0031 111.228 58.2789L110.009 58.4339C110.009 58.4339 110.191 59.1882 110.605 59.2926L110.164 59.6798C110.385 59.974 110.669 60.2146 110.996 60.3837C111.121 60.4454 111.259 60.4776 111.399 60.4776C111.538 60.4776 111.676 60.4454 111.801 60.3837C111.801 60.3837 111.643 60.6665 112.344 61.1077C113.045 61.5488 114.46 63.5963 114.46 63.5963L117.261 62.9801Z" fill="#FFBF9D"/>
<path d="M111.336 58.2925C112.055 58.6404 112.8 58.9309 113.564 59.1613C113.874 59.2724 114.184 59.3566 114.427 59.4711C114.641 59.5777 114.819 59.7467 114.935 59.9561C115.138 60.3231 115.215 60.5892 115.245 60.5757C115.231 60.3395 115.164 60.1094 115.05 59.9022C114.936 59.6554 114.745 59.4529 114.504 59.3263C114.218 59.1971 113.924 59.0847 113.624 58.9896C112.881 58.6994 112.116 58.4664 111.336 58.2925Z" fill="#FF9A6C"/>
<path d="M110.544 59.2925C110.733 59.4062 110.941 59.4828 111.158 59.5181C111.549 59.6225 112.098 59.7101 112.681 59.8549C113.178 59.9791 113.646 60.1987 114.059 60.5014C114.369 60.7439 114.507 60.9527 114.534 60.9359C114.459 60.7243 114.323 60.5394 114.143 60.4038C113.737 60.0534 113.253 59.8042 112.732 59.6764C112.132 59.5147 111.579 59.4474 111.185 59.3767C110.974 59.3288 110.76 59.3006 110.544 59.2925Z" fill="#FF9A6C"/>
<path d="M113.661 61.0874C113.441 60.8371 113.16 60.6471 112.846 60.5351C112.532 60.4232 112.194 60.3931 111.865 60.4476C111.865 60.5015 112.293 60.5318 112.785 60.7102C113.277 60.8887 113.628 61.1312 113.661 61.0874Z" fill="#FF9A6C"/>
<path d="M108.563 48.7184C110.103 49.0956 110.558 50.904 111.623 54.5207C112.688 58.1375 113.857 61.862 113.857 61.862L114.46 63.5963L127.872 60.3601L130.585 64.6537C130.585 64.6537 121.864 71.5774 115.592 71.8536C112.539 71.5707 110.538 70.4257 108.061 66.3106C106.652 63.987 105.729 61.8317 105.311 59.7337C104.728 56.8073 103.751 53.9449 104.573 51.1768C105.217 49.0013 106.362 48.1796 108.563 48.7184Z" fill="#FF725E"/>
<path d="M128.25 57.2854C128.214 56.6758 128.118 56.0712 127.963 55.4804C127.868 54.8766 127.711 54.2841 127.495 53.7124C127.533 54.3218 127.629 54.9262 127.781 55.5174C127.878 56.121 128.034 56.7133 128.25 57.2854Z" fill="#263238"/>
<g opacity="0.3">
<path d="M118.777 71.2709C119.559 70.9484 120.373 70.7123 121.207 70.5671C122.1 70.4324 122.851 70.6984 123.744 70.8365C126.41 71.254 128.398 70.9375 130.912 70.8365L131.05 71.6076C129.945 72.4697 128.553 72.7459 127.148 72.7189C125.877 72.6954 124.627 72.2812 123.353 72.3182C122.352 72.401 121.364 72.5987 120.408 72.9075C118.797 73.3921 117.105 73.5423 115.434 73.3487C111.265 72.7223 109.658 69.4457 108.964 67.9202C109.307 68.4743 109.692 69.0012 110.116 69.4962C112.768 72.2475 116.576 72.197 118.777 71.2709Z" fill="black"/>
</g>
<path d="M131.05 64.6906C131.03 64.7116 131.009 64.7308 130.986 64.7479L130.791 64.8994C130.615 65.0341 130.356 65.2361 130.015 65.4651C129.341 65.9467 128.331 66.6202 127.074 67.3981C125.591 68.3162 124.059 69.1515 122.484 69.9002C122.039 70.109 121.584 70.3279 121.102 70.5131L120.378 70.8095C120.132 70.9037 119.879 70.9879 119.626 71.0755C118.581 71.4486 117.5 71.716 116.401 71.8736C115.842 71.9313 115.278 71.946 114.716 71.9174C114.167 71.8621 113.628 71.7342 113.112 71.5368C112.146 71.1511 111.266 70.5789 110.521 69.8531C109.286 68.6086 108.267 67.1679 107.505 65.5897C106.98 64.5395 106.529 63.4535 106.157 62.34C106.022 61.946 105.931 61.6362 105.874 61.4241C105.851 61.3253 105.831 61.2445 105.813 61.1816C105.808 61.1538 105.808 61.1252 105.813 61.0974C105.827 61.1228 105.837 61.15 105.844 61.1782L105.921 61.414C105.992 61.6228 106.093 61.9258 106.234 62.3165C106.63 63.4189 107.097 64.4943 107.633 65.5359C108.403 67.09 109.422 68.5083 110.649 69.7352C111.38 70.4451 112.243 71.0045 113.19 71.3819C113.691 71.5748 114.216 71.6983 114.75 71.749C115.303 71.778 115.857 71.7633 116.408 71.7052C117.495 71.5489 118.564 71.2861 119.599 70.9206L120.344 70.6579L121.065 70.3649C121.544 70.1797 121.999 69.9676 122.443 69.7621C124.007 69.0163 125.531 68.1902 127.01 67.287C128.28 66.5226 129.288 65.8659 129.975 65.4012L130.77 64.8657L130.976 64.7276C131.023 64.7041 131.047 64.6872 131.05 64.6906Z" fill="#263238"/>
<path d="M111.265 52.9111C111.272 52.9857 111.288 53.0592 111.313 53.13C111.356 53.2849 111.414 53.4904 111.481 53.7463L112.135 56.0228C112.708 57.9625 113.483 60.6262 114.379 63.62L114.403 63.6974L114.49 63.6739C114.804 63.5964 115.164 63.5189 115.535 63.4415C118.841 62.7343 121.823 62.044 123.96 61.4782C125.031 61.2021 125.894 60.9495 126.487 60.771L127.161 60.5521C127.241 60.5301 127.318 60.502 127.394 60.4679C127.311 60.4761 127.229 60.4942 127.151 60.5218L126.477 60.707C125.877 60.8653 125.011 61.0977 123.936 61.3603C121.789 61.8958 118.804 62.5659 115.511 63.2731C115.144 63.3539 114.8 63.4247 114.443 63.5156L114.554 63.5695L112.249 55.9891C111.956 55.0428 111.717 54.2784 111.545 53.7295C111.464 53.4769 111.397 53.2748 111.346 53.1199C111.328 53.0474 111.3 52.9774 111.265 52.9111Z" fill="#263238"/>
<path d="M131.7 63.6502L137.459 63.5458C137.737 63.5391 138.006 63.4468 138.229 63.2817C138.452 63.1165 138.619 62.8865 138.706 62.6231L142.076 52.4261C142.329 51.6583 141.763 51.0353 140.853 50.9848L133.803 50.5874C132.671 50.5874 132.068 50.941 131.876 51.5977L129.675 59.6293C129.099 61.4815 130.036 63.5828 131.7 63.6502Z" fill="#263238"/>
<path d="M127.606 59.7639L128.526 57.8141L130.228 57.3359L129.685 59.1308C130.278 59.4204 131.064 59.6057 131.576 59.3228C132.088 59.0399 134.1 57.0429 134.481 57.2349C134.861 57.4268 135.198 57.8848 134.851 58.3226C134.504 58.7604 132.62 60.1209 133.008 60.5216C133.395 60.9224 135.569 59.1746 136.206 59.2925C136.843 59.4103 137.234 59.7942 136.88 60.067C136.526 60.3398 135.65 61.212 135.495 61.5959C135.532 62.0741 135.761 62.7543 135.552 62.8722C135.04 63.1142 134.504 63.2994 133.951 63.4245C133.837 63.4245 133.028 63.7612 132.283 64.0475C131.446 64.3862 130.514 64.4078 129.662 64.1081L129.23 63.9565C128.901 63.8398 128.615 63.6234 128.414 63.3374C128.213 63.0513 128.106 62.7099 128.108 62.3603L128.125 60.9224L127.606 59.7639Z" fill="#FFBF9D"/>
</svg>
