<svg width="157" height="137" viewBox="0 0 157 137" fill="none" xmlns="http://www.w3.org/2000/svg">
<path d="M28.0608 81.4205L19.381 77.1598C19.381 77.1598 16.805 71.4414 16.6183 71.5536C16.4317 71.6657 0.0052727 68.1711 0.0052727 68.1711C0.0052727 68.1711 -0.181392 77.8699 1.66658 79.9442C3.51455 82.0185 14.733 82.9529 15.3117 83.3079C15.8904 83.663 17.1783 82.5044 17.1783 82.5044L26.5115 88.5778L28.0608 81.4205Z" fill="#EBB376"/>
<path d="M122.886 8.31589C122.886 8.31589 119.283 0 107.654 0C96.0252 0 86.3373 6.93301 86.8973 15.8095C87.4573 24.686 80.7934 23.8451 79.6921 32.4413C78.5908 41.0375 82.7347 43.2426 83.0147 46.8493C83.2947 50.456 78.5908 49.3534 75.5482 55.4455C72.5055 61.5376 68.6229 70.1338 81.6521 81.6079C94.6812 93.0819 131.491 90.9516 139.518 84.0933C147.544 77.235 147.283 63.8548 139.518 60.2482C131.753 56.6415 138.977 57.2021 139.798 49.1665C140.619 41.131 133.433 38.0849 133.974 31.6938C134.515 25.3027 136.457 8.8952 122.886 8.31589Z" fill="#263238"/>
<path d="M77.6944 62.2664V85.121C77.6944 85.121 75.7344 87.5691 72.8038 90.7273C69.7161 94.1033 66.3299 97.1931 62.6866 99.9588C59.1773 102.5 55.6494 104.238 52.7934 103.883C43.7589 102.706 19.3806 88.6903 19.3806 88.6903L23.4498 77.9077C23.4498 77.9077 51.1321 92.1662 52.7934 90.6899C54.4547 89.2136 72.6171 63.5558 77.6944 62.2664Z" fill="#407BFF"/>
<path opacity="0.2" d="M72.8041 90.7095C69.7164 94.0856 66.3302 97.1753 62.6869 99.9411C61.3616 89.7378 73.0467 77.1611 73.0467 77.1611C73.0467 77.1611 73.2147 83.6457 72.8041 90.7095Z" fill="black"/>
<path d="M123.017 136.231H95.5957H94.7931H75.212C75.3054 135.371 75.38 134.605 75.4547 133.988C75.5294 133.372 75.5854 132.643 75.6227 132.232C75.66 131.821 75.6227 131.877 75.6227 131.708C75.6136 131.653 75.6136 131.596 75.6227 131.54H77.4893H79.7853L85.6839 131.765L95.8197 132.138L105.806 132.512L108.102 132.605L116.801 132.923L121.579 133.11C122.158 134.231 122.587 135.222 123.017 136.231Z" fill="#407BFF"/>
<path opacity="0.4" d="M123.017 136.231H95.5957H94.7931H75.212C75.3054 135.371 75.38 134.605 75.4547 133.988C75.5294 133.372 75.5854 132.643 75.6227 132.232C75.66 131.821 75.6227 131.877 75.6227 131.708C75.6136 131.653 75.6136 131.596 75.6227 131.54H77.4893H79.7853L85.6839 131.765L95.8197 132.157L105.806 132.531H108.102L116.801 132.848L121.579 133.035C122.158 134.231 122.587 135.222 123.017 136.231Z" fill="white"/>
<path d="M121.691 136.231H106.179L105.75 136.212L95.6513 135.614L85.5155 135.035L79.7289 134.699L77.4516 134.568L75.473 134.456H75.4543V133.989L75.305 126.458H75.3423L76.1263 126.532L77.7129 126.663L79.9902 126.85L105.993 129.055L108.27 129.242L116.576 129.933L121.579 130.363L121.635 133.26V133.278L121.691 136.231Z" fill="#263238"/>
<path d="M96.137 128.607V128.681L95.8757 132.288V132.307L95.6517 135.614L95.5957 136.231V136.287L94.7931 136.231L85.4785 135.577L85.5159 135.035L85.7398 131.914L86.0198 128.009V127.896L96.137 128.607Z" fill="white"/>
<path d="M108.308 127.878L108.27 129.242L108.252 129.485L108.158 132.756V132.774L108.046 136.231H105.75V136.213L105.862 132.681V132.662L105.974 129.336L105.993 129.056L106.03 127.803L108.27 127.878H108.308Z" fill="#407BFF"/>
<path opacity="0.4" d="M108.308 127.878L108.27 129.242L108.252 129.485L108.158 132.756V132.774L108.046 136.231H105.75V136.213L105.862 132.681V132.662L105.974 129.336L105.993 129.056L106.03 127.803L108.27 127.878H108.308Z" fill="white"/>
<path d="M80.0466 125.318L79.9906 126.85L79.9719 127.598L79.8412 131.69L79.7292 134.699L79.6732 136.231H77.3959L77.4519 134.568L77.5453 131.615L77.6759 127.448L77.7133 126.663L77.7506 125.243L80.0466 125.318Z" fill="#407BFF"/>
<path opacity="0.4" d="M80.0466 125.318L79.9906 126.85L79.9719 127.598L79.8412 131.69L79.7292 134.699L79.6732 136.231H77.3959L77.4519 134.568L77.5453 131.615L77.6759 127.448L77.7133 126.663L77.7506 125.243L80.0466 125.318Z" fill="white"/>
<path d="M75.3987 127.317L121.579 130.364C122.307 118.871 123.147 115.414 126.601 101.622C127.702 97.1934 129.083 92.2786 130.875 86.5416C131.827 83.4769 132.873 80.2066 134.048 76.6746C134.926 74.0023 135.915 71.0684 136.923 68.1532C130.654 66.1434 124.247 64.5945 117.753 63.5187C110.902 62.287 103.971 61.5562 97.0144 61.3323C88.0172 61.3323 77.6947 62.2666 77.6947 62.2666C77.6947 62.2666 76.22 62.6217 75.2867 72.1523C74.484 81.1222 73.5507 94.7267 75.3987 127.317Z" fill="#263238"/>
<path opacity="0.4" d="M75.3987 127.317L121.579 130.364C122.307 118.871 123.147 115.414 126.601 101.622C127.702 97.1934 129.083 92.2786 130.875 86.5416C131.827 83.4769 132.873 80.2066 134.048 76.6746C134.926 74.0023 135.915 71.0684 136.923 68.1532C130.654 66.1434 124.247 64.5945 117.753 63.5187C110.902 62.287 103.971 61.5562 97.0144 61.3323C88.0172 61.3323 77.6947 62.2666 77.6947 62.2666C77.6947 62.2666 76.22 62.6217 75.2867 72.1523C74.484 81.1222 73.5507 94.7267 75.3987 127.317Z" fill="white"/>
<path d="M100.822 71.5356C112.209 70.078 115.625 65.2006 115.625 65.2006C108.401 58.3797 114.411 46.5132 114.411 46.5132L100.617 49.1294C100.943 51.0376 101.124 52.968 101.158 54.9038C101.27 63.2197 97.4248 63.3131 97.4248 63.3131C95.1662 67.8168 100.822 71.5356 100.822 71.5356Z" fill="#EBB376"/>
<path opacity="0.2" d="M100.617 49.1287C100.944 51.0369 101.125 52.9673 101.158 54.9031C103.902 54.8251 106.574 54.0082 108.893 52.5382C111.213 51.0682 113.093 48.9995 114.337 46.5498L100.617 49.1287Z" fill="black"/>
<path d="M108.27 10.7643C96.361 10.1102 92.1797 16.3705 90.6304 28.536C88.7637 43.841 91.5077 54.9413 106.59 52.4746C127.067 49.1108 128.056 11.8295 108.27 10.7643Z" fill="#EBB376"/>
<path d="M98.3767 28.2747C97.3288 30.0023 96.0752 31.5962 94.6434 33.0213C94.9668 33.5352 95.4252 33.95 95.9685 34.2203C96.5118 34.4906 97.119 34.6059 97.7234 34.5536L98.3767 28.2747Z" fill="#D58745"/>
<path d="M105.713 27.6955C105.713 28.6673 106.105 29.5643 106.758 29.5643C107.411 29.5643 108.009 28.8542 108.083 27.8824C108.158 26.9107 107.691 26.0137 107.038 26.0137C106.385 26.0137 105.787 26.7238 105.713 27.6955Z" fill="#263238"/>
<path d="M107.3 26.0887L105.246 25.0796C105.246 25.0796 106.217 26.967 107.3 26.0887Z" fill="#263238"/>
<path d="M93.5796 26.5369C93.5796 27.5273 93.9716 28.4056 94.6249 28.4056C95.2782 28.4056 95.8569 27.7142 95.9316 26.7237C96.0062 25.7333 95.5582 24.855 94.9049 24.855C94.2516 24.855 93.6543 25.5651 93.5796 26.5369Z" fill="#263238"/>
<path d="M95.1666 24.9293L93.1506 23.8455C93.1506 23.8455 94.028 25.8076 95.1666 24.9293Z" fill="#263238"/>
<path d="M111.35 22.2379C111.244 22.2344 111.141 22.2074 111.048 22.1589C110.954 22.1104 110.872 22.0417 110.808 21.9576C110.25 21.3296 109.557 20.8356 108.781 20.5121C108.006 20.1886 107.167 20.044 106.329 20.0889C106.15 20.1013 105.974 20.0423 105.84 19.9249C105.705 19.8074 105.622 19.6413 105.61 19.4628C105.598 19.2844 105.656 19.1084 105.774 18.9734C105.891 18.8385 106.057 18.7558 106.235 18.7434C107.287 18.6755 108.34 18.8528 109.312 19.2614C110.283 19.67 111.147 20.2986 111.835 21.098C111.935 21.2465 111.975 21.4271 111.947 21.6038C111.919 21.7805 111.826 21.9402 111.686 22.051C111.59 22.139 111.475 22.2031 111.35 22.2379Z" fill="#2E353A"/>
<path d="M92.8516 19.8826C92.7343 19.882 92.619 19.8507 92.5175 19.7916C92.416 19.7326 92.3317 19.648 92.273 19.5462C92.2267 19.4707 92.1962 19.3866 92.1834 19.2989C92.1705 19.2113 92.1756 19.1219 92.1983 19.0363C92.221 18.9507 92.2608 18.8706 92.3154 18.8008C92.3699 18.7311 92.4381 18.6732 92.5157 18.6306C93.3005 18.0995 94.196 17.7545 95.1339 17.6218C96.0719 17.489 97.0278 17.572 97.9289 17.8644C98.09 17.9417 98.216 18.077 98.2818 18.2433C98.3475 18.4096 98.3481 18.5946 98.2836 18.7614C98.2063 18.9226 98.0711 19.0488 97.905 19.1146C97.7389 19.1804 97.5542 19.1811 97.3876 19.1164C96.6821 18.9047 95.938 18.8553 95.2108 18.9718C94.4835 19.0883 93.7919 19.3677 93.1877 19.7892C93.0855 19.8486 92.9698 19.8807 92.8516 19.8826Z" fill="#2E353A"/>
<path d="M99.1794 39.3376C99.6708 40.7142 100.058 42.126 100.337 43.5609H101.121C104.611 43.4114 106.161 42.1781 106.851 40.8699C107.157 40.2153 107.31 39.4996 107.299 38.777C107.303 38.3673 107.252 37.9589 107.15 37.5623C105.044 38.6263 102.732 39.2193 100.374 39.3002C99.6461 39.3376 99.1794 39.3376 99.1794 39.3376Z" fill="#263238"/>
<path d="M100.374 39.2633L100.748 40.4967C104.033 40.3472 106.348 39.7866 107.3 38.7401C107.303 38.3304 107.253 37.9221 107.15 37.5254C105.044 38.5894 102.732 39.1824 100.374 39.2633Z" fill="white"/>
<path d="M101.121 43.5238C104.612 43.3743 106.161 42.1409 106.852 40.8328C105.525 40.9164 104.224 41.2327 103.006 41.7671C102.211 42.1427 101.552 42.7566 101.121 43.5238Z" fill="#DE5753"/>
<path d="M120.198 31.5639C120.198 31.5639 115.158 21.454 116.465 13.9417C116.465 13.9417 93.3744 2.99087 90.8917 27.0229C90.8917 27.0229 89.7531 5.58844 110.267 6.22381C130.782 6.85918 129.046 36.8711 117.977 45.2244C117.939 45.131 123.315 37.8803 120.198 31.5639Z" fill="#263238"/>
<path d="M121.411 9.60549C121.411 9.60549 112.078 1.2896 103.604 2.85934C95.129 4.42908 96.585 15.6228 107.747 19.8649C118.91 24.1069 121.225 29.5823 121.225 29.5823L130.912 20.8927L121.411 9.60549Z" fill="#263238"/>
<path d="M123.446 30.2171L122.531 30.0115C122.531 30.0115 122.886 27.2271 115.532 24.6482C107.766 21.9386 98.9558 18.8552 97.7798 12.6323C97.5271 11.7466 97.4647 10.8174 97.5966 9.90591C97.7285 8.99438 98.0518 8.12115 98.5451 7.34372C98.848 6.94767 99.227 6.6163 99.6598 6.36918C100.093 6.12205 100.57 5.96415 101.065 5.90479V6.83916C100.697 6.88519 100.342 7.00487 100.022 7.19108C99.701 7.37729 99.4211 7.62622 99.1985 7.92303C98.7883 8.59659 98.5248 9.34921 98.4251 10.1317C98.3253 10.9142 98.3917 11.709 98.6198 12.4641C99.6838 18.1637 108.233 21.135 115.774 23.77C124.062 26.6478 123.465 30.0676 123.446 30.2171Z" fill="#263238"/>
<path d="M118.108 33.9746C118.307 32.6032 119.037 31.3656 120.141 30.5297C121.245 29.6937 122.634 29.3268 124.006 29.5083C127.739 30.1063 129.027 37.8055 119.732 39.1136C118.406 39.3005 117.734 37.9737 118.108 33.9746Z" fill="#EBB376"/>
<path d="M126.19 66.4711C126.19 66.4711 112.825 77.3285 100.374 77.1603C87.924 76.9921 83.5747 62.9766 83.5747 62.9766C97.8007 59.7254 112.682 60.9457 126.19 66.4711Z" fill="#EBB376"/>
<path d="M136.923 68.1531L135.747 82.2434L135.411 86.2799L134.758 94.2033L131.697 130.999L131.249 136.231H117.193C117.068 135.222 116.956 134.176 116.857 133.092C116.745 132.101 116.67 131.092 116.595 130.046V129.093C115.998 120.702 115.923 110.966 116.091 101.585C116.091 97.511 116.278 93.4932 116.409 89.6997C116.409 88.0178 116.539 86.3733 116.614 84.7849C116.689 83.1964 116.726 82.1125 116.782 80.8605C116.782 80.7671 116.782 80.6736 116.782 80.5802C116.782 80.3373 116.782 80.113 116.782 79.8701C116.782 78.2256 116.95 76.6558 117.025 75.1982C117.025 74.3199 117.137 73.479 117.174 72.6941C117.164 72.6134 117.164 72.5318 117.174 72.4512C117.174 71.8719 117.174 71.3112 117.174 70.788C117.398 67.0505 117.585 64.5651 117.641 63.855C117.645 63.7865 117.645 63.7179 117.641 63.6494C122.499 64.354 127.297 65.4221 131.995 66.8449L134.777 67.6672L136.027 68.0596L136.456 68.1904H136.718L136.923 68.1531Z" fill="#407BFF"/>
<path opacity="0.4" d="M119.806 81.6069L123.297 86.9701L116.017 101.453C116.353 81.6442 117.753 63.4988 117.753 63.4988L128.859 73.8516L119.806 81.6069Z" fill="white"/>
<path d="M92.8518 61.2202V61.351V61.4632C92.7212 61.7061 92.4972 62.1172 92.2172 62.6965L91.9932 63.1637C91.8999 63.3319 91.8252 63.5188 91.7319 63.7056L91.4518 64.3036C90.6679 65.9855 89.5852 68.3027 88.5026 71.3114C87.4199 74.3201 85.8333 78.5995 84.396 83.4209C83.7986 85.4204 83.2013 87.5508 82.6227 89.8306C82.4547 90.4099 82.3053 91.0079 82.156 91.6059C81.82 92.9701 81.484 94.3903 81.148 95.848C78.8308 105.992 77.1537 116.271 76.1268 126.626C76.1268 126.888 76.1268 127.168 76.1268 127.43C75.9961 128.813 75.8841 130.214 75.7721 131.634C75.763 131.69 75.763 131.747 75.7721 131.803C75.7721 131.971 75.7721 132.139 75.7721 132.326C75.7721 133.055 75.6788 133.802 75.6228 134.55L75.5108 136.325H73.3641L70.3775 134.942C69.879 120.798 70.1407 106.637 71.1615 92.5216C71.5908 87.1957 72.2068 82.0006 73.0281 77.2727C73.3455 75.5534 73.6815 73.8716 74.0734 72.3018C74.6559 69.6997 75.468 67.1544 76.5001 64.6961C76.8321 63.9225 77.206 63.1677 77.6201 62.4349H78.292L87.9986 61.7621L92.8518 61.2202Z" fill="#407BFF"/>
<path opacity="0.4" d="M92.833 61.2202C92.5343 61.7621 86.1131 73.4418 80.9985 95.848L78.7025 81.4213L83.5371 77.1606L78.7025 67.929L92.833 61.2202Z" fill="white"/>
<path d="M155.626 111.675C155.409 112.298 155.051 112.863 154.581 113.325C154.11 113.788 153.54 114.135 152.913 114.341C152.287 114.547 151.621 114.606 150.969 114.513C150.316 114.42 149.693 114.178 149.149 113.805C146.845 112.516 144.886 110.689 143.437 108.479C142.28 106.816 140.731 104.312 139.125 101.659C135.709 95.9215 132.163 89.5678 132.163 89.5678L136.941 68.0959C143.811 71.441 158.202 106.181 155.626 111.675Z" fill="#407BFF"/>
<path opacity="0.2" d="M149.15 113.862C146.845 112.573 144.886 110.746 143.438 108.536C142.28 106.873 140.731 104.369 139.126 101.715C140.344 99.4857 141.696 97.3327 143.176 95.2681L146.648 105.042C146.648 105.042 152.734 106.424 153.704 109.601C154.078 110.816 152.006 112.517 149.15 113.862Z" fill="black"/>
<path d="M148.944 85.9429L137.446 129.821C137.3 130.332 136.978 130.775 136.538 131.073C136.097 131.37 135.566 131.502 135.038 131.447L104.518 127.373C104.275 127.347 104.041 127.269 103.832 127.142C103.623 127.016 103.445 126.845 103.309 126.641C103.174 126.438 103.085 126.207 103.049 125.965C103.012 125.724 103.03 125.477 103.1 125.243L114.598 81.3645C114.748 80.8568 115.071 80.4178 115.511 80.1242C115.951 79.8305 116.48 79.7007 117.006 79.7574L147.526 83.8126C147.769 83.838 148.003 83.9168 148.212 84.0433C148.421 84.1697 148.599 84.3407 148.735 84.5441C148.87 84.7476 148.959 84.9784 148.996 85.2201C149.032 85.4619 149.014 85.7087 148.944 85.9429Z" fill="#263238"/>
<path opacity="0.1" d="M148.944 85.9431L137.446 129.821C137.299 130.332 136.978 130.776 136.537 131.073C136.097 131.37 135.566 131.503 135.038 131.447L105.918 127.56C105.675 127.534 105.441 127.455 105.231 127.329C105.021 127.202 104.842 127.032 104.705 126.829C104.568 126.626 104.477 126.396 104.439 126.154C104.4 125.912 104.414 125.665 104.481 125.43L115.998 81.5515C116.141 81.0433 116.46 80.6026 116.897 80.3081C117.335 80.0137 117.863 79.8848 118.387 79.9444L147.526 83.8127C147.768 83.8382 148.003 83.9169 148.212 84.0434C148.421 84.1698 148.599 84.3409 148.735 84.5443C148.87 84.7477 148.959 84.9785 148.995 85.2203C149.032 85.4621 149.014 85.7088 148.944 85.9431Z" fill="white"/>
<path opacity="0.3" d="M127.758 102.687C127.006 102.601 126.248 102.784 125.619 103.205C124.99 103.626 124.531 104.257 124.323 104.986C124.226 105.321 124.203 105.674 124.256 106.019C124.309 106.364 124.438 106.694 124.631 106.984C124.825 107.274 125.08 107.518 125.379 107.7C125.677 107.881 126.011 107.994 126.358 108.032C127.115 108.119 127.877 107.933 128.51 107.509C129.142 107.084 129.604 106.448 129.811 105.715C129.464 105.682 129.128 105.573 128.827 105.395C128.526 105.217 128.269 104.974 128.073 104.685C127.876 104.396 127.746 104.067 127.692 103.722C127.638 103.376 127.66 103.023 127.758 102.687Z" fill="white"/>
<path d="M151.427 122.085C149.374 123.169 144.726 121.525 143.326 120.964L142.878 120.796C142.878 120.796 140.358 112.517 146.947 108.051L147.097 107.958C149.206 106.836 155.702 108.294 155.907 110.48C156.616 119.32 153.872 120.796 151.427 122.085Z" fill="#407BFF"/>
<path opacity="0.2" d="M147.414 115.022C146.78 117.417 145.335 119.518 143.326 120.964L142.878 120.796C142.878 120.796 140.358 112.517 146.947 108.051L147.097 107.958C147.675 108.705 148.571 110.667 147.414 115.022Z" fill="black"/>
<path d="M137.95 104.537C137.95 104.537 142.187 104.35 144.128 104.537C146.07 104.724 145.472 110.984 145.472 110.984L147.152 111.881C147.152 111.881 148.496 115.619 145.603 117.488L144.091 116.983C143.817 117.882 143.252 118.664 142.486 119.207C141.272 119.936 135.374 118.272 135.374 118.272L137.95 104.537Z" fill="#EBB376"/>
</svg>
