<svg width="47" height="47" viewBox="0 0 47 47" fill="none" xmlns="http://www.w3.org/2000/svg">
<circle cx="23.5" cy="23.5" r="23.5" fill="#BF83FF"/>
<mask id="mask0_1012_1545" style="mask-type:alpha" maskUnits="userSpaceOnUse" x="0" y="0" width="47" height="47">
<circle cx="23.5" cy="23.5" r="23.5" fill="#C4C4C4"/>
</mask>
<g mask="url(#mask0_1012_1545)">
<path d="M23.5 12.1665C28.2195 12.1665 32.0459 15.9929 32.0459 20.7124V21.5835C32.9115 21.7291 33.5711 22.4803 33.5713 23.3872V25.48C33.5713 26.4064 32.8831 27.1694 31.9902 27.2915C31.6575 30.2893 29.7761 32.8181 27.1621 34.0601V36.8706C33.6257 37.2184 38.7598 42.5702 38.7598 49.1206H8.24023C8.24023 42.5702 13.3742 37.2184 19.8379 36.8706V34.0601C17.2239 32.8181 15.3415 30.2893 15.0088 27.2915C14.1164 27.169 13.4287 26.406 13.4287 25.48V23.3872C13.4289 22.4803 14.0885 21.7291 14.9541 21.5835V20.7124C14.9541 15.9929 18.7805 12.1665 23.5 12.1665Z" fill="#D0C6AC"/>
<mask id="mask1_1012_1545" style="mask-type:luminance" maskUnits="userSpaceOnUse" x="8" y="12" width="31" height="38">
<path d="M23.5 12.1665C28.2195 12.1665 32.0459 15.9929 32.0459 20.7124V21.5835C32.9115 21.7291 33.5711 22.4803 33.5713 23.3872V25.48C33.5713 26.4064 32.8831 27.1694 31.9902 27.2915C31.6575 30.2893 29.7761 32.8181 27.1621 34.0601V36.8706C33.6257 37.2184 38.7598 42.5702 38.7598 49.1206H8.24023C8.24023 42.5702 13.3742 37.2184 19.8379 36.8706V34.0601C17.2239 32.8181 15.3415 30.2893 15.0088 27.2915C14.1164 27.169 13.4287 26.406 13.4287 25.48V23.3872C13.4289 22.4803 14.0885 21.7291 14.9541 21.5835V20.7124C14.9541 15.9929 18.7805 12.1665 23.5 12.1665Z" fill="white"/>
</mask>
<g mask="url(#mask1_1012_1545)">
<rect width="40.2857" height="36.9538" transform="translate(3.35712 12.1665)" fill="#FFCCD7"/>
<rect x="3.35712" y="12.1665" width="40.2857" height="36.9538" fill="#FFCCD7"/>
<path d="M32.0453 27.5505C32.0452 32.2698 28.2196 36.0952 23.5004 36.0955C18.781 36.0955 14.9547 32.2699 14.9545 27.5505V26.3386C14.9545 31.0581 18.7809 34.8845 23.5004 34.8845C28.2197 34.8843 32.0453 31.058 32.0453 26.3386V27.5505Z" fill="black" fill-opacity="0.1"/>
</g>
<path d="M16.0361 37.7017C16.0275 37.7889 16.0225 37.8768 16.0225 37.9653C16.0225 40.4311 19.4045 42.4301 23.5762 42.4302C27.7479 42.4302 31.1299 40.4311 31.1299 37.9653C31.1299 37.8979 31.1261 37.8309 31.1211 37.7642C35.601 39.5889 38.7598 43.985 38.7598 49.1206H8.24023C8.24023 43.9251 11.4731 39.4868 16.0361 37.7017Z" fill="#6223A9"/>
<mask id="mask2_1012_1545" style="mask-type:luminance" maskUnits="userSpaceOnUse" x="8" y="37" width="31" height="13">
<path d="M16.0361 37.7017C16.0275 37.7889 16.0225 37.8768 16.0225 37.9653C16.0225 40.4311 19.4045 42.4301 23.5762 42.4302C27.7479 42.4302 31.1299 40.4311 31.1299 37.9653C31.1299 37.8979 31.1261 37.8309 31.1211 37.7642C35.601 39.5889 38.7598 43.985 38.7598 49.1206H8.24023C8.24023 43.9251 11.4731 39.4868 16.0361 37.7017Z" fill="white"/>
</mask>
<g mask="url(#mask2_1012_1545)">
<rect x="3.35712" y="32.4609" width="40.2857" height="16.6595" fill="#6223A9"/>
</g>
<path fill-rule="evenodd" clip-rule="evenodd" d="M21.3636 29.2805C21.3636 30.4515 22.3201 31.4008 23.4999 31.4008C24.6798 31.4008 25.6363 30.4515 25.6363 29.2805" fill="#0C092A"/>
<g opacity="0.3">
<path fill-rule="evenodd" clip-rule="evenodd" d="M21.6688 26.4031C21.6688 27.0722 22.4886 27.6147 23.4999 27.6147C24.5113 27.6147 25.3311 27.0722 25.3311 26.4031" fill="#0C092A"/>
</g>
<ellipse cx="19.5325" cy="23.6768" rx="0.915584" ry="0.9087" fill="#0C092A"/>
<ellipse cx="27.4675" cy="23.6768" rx="0.915584" ry="0.9087" fill="#0C092A"/>
<path d="M17.3396 21.7321C17.937 20.8978 19.5748 20.4299 20.9856 20.7738C21.1493 20.8137 21.3146 20.7143 21.3548 20.5519C21.395 20.3894 21.2949 20.2254 21.1312 20.1855C19.4928 19.7862 17.5963 20.3279 16.8421 21.3811C16.7445 21.5175 16.7767 21.7066 16.9141 21.8035C17.0515 21.9004 17.242 21.8684 17.3396 21.7321Z" fill="#0C092A"/>
<path d="M29.6604 21.7321C29.063 20.8978 27.4252 20.4299 26.0144 20.7738C25.8507 20.8137 25.6854 20.7143 25.6452 20.5519C25.605 20.3894 25.7051 20.2254 25.8688 20.1855C27.5072 19.7862 29.4037 20.3279 30.1579 21.3811C30.2555 21.5175 30.2233 21.7066 30.0859 21.8035C29.9485 21.9004 29.758 21.8684 29.6604 21.7321Z" fill="#0C092A"/>
<mask id="mask3_1012_1545" style="mask-type:luminance" maskUnits="userSpaceOnUse" x="3" y="6" width="41" height="44">
<rect x="3.35712" y="6.71436" width="40.2857" height="42.406" fill="white"/>
</mask>
<g mask="url(#mask3_1012_1545)">
<path d="M23.5007 9.74274C27.209 9.81086 30.6512 10.623 31.8933 12.1656C33.7738 14.502 37.6718 23.3855 37.6921 28.6744C37.7063 32.43 36.2363 36.1945 34.1823 36.398C32.4917 36.565 30.1346 36.1731 27.1628 35.9439V34.0591C30.0491 32.6874 32.0455 29.7467 32.0456 26.3384V22.0923C30.4408 21.2147 29.074 20.1571 27.9362 19.0806C28.4489 20.0276 29.0364 20.8869 29.6979 21.5367C25.029 20.2365 21.8019 17.5738 19.8688 15.4869C18.9804 17.1645 17.3904 19.6183 14.9548 21.4879V26.3384C14.9549 29.7467 16.9512 32.6875 19.8376 34.0591V36.0591C16.8414 36.4661 14.4418 37.1795 12.7243 37.0035C10.5542 36.7804 9.38505 32.4294 9.30927 28.6744C9.21539 24.0042 13.6305 14.2559 15.2604 12.3179C16.4698 10.8807 19.7922 9.67469 23.5007 9.74274Z" fill="#E6E6E6"/>
<mask id="mask4_1012_1545" style="mask-type:luminance" maskUnits="userSpaceOnUse" x="9" y="9" width="29" height="29">
<path d="M23.5007 9.74274C27.209 9.81086 30.6512 10.623 31.8933 12.1656C33.7738 14.502 37.6718 23.3855 37.6921 28.6744C37.7063 32.43 36.2363 36.1945 34.1823 36.398C32.4917 36.565 30.1346 36.1731 27.1628 35.9439V34.0591C30.0491 32.6874 32.0455 29.7467 32.0456 26.3384V22.0923C30.4408 21.2147 29.074 20.1571 27.9362 19.0806C28.4489 20.0276 29.0364 20.8869 29.6979 21.5367C25.029 20.2365 21.8019 17.5738 19.8688 15.4869C18.9804 17.1645 17.3904 19.6183 14.9548 21.4879V26.3384C14.9549 29.7467 16.9512 32.6875 19.8376 34.0591V36.0591C16.8414 36.4661 14.4418 37.1795 12.7243 37.0035C10.5542 36.7804 9.38505 32.4294 9.30927 28.6744C9.21539 24.0042 13.6305 14.2559 15.2604 12.3179C16.4698 10.8807 19.7922 9.67469 23.5007 9.74274Z" fill="white"/>
</mask>
<g mask="url(#mask4_1012_1545)">
<rect x="3.20453" y="6.71436" width="40.5909" height="42.406" fill="#0C092A"/>
</g>
</g>
</g>
</svg>
