<svg width="34" height="31" viewBox="0 0 34 31" fill="none" xmlns="http://www.w3.org/2000/svg">
<path d="M26.9486 25.659V30.9987C26.0968 30.5289 25.4011 30.1576 24.717 29.7663C22.3553 28.4156 20.139 26.5423 17.5989 25.8488C15.0963 25.1658 12.2675 25.6684 9.58194 25.6614C7.06881 25.6544 4.55568 25.6708 2.04255 25.6555C0.514964 25.6462 0.0116343 25.1565 0.00928776 23.63C-0.00244488 16.4043 -0.00244488 9.17967 0.00928776 1.95391C0.010461 0.471977 0.487979 0.00455176 1.94048 0.00338027C11.993 -0.0013057 22.0467 -0.0013057 32.0992 0.00455176C33.4907 0.00455176 33.9858 0.470805 33.9882 1.86722C34.0046 9.13633 34.0034 16.4043 33.9893 23.6734C33.987 25.1705 33.4637 25.645 31.9115 25.6567C30.3147 25.6696 28.7179 25.659 26.9474 25.659H26.9486ZM25.4691 6.69025C26.2986 6.69025 26.9451 6.68205 27.5927 6.6926C28.4574 6.70548 29.2505 6.46767 29.281 5.49767C29.3127 4.50659 28.5231 4.25238 27.6561 4.25238C20.7244 4.25238 13.794 4.25238 6.86232 4.25238C6.04221 4.25238 5.32417 4.50191 5.30892 5.42856C5.29249 6.4337 6.05394 6.68791 6.91746 6.68908C9.08331 6.6926 11.2492 6.68674 13.415 6.69728C13.7154 6.69845 14.0157 6.76874 14.3125 6.80623C13.5886 7.36386 12.86 7.78443 12.3121 8.37251C10.0337 10.8174 10.889 14.7407 13.8831 15.7213C14.627 15.9649 15.4084 16.0341 15.7568 15.1449C16.0619 14.3659 15.6806 13.7789 14.8957 13.5435C13.9383 13.2565 13.4396 12.6485 13.4302 11.6632C13.4209 10.6159 13.9113 9.84976 14.8382 9.36477C16.4854 8.50372 18.758 9.54635 19.442 11.4723C20.3466 14.0203 18.27 17.0954 15.4318 17.4117C12.5444 17.7339 9.69223 15.9228 8.86273 13.0456C8.54947 11.9596 8.7501 10.7354 8.55417 9.60141C8.47086 9.12227 7.97223 8.71342 7.66248 8.27294C7.19318 8.61618 6.4376 8.88211 6.31675 9.32025C6.08327 10.1684 6.12316 11.1208 6.19825 12.0182C6.59716 16.8342 11.2961 20.5795 16.0325 19.6786C17.5214 19.3951 18.8836 18.4462 20.4464 17.7362C21.1867 19.1842 23.1754 20.1366 23.2364 22.3707C23.2446 22.6577 24.0541 23.1239 24.4976 23.1298C24.8121 23.1333 25.3095 22.5487 25.4151 22.1457C25.5747 21.5377 25.4679 20.8594 25.4679 20.2104C25.4679 15.7635 25.4679 11.3165 25.4679 6.69025H25.4691Z" fill="white"/>
</svg>
