<svg width="43" height="34" viewBox="0 0 43 34" fill="none" xmlns="http://www.w3.org/2000/svg">
<g clip-path="url(#clip0_1710_1272)">
<path d="M2.3263 14.4392C2.3263 10.0052 2.3263 5.57013 2.32741 1.13616C2.32741 0.192178 2.56368 -0.0319495 3.51429 0.0066931C7.48454 0.166784 11.4548 0.361101 15.3301 1.32606C17.2335 1.79971 19.1027 2.40695 20.994 2.9347C21.238 3.00205 21.5405 3.02303 21.7724 2.94133C26.913 1.12181 32.2147 0.2253 37.6556 0.0972273C38.2993 0.0817702 38.9408 0.0166298 39.5844 0.00117272C40.1409 -0.0120762 40.429 0.273879 40.4688 0.831437C40.4765 0.941845 40.471 1.05225 40.471 1.16266C40.471 10.0317 40.471 18.9007 40.4699 27.7698C40.4699 28.7656 40.2789 28.9567 39.2709 28.9346C35.4574 28.8507 31.6572 28.96 27.9 29.6975C25.8795 30.0939 23.8779 30.552 21.9645 31.3437C21.683 31.4607 21.2855 31.5126 21.015 31.4066C15.5476 29.2801 9.84285 28.8131 4.05087 28.929C3.81128 28.9335 3.5728 28.939 3.33322 28.9423C2.5979 28.9511 2.32851 28.6939 2.3263 27.9652C2.32299 26.5663 2.3263 25.1686 2.3263 23.7697C2.3263 20.6595 2.3263 17.5504 2.3263 14.4403V14.4392ZM22.1831 29.5705C27.6383 27.7532 33.2062 27.2155 38.8911 27.3878V1.62085C33.1477 1.67164 27.571 2.48865 22.1831 4.46385V29.5716V29.5705ZM20.6076 29.5694V4.48813C17.1463 2.89606 7.15553 1.19689 3.90844 1.64404V27.39C9.60657 27.2122 15.1755 27.7576 20.6076 29.5694Z" fill="white"/>
<path d="M1.55009 30.5751C1.86033 30.5751 2.08004 30.5751 2.29976 30.5751C6.95454 30.5751 11.6104 30.5806 16.2652 30.5663C16.8029 30.5641 17.1783 30.6988 17.5316 31.1459C18.2006 31.995 19.138 32.4167 20.2211 32.4542C20.9929 32.4807 21.7668 32.4819 22.5386 32.4576C23.6426 32.4233 24.5943 31.9916 25.2789 31.1305C25.6211 30.6999 25.9822 30.5685 26.4978 30.5707C31.1713 30.5828 35.8449 30.5773 40.5184 30.5773C40.7359 30.5773 40.9523 30.5773 41.2438 30.5773C41.2438 30.3157 41.2438 30.1015 41.2438 29.8873C41.2438 21.6442 41.2438 13.4012 41.2438 5.15819C41.2438 4.28929 41.4602 3.94702 42.0056 3.94702C42.5565 3.94702 42.7917 4.30695 42.7917 5.15378C42.7917 13.7468 42.7917 22.3387 42.7917 30.9317C42.7917 31.9133 42.5786 32.1252 41.5927 32.1252C36.7348 32.1252 31.8779 32.1285 27.02 32.1197C26.6667 32.1197 26.4183 32.2114 26.1555 32.4708C25.1309 33.481 23.8866 34.0165 22.4348 34C21.4069 33.9878 20.3724 34.0011 19.3533 33.8895C18.3011 33.7747 17.398 33.2448 16.6605 32.494C16.3712 32.1992 16.0819 32.1197 15.6944 32.1208C10.8552 32.1308 6.01607 32.1274 1.17691 32.1274C0.229614 32.1274 -3.31522e-05 31.8989 -3.31522e-05 30.9671C-3.31522e-05 22.374 -3.3152e-05 13.7821 0.00107092 5.18911C0.00107092 4.98706 -0.0199065 4.77729 0.0264647 4.58518C0.129144 4.159 0.402954 3.91059 0.863354 3.95806C1.28842 4.00223 1.52028 4.25395 1.54015 4.68675C1.54788 4.87003 1.54678 5.05441 1.54678 5.23879C1.54678 13.463 1.54678 21.6884 1.54678 29.9127C1.54678 30.1114 1.54678 30.309 1.54678 30.5773L1.55009 30.5751Z" fill="white"/>
<path d="M33.31 18.1179V19.9561H27.5103C28.5061 17.6806 29.4921 15.4261 30.5178 13.08H27.9431V11.2229H33.5915C32.5802 13.515 31.581 15.7805 30.5498 18.1179H33.3089H33.31Z" fill="white"/>
<path d="M8.79175 20.0026C9.37691 17.7812 9.93557 15.657 10.4953 13.5327C10.6587 12.9133 10.8641 12.3017 10.9844 11.6735C11.065 11.2495 11.2649 11.1302 11.6579 11.1722C11.8942 11.1976 12.1349 11.1766 12.3734 11.1766C13.0454 11.1766 13.4649 11.4942 13.632 12.1294C14.2823 14.5915 14.9348 17.0536 15.584 19.5157C15.6205 19.6548 15.6414 19.7972 15.6823 20.0004C15.0552 20.0004 14.4711 20.0192 13.8893 19.9849C13.77 19.9783 13.6066 19.7939 13.5603 19.6592C13.4421 19.3159 13.3792 18.9537 13.2776 18.532C12.6527 18.532 12.0322 18.5055 11.4161 18.5529C11.2837 18.5629 11.107 18.8245 11.0617 19.0001C10.8034 19.9993 10.8144 20.0026 9.81523 20.0026C9.50609 20.0026 9.19695 20.0026 8.79065 20.0026H8.79175ZM12.868 16.8979C12.656 15.7596 12.4529 14.6644 12.2486 13.568L12.1802 13.5846C11.9825 14.6776 11.7849 15.7718 11.5806 16.8979H12.868Z" fill="white"/>
</g>
<defs>
<clipPath id="clip0_1710_1272">
<rect width="42.7929" height="34" fill="white"/>
</clipPath>
</defs>
</svg>
