<svg width="43" height="38" viewBox="0 0 43 38" fill="none" xmlns="http://www.w3.org/2000/svg">
<g clip-path="url(#clip0_1083_1909)">
<path d="M12.1312 29.8482V18.2958C12.5725 18.2585 12.9869 18.2242 13.4442 18.1863V18.6185C13.4442 22.233 13.4493 25.8474 13.4355 29.4612C13.434 29.8124 13.546 29.8803 13.8673 29.8796C19.9016 29.8708 25.9352 29.8723 31.9696 29.8715C32.0546 29.8715 32.1397 29.8686 32.2233 29.8781C32.5694 29.9168 32.8151 30.1687 32.8318 30.4937C32.8493 30.8398 32.6188 31.1092 32.256 31.1779C31.8779 31.2487 31.4795 31.2713 31.1277 31.4115C30.0168 31.854 29.3181 33.0347 29.4446 34.1702C29.5842 35.429 30.4588 36.3892 31.6809 36.628C31.75 36.6419 31.8176 36.6653 31.8758 36.6813C31.8627 36.8624 31.8082 37.0406 31.8532 37.1881C31.8889 37.3035 32.0364 37.4385 32.1542 37.4619C32.3316 37.497 32.5265 37.4422 32.7482 37.4232C32.7337 37.4415 32.762 37.4217 32.7598 37.4064C32.6755 36.8376 32.9292 36.5725 33.4549 36.3228C34.4291 35.8591 34.8966 34.9909 34.8966 33.8964C34.898 24.1242 34.8995 14.352 34.8944 4.57983C34.8944 3.69119 34.9765 2.83029 35.4418 2.04971C35.5763 1.82335 35.7312 1.6094 35.9166 1.32901C35.7283 1.32901 35.5894 1.32901 35.4513 1.32901C29.0534 1.32901 22.6563 1.32901 16.2585 1.32974C14.6525 1.32974 13.4551 2.51849 13.4478 4.13441C13.4405 5.72843 13.4464 7.32244 13.4464 8.91718C13.4464 9.04642 13.4464 9.17567 13.4464 9.39619C12.9854 8.95223 12.5819 8.57545 12.1966 8.18115C12.1355 8.11835 12.1355 7.97888 12.1348 7.87446C12.1312 6.59663 12.121 5.31879 12.1363 4.04095C12.161 1.77516 13.9466 0.00443862 16.2018 0.00297823C23.7498 5.74545e-05 31.2985 -0.000672739 38.8472 0.00151784C41.1468 0.00224803 42.9826 1.73135 43 3.9504C43.0131 5.64372 42.2664 6.94055 40.7491 7.69922C39.2616 8.44255 37.817 8.25343 36.4706 7.2852C36.4131 7.24358 36.3593 7.19684 36.2198 7.08439C36.2198 7.30929 36.2198 7.45606 36.2198 7.6021C36.2198 16.3279 36.2198 25.053 36.2212 33.7788C36.2212 35.965 34.8609 37.5992 32.7315 37.9584C32.5417 37.9906 32.3454 37.9964 32.1528 37.9964C24.5801 37.9986 17.0073 38.0037 9.43463 37.9942C7.83372 37.992 6.5985 37.2691 5.84385 35.8569C5.08338 34.4338 5.16117 32.9858 6.06414 31.643C6.83042 30.5024 7.9355 29.9051 9.31685 29.8774C10.1646 29.8606 11.013 29.8745 11.8614 29.873C11.9327 29.873 12.0032 29.8606 12.1319 29.8482H12.1312ZM29.1349 36.6748C27.7775 34.8223 27.7884 33.0311 29.1131 31.2158C29.0302 31.2056 28.9757 31.1932 28.9204 31.1932C22.391 31.1932 15.8608 31.1881 9.33139 31.1983C7.94713 31.2005 6.78171 32.325 6.67411 33.7036C6.56506 35.0953 7.52255 36.3746 8.88064 36.6163C9.26669 36.685 9.6651 36.6813 10.0046 36.7076C10.0388 36.9449 10.001 37.2173 10.1195 37.3451C10.2271 37.4612 10.5048 37.4524 10.7047 37.4429C11.2769 37.4166 10.7506 36.8778 11.1104 36.6748H29.1349ZM38.9359 1.33047C37.4092 1.34507 36.2088 2.57837 36.2248 4.11616C36.2401 5.60575 37.5059 6.84124 38.9926 6.8186C40.4787 6.79524 41.7241 5.51448 41.6928 4.03949C41.6608 2.51923 40.4372 1.3166 38.9359 1.33047Z" fill="white"/>
<path d="M9.65635 14.5454C8.84135 14.449 8.04962 14.3804 7.26734 14.2533C6.85439 14.1861 6.43708 14.062 6.05975 13.8831C5.21567 13.4844 5.08771 12.6622 5.73404 11.978C5.81547 11.8919 5.9347 11.8422 6.0961 11.7371C5.41051 11.4793 4.83834 11.2997 4.29889 11.0492C3.83068 10.8316 3.36103 10.5826 2.95971 10.2621C2.08291 9.56181 2.06401 8.64469 2.85574 7.84659C2.90663 7.79547 2.9677 7.75531 3.00406 7.72537C2.44861 7.20621 1.87789 6.73961 1.38787 6.2C0.51835 5.24418 0.0675938 4.09193 0.00288837 2.79438C-0.00583595 2.61329 0.00579648 2.42928 0.0297884 2.24892C0.0981289 1.73852 0.428199 1.56911 0.882591 1.82249C1.67578 2.26499 2.4835 2.68631 3.24397 3.17992C5.03173 4.33874 6.88202 5.42599 8.54836 6.74326C10.7643 8.495 12.7557 10.5154 14.6438 12.6264C16.3872 14.576 18.0353 16.6031 19.1877 18.9718C19.6246 19.87 19.9016 20.8484 20.2317 21.7969C20.3262 22.0686 20.3204 22.3614 20.023 22.5395C19.7039 22.7301 19.3418 22.5454 19.2611 22.1409C18.8372 20.024 17.7169 18.254 16.4904 16.5395C16.4272 16.4512 16.2236 16.4154 16.0934 16.4293C14.579 16.5958 13.0676 16.79 11.5517 16.9433C11.2674 16.9718 10.9694 16.8528 10.6771 16.8068C10.571 16.79 10.4575 16.7615 10.3572 16.782C9.84174 16.8893 9.44697 16.6775 9.16343 16.2825C8.87625 15.8831 9.01293 15.4676 9.25067 15.0886C9.3699 14.8988 9.51894 14.7279 9.65708 14.5439L9.65635 14.5454Z" fill="white"/>
<path d="M15.9808 9.43991C16.5683 9.45451 17.0968 9.65167 17.5679 9.99413C18.5545 10.7119 19.5178 10.6915 20.5182 9.99559C21.6851 9.18434 23.0104 9.21355 24.2188 10.0482C24.788 10.4417 25.3944 10.644 26.0654 10.4651C26.418 10.3709 26.7583 10.1869 27.0716 9.99048C28.2814 9.22961 29.4897 9.21063 30.6849 9.98755C31.1539 10.292 31.6264 10.5242 32.1943 10.5367C32.4843 10.5432 32.6406 10.7229 32.6356 11.0084C32.6297 11.3143 32.4422 11.4771 32.1455 11.4808C31.4832 11.4896 30.8834 11.2844 30.344 10.9039C29.9208 10.606 29.4781 10.3877 28.9401 10.3833C28.421 10.3789 27.9739 10.541 27.5493 10.828C26.245 11.7086 24.9865 11.7218 23.6989 10.8477C22.7625 10.2117 21.8458 10.219 20.9326 10.8631C20.1685 11.4027 19.3295 11.629 18.4244 11.4085C17.978 11.2997 17.5701 11.0347 17.1383 10.855C16.7428 10.69 16.3494 10.4914 15.935 10.4052C15.4959 10.314 15.2691 10.1979 15.2807 9.88606C15.2923 9.57646 15.533 9.42385 15.9816 9.43991H15.9808Z" fill="white"/>
<path d="M15.9349 4.69593C16.5507 4.69739 17.0902 4.9201 17.5933 5.25891C18.6358 5.96136 19.4247 5.95916 20.4752 5.27132C21.6944 4.47249 22.9398 4.4462 24.146 5.26329C25.1427 5.93872 26.0762 5.93872 27.0693 5.26548C28.2929 4.43671 29.5456 4.46519 30.7663 5.29396C31.1887 5.58092 31.63 5.76712 32.1447 5.7883C32.4922 5.80217 32.6573 5.98399 32.6333 6.28483C32.6064 6.62072 32.3876 6.73609 32.0858 6.73682C31.3654 6.73974 30.7452 6.45862 30.1723 6.04679C29.7855 5.76858 29.3573 5.64226 28.8804 5.63861C28.386 5.63496 27.9578 5.80363 27.5601 6.07819C26.2536 6.9829 24.9479 6.97048 23.6429 6.07527C22.7639 5.47213 21.8791 5.47578 21.0052 6.07307C19.6966 6.96756 18.4054 6.96172 17.08 6.08768C16.7405 5.86424 16.3144 5.73938 15.9102 5.65832C15.5002 5.57581 15.2733 5.45314 15.285 5.15303C15.2973 4.83832 15.5133 4.68644 15.9357 4.6952L15.9349 4.69593Z" fill="white"/>
<path d="M19.8529 25.6737C19.8238 25.4722 19.8107 25.3787 19.7932 25.2589H19.2843C19.2698 25.4072 19.2574 25.5371 19.2414 25.7051C18.6722 25.7489 18.1356 25.654 17.6354 25.3875C17.3577 25.24 17.112 25.0267 16.8255 24.9041C16.5209 24.7741 16.1901 24.6865 15.8622 24.6339C15.4856 24.5733 15.2617 24.4061 15.282 24.1177C15.3031 23.8175 15.527 23.6627 15.9109 23.6686C16.5376 23.6781 17.0982 23.8833 17.602 24.2462C18.5675 24.9413 19.5097 24.9136 20.4919 24.2469C21.6857 23.4364 22.9355 23.4203 24.1292 24.2323C25.1551 24.9296 26.1017 24.9033 27.1166 24.2133C28.2457 23.4459 29.4373 23.4473 30.5983 24.1673C31.0992 24.4776 31.5885 24.7661 32.2014 24.7741C32.4864 24.7777 32.6471 24.9618 32.6376 25.2502C32.6274 25.5627 32.4137 25.7423 32.136 25.7066C31.6859 25.6481 31.2388 25.5364 30.8048 25.3999C30.5809 25.3298 30.3838 25.1647 30.181 25.0326C29.3042 24.4601 28.4267 24.4543 27.571 25.0559C26.788 25.6065 25.9381 25.8665 25.0002 25.6474C24.5858 25.5503 24.1612 25.3823 23.8122 25.1421C22.8097 24.4521 21.8485 24.4316 20.8532 25.1421C20.5639 25.3488 20.2229 25.4809 19.8536 25.6744L19.8529 25.6737Z" fill="white"/>
<path d="M18.4664 15.1968C19.3345 15.4078 19.9808 15.0836 20.6402 14.6681C21.7664 13.9584 22.9246 14.0007 24.0696 14.6871C24.4179 14.8959 24.7843 15.1077 25.1703 15.2143C25.8727 15.4085 26.5023 15.1603 27.0752 14.7419C27.8749 14.1584 28.7728 14.0467 29.7026 14.2818C30.0792 14.3768 30.4406 14.5841 30.7728 14.7966C31.1916 15.0646 31.622 15.2588 32.1222 15.2727C32.4362 15.2815 32.6318 15.4202 32.6362 15.7532C32.6398 16.0555 32.4363 16.2315 32.0713 16.2264C31.3959 16.2169 30.7946 15.9832 30.2501 15.5882C29.8255 15.28 29.3609 15.1201 28.8266 15.1303C28.3562 15.1391 27.9505 15.2954 27.5753 15.5568C26.2725 16.4659 24.9675 16.4702 23.6589 15.5728C22.7523 14.9514 21.8471 14.9697 20.955 15.5925C20.4883 15.9182 19.9888 16.1489 19.4217 16.2052C19.3171 16.2154 19.1607 16.1877 19.1048 16.1168C18.8896 15.8452 18.7056 15.5487 18.4672 15.1975L18.4664 15.1968Z" fill="white"/>
<path d="M20.8308 19.269C21.8108 18.8214 22.7538 18.7871 23.7011 19.2259C23.8647 19.3018 24.021 19.3997 24.1679 19.5048C25.1479 20.2051 26.1112 20.1774 27.0854 19.48C27.9688 18.8477 28.9452 18.7739 29.955 19.0989C30.2371 19.1894 30.5032 19.3522 30.7511 19.5202C31.172 19.8057 31.6133 19.9948 32.1281 20.0211C32.4974 20.0401 32.669 20.2372 32.637 20.5381C32.6072 20.8199 32.376 20.9908 32.0285 20.9725C31.3843 20.9382 30.8005 20.7338 30.2771 20.3497C29.8888 20.0649 29.4643 19.8867 28.9699 19.8751C28.466 19.8634 28.0146 19.9912 27.6045 20.281C26.2988 21.2055 24.9814 21.2303 23.6633 20.3139C22.8694 19.7619 22.0493 19.7414 21.1841 20.1627C21.0693 19.8729 20.9595 19.5947 20.8308 19.2697V19.269Z" fill="white"/>
<path d="M17.1912 20.3847C16.755 20.0444 16.2708 19.8714 15.719 19.8619C15.4442 19.8568 15.2712 19.6523 15.2872 19.3726C15.3031 19.0981 15.4776 18.9404 15.7641 18.9243C16.2228 18.898 16.6198 18.9513 16.8045 19.4778C16.907 19.7706 17.0916 20.0342 17.2385 20.3117C17.2225 20.3365 17.2065 20.3606 17.1905 20.3854L17.1912 20.3847Z" fill="white"/>
</g>
<defs>
<clipPath id="clip0_1083_1909">
<rect width="43" height="38" fill="white"/>
</clipPath>
</defs>
</svg>
