<svg width="24" height="24" viewBox="0 0 24 24" fill="none" xmlns="http://www.w3.org/2000/svg">
<g clip-path="url(#clip0_1012_1671)">
<path d="M18.2495 1.75243C12.5989 -1.69331 5.1984 0.100598 1.75271 5.75124C-1.69298 11.4019 0.100882 18.8024 5.75152 22.2481C6.06634 22.44 6.38673 22.6155 6.71143 22.7752C6.71668 22.7777 6.72198 22.7804 6.72732 22.7829C8.40559 23.6053 10.202 24.0002 11.9808 24.0002C16.0314 24.0002 19.9897 21.9534 22.2484 18.2492C25.6941 12.5986 23.9002 5.19816 18.2495 1.75243ZM9.08846 2.19755L8.94198 2.7796L5.81232 4.54097L5.17412 4.38038C6.29026 3.37777 7.61977 2.63194 9.08846 2.19755ZM6.20471 15.1206L6.03634 15.3069C5.5126 15.8865 5.28784 16.6605 5.41955 17.4304L5.89398 20.203C3.97824 18.782 2.63124 16.7558 2.06241 14.4092C1.63285 12.6371 1.68184 10.8243 2.18448 9.12094L5.13085 10.8071C5.42298 10.9743 5.56965 11.319 5.48748 11.6454C5.27518 12.4891 5.50529 13.37 6.10299 14.0019L6.19304 14.0971C6.46159 14.381 6.46665 14.8306 6.20471 15.1206ZM12.4398 22.2195L12.2562 21.099L12.4042 21.0334C12.938 20.7968 13.5615 20.9768 13.8868 21.4616L14.2338 21.9786C13.638 22.1123 13.0381 22.1925 12.4398 22.2195ZM20.7313 17.3241C19.6014 19.1769 17.9517 20.5913 15.9903 21.4175C15.9751 21.3883 15.9586 21.3596 15.9398 21.3316L15.3623 20.4713C14.5551 19.2687 13.0082 18.8219 11.684 19.4089L10.9083 19.7528C10.5386 19.9167 10.3263 20.3096 10.3917 20.7087L10.626 22.1384C9.68949 22.0117 8.77201 21.7533 7.89596 21.3673L7.17104 17.1307C7.13176 16.9013 7.19874 16.6707 7.35479 16.4981L7.52316 16.3118C8.40268 15.3384 8.38552 13.8293 7.48412 12.8761L7.39407 12.7809C7.21604 12.5927 7.14751 12.3303 7.21069 12.079C7.48641 10.9833 6.99408 9.82608 6.01351 9.26485L2.84255 7.45018C2.97338 7.18786 3.11537 6.92954 3.26977 6.67632C3.43979 6.3976 3.62185 6.129 3.81465 5.87054L5.72237 6.35058C5.79385 6.36858 5.86665 6.37749 5.93916 6.37749C6.09062 6.37749 6.2409 6.33877 6.37491 6.2633L10.1461 4.14089C10.3585 4.02136 10.5125 3.81985 10.5719 3.58346L10.9869 1.93416C10.9964 1.89666 11.0024 1.85916 11.0069 1.82175C11.3446 1.7881 11.6823 1.77033 12.0191 1.77033C13.8744 1.77033 15.6999 2.27897 17.3242 3.26949C17.5134 3.3848 17.6974 3.50611 17.8773 3.63211C17.8762 3.63338 17.8749 3.63436 17.8738 3.63554L16.4265 5.21743L12.6123 5.3655C12.3173 5.37694 12.0472 5.5343 11.8916 5.78527L10.2301 8.46647C10.0371 8.77786 10.055 9.17569 10.2752 9.46847L11.3269 10.8671C11.5446 11.1567 11.6635 11.5156 11.6616 11.8779L11.6522 13.7014C11.6484 14.4226 11.962 15.1036 12.5123 15.5698C12.9556 15.9454 13.5113 16.1463 14.0821 16.1463C14.2198 16.1463 14.3585 16.1346 14.4967 16.1108L16.5221 15.7623C17.2683 15.634 17.9614 15.2563 18.4737 14.699C18.7795 14.3664 19.1966 14.1752 19.6481 14.1608C20.0991 14.1458 20.528 14.3105 20.8545 14.6228L21.4241 15.1681C21.4985 15.2392 21.5822 15.2939 21.6708 15.3342C21.4323 16.0215 21.119 16.6883 20.7313 17.3241ZM22.1366 13.3903L22.0831 13.3391C21.409 12.6939 20.5243 12.3549 19.5914 12.3848C18.6586 12.4146 17.7972 12.8093 17.1656 13.4963C16.9176 13.7661 16.582 13.9489 16.2208 14.0111L14.1954 14.3596C13.9331 14.4047 13.7479 14.2876 13.6608 14.2139C13.5736 14.1401 13.4277 13.9766 13.4291 13.7106L13.4385 11.8872C13.4424 11.1389 13.1968 10.3973 12.7471 9.79922L12.0606 8.88619L13.1533 7.1228L16.8661 6.97871C17.1033 6.96952 17.327 6.86583 17.4872 6.69066L19.1851 4.83511C19.2039 4.81449 19.2213 4.79307 19.2379 4.77122C20.5546 6.08466 21.4894 7.73794 21.9386 9.59129C22.245 10.8551 22.3078 12.1396 22.1366 13.3903Z" fill="white"/>
</g>
<defs>
<clipPath id="clip0_1012_1671">
<rect width="24" height="24" fill="white"/>
</clipPath>
</defs>
</svg>
