<svg width="20" height="24" viewBox="0 0 20 24" fill="none" xmlns="http://www.w3.org/2000/svg">
<path d="M18.8889 7.56894L12.2222 1.72454C11.6111 1.17793 10.82 0.875732 10 0.875732C9.18011 0.875732 8.38896 1.17793 7.77783 1.72454L1.11121 7.56894C0.758287 7.88458 0.476658 8.27178 0.285072 8.70476C0.0934866 9.13774 -0.00365837 9.60657 0.000105326 10.08V19.7911C0.000105326 20.6751 0.351292 21.523 0.976409 22.1481C1.60153 22.7732 2.44937 23.1244 3.33341 23.1244H16.6667C17.5507 23.1244 18.3985 22.7732 19.0237 22.1481C19.6488 21.523 20 20.6751 20 19.7911V10.0689C20.0021 9.59733 19.9042 9.13064 19.7127 8.69969C19.5212 8.26874 19.2404 7.88334 18.8889 7.56894V7.56894ZM12.2222 20.9022H7.77783V15.3467C7.77783 15.052 7.89489 14.7694 8.10326 14.561C8.31163 14.3526 8.59425 14.2356 8.88893 14.2356H11.1111C11.4058 14.2356 11.6884 14.3526 11.8968 14.561C12.1052 14.7694 12.2222 15.052 12.2222 15.3467V20.9022ZM17.7778 19.7911C17.7778 20.0858 17.6607 20.3684 17.4523 20.5767C17.2439 20.7851 16.9613 20.9022 16.6667 20.9022H14.4444V15.3467C14.4444 14.4626 14.0933 13.6148 13.4681 12.9897C12.843 12.3645 11.9952 12.0134 11.1111 12.0134H8.88893C8.00488 12.0134 7.15704 12.3645 6.53192 12.9897C5.90681 13.6148 5.55562 14.4626 5.55562 15.3467V20.9022H3.33341C3.03873 20.9022 2.75612 20.7851 2.54775 20.5767C2.33937 20.3684 2.22231 20.0858 2.22231 19.7911V10.0689C2.22251 9.91116 2.2563 9.75526 2.32144 9.61157C2.38658 9.46789 2.48157 9.33972 2.60009 9.2356L9.26671 3.40231C9.46947 3.22417 9.73014 3.12594 10 3.12594C10.2699 3.12594 10.5306 3.22417 10.7334 3.40231L17.4 9.2356C17.5185 9.33972 17.6135 9.46789 17.6786 9.61157C17.7438 9.75526 17.7776 9.91116 17.7778 10.0689V19.7911Z" fill="#CCCCCC"/>
</svg>
