<svg width="18" height="18" viewBox="0 0 18 18" fill="none" xmlns="http://www.w3.org/2000/svg">
<path d="M-0.000176703 16.5231C-0.000176703 13.1364 -0.000176703 9.74961 -0.000176703 6.36335C0.00605582 6.35376 0.0166032 6.34465 0.0180414 6.3341C0.12783 5.5042 0.84457 4.87134 1.77561 4.91017C2.13182 4.92503 2.48996 4.92072 2.84617 4.90825C2.96794 4.90394 3.10266 4.87373 3.20717 4.8138C5.01365 3.76863 6.80861 2.70332 8.62324 1.67253C9.63051 1.10056 10.5745 0.410172 11.6705 0.000732422H12.0924C12.8033 0.112921 13.2085 0.580372 13.5388 1.17919C14.2023 2.38354 14.9003 3.56871 15.5787 4.7649C15.6463 4.88428 15.7274 4.93942 15.8616 4.96003C16.527 5.06215 17.1114 5.68063 17.1551 6.34753C17.1834 6.7795 17.1786 7.21339 17.1819 7.64632C17.1848 8.03371 17.0295 8.18473 16.6378 8.18521C15.8702 8.18617 15.1027 8.18185 14.3356 8.18713C14.0259 8.18952 13.7138 8.19048 13.4074 8.22932C11.5933 8.45945 10.294 10.3475 10.7097 12.1367C11.0702 13.6901 12.3556 14.7195 13.953 14.7276C14.861 14.7324 15.7691 14.7276 16.6771 14.729C17.0232 14.729 17.18 14.8853 17.1824 15.2334C17.1853 15.5848 17.2045 15.9382 17.1762 16.2872C17.1546 16.5509 17.1158 16.8304 17.0045 17.0658C16.703 17.7049 16.1612 17.9983 15.4622 17.9993C13.453 18.0017 11.4437 18.0003 9.43394 18.0003C6.86806 18.0003 4.30218 17.9993 1.7363 18.0007C1.15524 18.0007 0.675812 17.796 0.3196 17.3266C0.138377 17.0879 0.0573543 16.8108 -0.000656128 16.5236L-0.000176703 16.5231ZM12.6068 1.22617C12.3306 0.799955 11.8972 0.706944 11.4475 0.968717C9.24265 2.25121 7.03826 3.53515 4.83434 4.81908C4.8027 4.8373 4.77489 4.86271 4.70777 4.91305C5.20829 4.91305 5.66279 4.91832 6.1168 4.90921C6.2218 4.9073 6.3383 4.87805 6.42843 4.82579C8.43818 3.66124 10.4451 2.49189 12.4519 1.3235C12.5018 1.29473 12.5492 1.26261 12.6063 1.22665L12.6068 1.22617ZM13.8331 3.35248C12.9476 3.86835 12.0832 4.37224 11.1819 4.89723H14.7167C14.4171 4.3732 14.1309 3.87219 13.8336 3.35248H13.8331Z" fill="#407BFF"/>
<path d="M15.2749 9.00012C15.7491 9.00012 16.2233 8.9982 16.6974 9.00012C17.4769 9.00396 17.9957 9.52223 17.9981 10.3023C18.0005 11.0631 17.9995 11.8245 17.9981 12.5854C17.9966 13.3616 17.5244 13.888 16.7535 13.9038C15.7414 13.9244 14.727 13.9335 13.7163 13.888C12.4948 13.8333 11.499 12.7862 11.4597 11.5876C11.417 10.2869 12.3006 9.18183 13.5562 9.04135C14.1219 8.97807 14.7011 9.0308 15.274 9.0308C15.274 9.02074 15.274 9.01019 15.274 9.00012H15.2749ZM13.9105 10.6422C13.4598 10.6403 13.0926 11.0032 13.0912 11.4524C13.0897 11.8988 13.4589 12.2699 13.9052 12.2704C14.353 12.2713 14.7236 11.9041 14.7255 11.4577C14.7279 11.0104 14.3612 10.6441 13.91 10.6422H13.9105Z" fill="#407BFF"/>
</svg>
