<svg width="24" height="22" viewBox="0 0 24 22" fill="none" xmlns="http://www.w3.org/2000/svg">
<path d="M8.33333 19.5555V12.2222C8.33333 11.5472 7.78613 10.9999 7.11111 10.9999H2.22222C1.54721 10.9999 1 11.5472 1 12.2222V19.5555C1 20.2305 1.54721 20.7777 2.22222 20.7777H7.11111C7.78613 20.7777 8.33333 20.2305 8.33333 19.5555ZM8.33333 19.5555C8.33333 20.2305 8.88054 20.7777 9.55556 20.7777H14.4444C15.1195 20.7777 15.6667 20.2305 15.6667 19.5555M8.33333 19.5555V2.44439C8.33333 1.76938 8.88054 1.22217 9.55556 1.22217H14.4444C15.1195 1.22217 15.6667 1.76938 15.6667 2.44439V19.5555M15.6667 19.5555C15.6667 20.2305 16.2139 20.7777 16.8889 20.7777H21.7778C22.4528 20.7777 23 20.2305 23 19.5555V7.33328C23 6.65826 22.4528 6.11106 21.7778 6.11106H16.8889C16.2139 6.11106 15.6667 6.65826 15.6667 7.33328V19.5555Z" stroke="#CCCCCC" stroke-width="2" stroke-linecap="round" stroke-linejoin="round"/>
</svg>
