<svg width="20" height="24" viewBox="0 0 20 24" fill="none" xmlns="http://www.w3.org/2000/svg">
<path opacity="0.8" d="M14.4444 14.2222H5.55556C5.26087 14.2222 4.97826 14.3393 4.76988 14.5477C4.56151 14.7561 4.44444 15.0387 4.44444 15.3334C4.44444 15.628 4.56151 15.9107 4.76988 16.119C4.97826 16.3274 5.26087 16.4445 5.55556 16.4445H14.4444C14.7391 16.4445 15.0217 16.3274 15.2301 16.119C15.4385 15.9107 15.5556 15.628 15.5556 15.3334C15.5556 15.0387 15.4385 14.7561 15.2301 14.5477C15.0217 14.3393 14.7391 14.2222 14.4444 14.2222ZM14.4444 9.77781H7.77778C7.48309 9.77781 7.20048 9.89487 6.9921 10.1032C6.78373 10.3116 6.66667 10.5942 6.66667 10.8889C6.66667 11.1836 6.78373 11.4662 6.9921 11.6746C7.20048 11.883 7.48309 12 7.77778 12H14.4444C14.7391 12 15.0217 11.883 15.2301 11.6746C15.4385 11.4662 15.5556 11.1836 15.5556 10.8889C15.5556 10.5942 15.4385 10.3116 15.2301 10.1032C15.0217 9.89487 14.7391 9.77781 14.4444 9.77781ZM18.8889 3.11114H15.5556V2.00003C15.5556 1.70534 15.4385 1.42273 15.2301 1.21435C15.0217 1.00598 14.7391 0.888916 14.4444 0.888916C14.1498 0.888916 13.8671 1.00598 13.6588 1.21435C13.4504 1.42273 13.3333 1.70534 13.3333 2.00003V3.11114H11.1111V2.00003C11.1111 1.70534 10.994 1.42273 10.7857 1.21435C10.5773 1.00598 10.2947 0.888916 10 0.888916C9.70532 0.888916 9.4227 1.00598 9.21433 1.21435C9.00595 1.42273 8.88889 1.70534 8.88889 2.00003V3.11114H6.66667V2.00003C6.66667 1.70534 6.5496 1.42273 6.34123 1.21435C6.13286 1.00598 5.85024 0.888916 5.55556 0.888916C5.26087 0.888916 4.97826 1.00598 4.76988 1.21435C4.56151 1.42273 4.44444 1.70534 4.44444 2.00003V3.11114H1.11111C0.816426 3.11114 0.533811 3.2282 0.325437 3.43658C0.117063 3.64495 0 3.92756 0 4.22225V19.7778C0 20.6619 0.35119 21.5097 0.976311 22.1348C1.60143 22.76 2.44928 23.1111 3.33333 23.1111H16.6667C17.5507 23.1111 18.3986 22.76 19.0237 22.1348C19.6488 21.5097 20 20.6619 20 19.7778V4.22225C20 3.92756 19.8829 3.64495 19.6746 3.43658C19.4662 3.2282 19.1836 3.11114 18.8889 3.11114V3.11114ZM17.7778 19.7778C17.7778 20.0725 17.6607 20.3551 17.4523 20.5635C17.244 20.7719 16.9614 20.8889 16.6667 20.8889H3.33333C3.03865 20.8889 2.75603 20.7719 2.54766 20.5635C2.33929 20.3551 2.22222 20.0725 2.22222 19.7778V5.33336H4.44444V6.44447C4.44444 6.73916 4.56151 7.02177 4.76988 7.23015C4.97826 7.43852 5.26087 7.55558 5.55556 7.55558C5.85024 7.55558 6.13286 7.43852 6.34123 7.23015C6.5496 7.02177 6.66667 6.73916 6.66667 6.44447V5.33336H8.88889V6.44447C8.88889 6.73916 9.00595 7.02177 9.21433 7.23015C9.4227 7.43852 9.70532 7.55558 10 7.55558C10.2947 7.55558 10.5773 7.43852 10.7857 7.23015C10.994 7.02177 11.1111 6.73916 11.1111 6.44447V5.33336H13.3333V6.44447C13.3333 6.73916 13.4504 7.02177 13.6588 7.23015C13.8671 7.43852 14.1498 7.55558 14.4444 7.55558C14.7391 7.55558 15.0217 7.43852 15.2301 7.23015C15.4385 7.02177 15.5556 6.73916 15.5556 6.44447V5.33336H17.7778V19.7778Z" fill="#D9D9D9"/>
</svg>
